M48
; DRILL file KiCad 10.0.1 date 2026-06-25T21:30:37
; FORMAT={-:-/ absolute / inch / decimal}
; #@! TF.CreationDate,2026-06-25T21:30:37+08:00
; #@! TF.GenerationSoftware,Kicad,Pcbnew,10.0.1
; #@! TF.FileFunction,Plated,1,4,PTH
FMAT,2
INCH
; #@! TA.AperFunction,Plated,PTH,ViaDrill
T1C0.0118
; #@! TA.AperFunction,Plated,PTH,ComponentDrill
T2C0.0157
; #@! TA.AperFunction,Plated,PTH,ComponentDrill
T3C0.0236
; #@! TA.AperFunction,Plated,PTH,ComponentDrill
T4C0.0390
; #@! TA.AperFunction,Plated,PTH,ComponentDrill
T5C0.0394
; #@! TA.AperFunction,Plated,PTH,ComponentDrill
T6C0.0512
; #@! TA.AperFunction,Plated,PTH,ComponentDrill
T7C0.0630
; #@! TA.AperFunction,Plated,PTH,ComponentDrill
T8C0.0866
%
G90
G05
T1
X-1.0449Y0.8465
X-1.0097Y-0.4055
X-1.0087Y-0.5039
X-0.9449Y0.0591
X-0.9252Y-0.2461
X-0.9252Y-0.2756
X-0.915Y0.6988
X-0.8957Y1.0108
X-0.8957Y-0.2461
X-0.8957Y-0.2756
X-0.8935Y-0.4055
X-0.8872Y0.126
X-0.8764Y-0.128
X-0.835Y-0.0339
X-0.8169Y0.1378
X-0.8071Y0.187
X-0.7874Y0.2963
X-0.7853Y-0.686
X-0.785Y0.0441
X-0.7579Y0.939
X-0.7579Y0.5965
X-0.7579Y0.187
X-0.7326Y0.2273
X-0.7248Y-0.9511
X-0.7185Y0.2657
X-0.6988Y0.0984
X-0.6988Y-0.0394
X-0.6801Y0.2678
X-0.6657Y0.2377
X-0.6584Y-0.4331
X-0.6267Y0.2357
X-0.6022Y0.2135
X-0.5906Y0.8957
X-0.5906Y0.7972
X-0.5906Y-0.5315
X-0.5906Y-0.561
X-0.5904Y0.5556
X-0.5904Y0.4572
X-0.5883Y0.7288
X-0.5807Y-0.686
X-0.5786Y0.3964
X-0.565Y-0.1169
X-0.562Y-0.1907
X-0.562Y-0.2407
X-0.562Y-0.2907
X-0.562Y-0.3407
X-0.561Y-0.5315
X-0.561Y-0.561
X-0.5483Y0.1895
X-0.5311Y-0.0678
X-0.5262Y0.9749
X-0.5261Y0.6348
X-0.5258Y0.7288
X-0.5256Y0.3888
X-0.5248Y0.8469
X-0.5246Y0.5069
X-0.5217Y-0.1907
X-0.5217Y-0.2407
X-0.5217Y-0.2907
X-0.5217Y-0.3407
X-0.4823Y-0.1907
X-0.4823Y-0.2407
X-0.4823Y-0.2907
X-0.4823Y-0.3407
X-0.4687Y0.9444
X-0.4687Y0.7623
X-0.4685Y0.6043
X-0.4685Y0.4222
X-0.4626Y-0.4134
X-0.4528Y-0.1476
X-0.4408Y-0.6102
X-0.4232Y0.0591
X-0.4232Y-0.4134
X-0.4085Y0.0935
X-0.4052Y0.3606
X-0.3844Y0.0202
X-0.3617Y0.1929
X-0.3617Y0.1634
X-0.3617Y0.1339
X-0.3444Y-0.9511
X-0.3322Y0.1929
X-0.3322Y0.1634
X-0.3322Y0.1339
X-0.3238Y0.0197
X-0.3186Y-0.1805
X-0.3064Y0.8957
X-0.3064Y0.7972
X-0.3064Y0.5556
X-0.3064Y0.4572
X-0.3027Y0.1929
X-0.3027Y0.1634
X-0.3027Y0.1339
X-0.2873Y-0.3051
X-0.2687Y0.0197
X-0.2461Y-0.1476
X-0.2453Y0.2431
X-0.2421Y0.9749
X-0.2421Y0.6348
X-0.2416Y0.7288
X-0.2416Y0.3888
X-0.2406Y0.8469
X-0.2406Y0.5069
X-0.2264Y0.2756
X-0.1845Y0.9444
X-0.1845Y0.7623
X-0.1845Y0.6043
X-0.1845Y0.4222
X-0.1772Y0.2854
X-0.1575Y0.315
X-0.1307Y0.0094
X-0.109Y0.0349
X-0.1083Y0.315
X-0.0689Y0.0689
X-0.0591Y0.0021
X-0.0591Y-0.0908
X-0.0197Y0.3248
X-0.0148Y-0.1181
X0.0098Y0.1476
X0.0197Y-0.1181
X0.0295Y0.0591
X0.0301Y-0.9497
X0.0449Y0.1224
X0.0492Y0.0295
X0.0492Y-0.0197
X0.0579Y0.0732
X0.0886Y-0.0197
X0.0958Y0.8957
X0.0958Y0.7972
X0.0958Y0.5556
X0.0958Y0.4572
X0.128Y-0.0197
X0.1378Y0.1772
X0.1401Y0.2461
X0.1601Y0.9749
X0.1601Y0.6348
X0.1606Y0.7288
X0.1606Y0.3888
X0.1616Y0.8469
X0.1616Y0.5069
X0.1673Y-0.498
X0.187Y-0.5571
X0.187Y-0.5906
X0.2067Y-0.4724
X0.2177Y0.9444
X0.2177Y0.7623
X0.2177Y0.6043
X0.2177Y0.4222
X0.2264Y-0.1447
X0.2264Y-0.2096
X0.2719Y0.1143
X0.2953Y-0.1447
X0.2953Y-0.2096
X0.3206Y0.0703
X0.3642Y-0.2096
X0.3642Y-0.502
X0.3642Y-0.1447
X0.3799Y0.8957
X0.3799Y0.7972
X0.3799Y0.5556
X0.3799Y0.4572
X0.3937Y-0.502
X0.4105Y-0.9511
X0.4232Y-0.502
X0.4285Y-0.2096
X0.4305Y-0.1467
X0.4442Y0.9749
X0.4442Y0.6348
X0.4447Y0.7288
X0.4447Y0.3888
X0.4457Y0.8469
X0.4457Y0.5069
X0.4528Y-0.502
X0.4823Y-0.502
X0.4994Y-0.1447
X0.5018Y0.9444
X0.5018Y0.7623
X0.5018Y0.6043
X0.5018Y0.4222
X0.561Y0.9749
X0.561Y0.6348
X0.561Y-0.1447
X0.5643Y-0.4488
X0.5699Y-0.6398
X0.5906Y0.9449
X0.5906Y0.6043
X0.601Y-0.2579
X0.6167Y-0.7618
X0.6201Y0.8957
X0.6201Y0.5556
X0.6207Y-0.7067
X0.6254Y-0.4488
X0.6309Y-0.6398
X0.7034Y-0.2579
X0.7078Y0.9842
X0.7078Y0.7618
X0.7078Y0.5373
X0.7192Y-0.7776
X0.7283Y-0.5709
X0.7431Y-0.5906
X0.7585Y-0.5711
X0.7648Y-0.2928
X0.7726Y-0.5906
X0.7874Y-0.5709
X0.7976Y-0.9507
X0.8094Y-0.7404
X0.8176Y-0.7776
X0.8366Y-0.8563
X0.8366Y-0.8957
X0.8433Y-0.5826
X0.8563Y-0.5118
X0.8563Y-0.5413
X0.876Y-0.7382
X0.876Y-0.7776
X0.8858Y-0.5118
X0.8858Y-0.5413
X0.8858Y-0.5709
X0.8858Y-0.6004
X0.9055Y-0.6299
X0.9221Y-0.3307
X0.9826Y-0.243
X0.9843Y-0.3209
X0.9879Y-0.7392
X0.9941Y-0.2756
X1.0007Y0.4983
X1.001Y0.8999
X1.001Y0.703
X1.0022Y0.4354
X1.0025Y0.837
X1.0025Y0.6401
X1.0039Y-0.3543
X1.0138Y-0.4035
X1.0138Y-0.6398
T2
X-1.1059Y1.0433
X-1.1059Y-1.0433
X-1.0869Y1.0892
X-1.0869Y0.9974
X-1.0869Y-0.9974
X-1.0869Y-1.0892
X-1.041Y1.1083
X-1.041Y0.9783
X-1.041Y-0.9783
X-1.041Y-1.1083
X-0.995Y1.0892
X-0.995Y0.9974
X-0.995Y-0.9974
X-0.995Y-1.0892
X-0.976Y1.0433
X-0.976Y-1.0433
X0.9807Y1.0433
X0.9807Y-1.0433
X0.9997Y1.0892
X0.9997Y0.9974
X0.9997Y-0.9974
X0.9997Y-1.0892
X1.0456Y1.1083
X1.0456Y0.9783
X1.0456Y-0.9783
X1.0456Y-1.1083
X1.0916Y1.0892
X1.0916Y0.9974
X1.0916Y-0.9974
X1.0916Y-1.0892
X1.1106Y1.0433
X1.1106Y-1.0433
T4
X-0.8478Y-1.0496
X-0.6707Y-1.0496
X-0.4689Y-1.0496
X-0.2917Y-1.0496
X-0.09Y-1.0496
X0.0872Y-1.0496
X0.289Y-1.0496
X0.4661Y-1.0496
X0.6716Y-1.0492
X0.8488Y-1.0492
T5
X-1.0311Y0.7004
X-1.0311Y0.6004
X-1.0311Y0.5004
X-1.0311Y0.4004
X-1.0311Y0.3004
X-0.2591Y-0.4528
X-0.2591Y-0.6004
X-0.1591Y-0.4528
X-0.1591Y-0.6004
X-0.0591Y-0.4528
X-0.0591Y-0.6004
T6
X-0.8975Y-0.9515
X-0.6215Y-0.9515
X-0.5185Y-0.9515
X-0.2425Y-0.9515
X-0.1396Y-0.9515
X0.1364Y-0.9515
X0.2394Y-0.9515
X0.5153Y-0.9515
X0.622Y-0.9511
X0.898Y-0.9511
T7
X0.8886Y0.0882
X0.8886Y-0.1118
T8
X-1.041Y1.0433
X-1.041Y-1.0433
X1.0456Y1.0433
X1.0456Y-1.0433
T3
G00X-1.0587Y0.1701
M15
G01X-1.0902Y0.1701
M16
G05
G00X-1.0587Y-0.1701
M15
G01X-1.0902Y-0.1701
M16
G05
G00X-0.8882Y0.1701
M15
G01X-0.9315Y0.1701
M16
G05
G00X-0.8882Y-0.1701
M15
G01X-0.9315Y-0.1701
M16
G05
M30
