%TF.GenerationSoftware,KiCad,Pcbnew,10.0.1*%
%TF.CreationDate,2026-06-25T21:30:37+08:00*%
%TF.ProjectId,elec,656c6563-2e6b-4696-9361-645f70636258,v1*%
%TF.SameCoordinates,Original*%
%TF.FileFunction,Soldermask,Bot*%
%TF.FilePolarity,Negative*%
%FSLAX46Y46*%
G04 Gerber Fmt 4.6, Leading zero omitted, Abs format (unit mm)*
G04 Created by KiCad (PCBNEW 10.0.1) date 2026-06-25 21:30:37*
%MOMM*%
%LPD*%
G01*
G04 APERTURE LIST*
G04 Aperture macros list*
%AMRoundRect*
0 Rectangle with rounded corners*
0 $1 Rounding radius*
0 $2 $3 $4 $5 $6 $7 $8 $9 X,Y pos of 4 corners*
0 Add a 4 corners polygon primitive as box body*
4,1,4,$2,$3,$4,$5,$6,$7,$8,$9,$2,$3,0*
0 Add four circle primitives for the rounded corners*
1,1,$1+$1,$2,$3*
1,1,$1+$1,$4,$5*
1,1,$1+$1,$6,$7*
1,1,$1+$1,$8,$9*
0 Add four rect primitives between the rounded corners*
20,1,$1+$1,$2,$3,$4,$5,0*
20,1,$1+$1,$4,$5,$6,$7,0*
20,1,$1+$1,$6,$7,$8,$9,0*
20,1,$1+$1,$8,$9,$2,$3,0*%
%AMFreePoly0*
4,1,23,0.500000,-0.750000,0.000000,-0.750000,0.000000,-0.745722,-0.065263,-0.745722,-0.191342,-0.711940,-0.304381,-0.646677,-0.396677,-0.554381,-0.461940,-0.441342,-0.495722,-0.315263,-0.495722,-0.250000,-0.500000,-0.250000,-0.500000,0.250000,-0.495722,0.250000,-0.495722,0.315263,-0.461940,0.441342,-0.396677,0.554381,-0.304381,0.646677,-0.191342,0.711940,-0.065263,0.745722,0.000000,0.745722,
0.000000,0.750000,0.500000,0.750000,0.500000,-0.750000,0.500000,-0.750000,$1*%
%AMFreePoly1*
4,1,23,0.000000,0.745722,0.065263,0.745722,0.191342,0.711940,0.304381,0.646677,0.396677,0.554381,0.461940,0.441342,0.495722,0.315263,0.495722,0.250000,0.500000,0.250000,0.500000,-0.250000,0.495722,-0.250000,0.495722,-0.315263,0.461940,-0.441342,0.396677,-0.554381,0.304381,-0.646677,0.191342,-0.711940,0.065263,-0.745722,0.000000,-0.745722,0.000000,-0.750000,-0.500000,-0.750000,
-0.500000,0.750000,0.000000,0.750000,0.000000,0.745722,0.000000,0.745722,$1*%
G04 Aperture macros list end*
%ADD10C,0.000000*%
%ADD11RoundRect,0.250001X0.949999X-0.949999X0.949999X0.949999X-0.949999X0.949999X-0.949999X-0.949999X0*%
%ADD12C,2.400000*%
%ADD13C,2.100000*%
%ADD14C,1.750000*%
%ADD15R,1.700000X1.700000*%
%ADD16C,1.700000*%
%ADD17C,0.700000*%
%ADD18C,4.400000*%
%ADD19C,0.650000*%
%ADD20O,2.100000X1.000000*%
%ADD21O,1.800000X1.000000*%
%ADD22RoundRect,0.200000X0.200000X0.275000X-0.200000X0.275000X-0.200000X-0.275000X0.200000X-0.275000X0*%
%ADD23RoundRect,0.225000X-0.225000X-0.250000X0.225000X-0.250000X0.225000X0.250000X-0.225000X0.250000X0*%
%ADD24RoundRect,0.250000X-0.650000X0.325000X-0.650000X-0.325000X0.650000X-0.325000X0.650000X0.325000X0*%
%ADD25FreePoly0,90.000000*%
%ADD26FreePoly1,90.000000*%
%ADD27R,3.400000X1.300000*%
%ADD28RoundRect,0.225000X0.225000X0.250000X-0.225000X0.250000X-0.225000X-0.250000X0.225000X-0.250000X0*%
%ADD29RoundRect,0.200000X0.275000X-0.200000X0.275000X0.200000X-0.275000X0.200000X-0.275000X-0.200000X0*%
G04 APERTURE END LIST*
D10*
%TO.C,JP1*%
G36*
X20266472Y-13425000D02*
G01*
X18766472Y-13425000D01*
X18766472Y-13125000D01*
X20266472Y-13125000D01*
X20266472Y-13425000D01*
G37*
%TD*%
D11*
%TO.C,J3*%
X22569365Y-2840000D03*
D12*
X22569365Y2240000D03*
%TD*%
D13*
%TO.C,SW5*%
X-15785304Y-24169011D03*
X-22795304Y-24169010D03*
D14*
X-17035304Y-26659010D03*
X-21535305Y-26659010D03*
%TD*%
D13*
%TO.C,SW7*%
X22809366Y-24159011D03*
X15799366Y-24159010D03*
D14*
X21559366Y-26649010D03*
X17059365Y-26649010D03*
%TD*%
D15*
%TO.C,J2*%
X-26190636Y7630000D03*
D16*
X-26190636Y10170000D03*
X-26190636Y12709999D03*
X-26190636Y15250000D03*
X-26190636Y17790000D03*
%TD*%
D15*
%TO.C,J4*%
X-1500000Y-11500001D03*
D16*
X-4040000Y-11500001D03*
X-6579999Y-11500001D03*
%TD*%
D13*
%TO.C,SW3*%
X3464695Y-24169009D03*
X-3545305Y-24169008D03*
D14*
X2214695Y-26659008D03*
X-2285306Y-26659008D03*
%TD*%
D13*
%TO.C,SW6*%
X-6160304Y-24169011D03*
X-13170304Y-24169010D03*
D14*
X-7410304Y-26659010D03*
X-11910305Y-26659010D03*
%TD*%
D13*
%TO.C,SW4*%
X13089695Y-24169011D03*
X6079695Y-24169010D03*
D14*
X11839695Y-26659010D03*
X7339694Y-26659010D03*
%TD*%
D17*
%TO.C,H3*%
X-26440635Y-28150000D03*
X-27607361Y-27666726D03*
X-25273909Y-27666726D03*
X-28090635Y-26500000D03*
D18*
X-26440635Y-26500000D03*
D17*
X-24790635Y-26500000D03*
X-27607361Y-25333274D03*
X-25273909Y-25333274D03*
X-26440635Y-24850000D03*
%TD*%
%TO.C,H4*%
X26559365Y-28150000D03*
X25392639Y-27666726D03*
X27726091Y-27666726D03*
X24909365Y-26500000D03*
D18*
X26559365Y-26500000D03*
D17*
X28209365Y-26500000D03*
X25392639Y-25333274D03*
X27726091Y-25333274D03*
X26559365Y-24850000D03*
%TD*%
%TO.C,H2*%
X26559365Y24850000D03*
X25392639Y25333274D03*
X27726091Y25333274D03*
X24909365Y26500000D03*
D18*
X26559365Y26500000D03*
D17*
X28209365Y26500000D03*
X25392639Y27666726D03*
X27726091Y27666726D03*
X26559365Y28150000D03*
%TD*%
D15*
%TO.C,J5*%
X-1500000Y-15250000D03*
D16*
X-4040000Y-15250000D03*
X-6579999Y-15250000D03*
%TD*%
D17*
%TO.C,H1*%
X-26440635Y24850000D03*
X-27607361Y25333274D03*
X-25273909Y25333274D03*
X-28090635Y26500000D03*
D18*
X-26440635Y26500000D03*
D17*
X-24790635Y26500000D03*
X-27607361Y27666726D03*
X-25273909Y27666726D03*
X-26440635Y28150000D03*
%TD*%
D19*
%TO.C,J1*%
X-23609836Y2890000D03*
X-23609836Y-2890000D03*
D20*
X-23109836Y4320000D03*
D21*
X-27289836Y4320000D03*
D20*
X-23109836Y-4320000D03*
D21*
X-27289836Y-4320000D03*
%TD*%
D22*
%TO.C,R20*%
X25091470Y-13500000D03*
X23441470Y-13500000D03*
%TD*%
D23*
%TO.C,C10*%
X14334365Y-11400001D03*
X15884365Y-11400001D03*
%TD*%
D24*
%TO.C,C14*%
X15266472Y-6549999D03*
X15266472Y-9500001D03*
%TD*%
D22*
%TO.C,R15*%
X25091472Y-17025000D03*
X23441472Y-17025000D03*
%TD*%
%TO.C,R16*%
X25091472Y-18774999D03*
X23441472Y-18774999D03*
%TD*%
D23*
%TO.C,C9*%
X14475000Y-16250001D03*
X16025000Y-16250001D03*
%TD*%
D24*
%TO.C,C16*%
X20516471Y-6549999D03*
X20516471Y-9500001D03*
%TD*%
D25*
%TO.C,JP1*%
X19516472Y-13924999D03*
D26*
X19516472Y-12625001D03*
%TD*%
D24*
%TO.C,C13*%
X20766472Y-16799999D03*
X20766472Y-19750001D03*
%TD*%
%TO.C,C11*%
X18266472Y-16799999D03*
X18266472Y-19750001D03*
%TD*%
%TO.C,C17*%
X23016471Y-6549999D03*
X23016471Y-9500001D03*
%TD*%
%TO.C,C15*%
X17866471Y-6549999D03*
X17866471Y-9500001D03*
%TD*%
D23*
%TO.C,C18*%
X23491472Y-11749999D03*
X25041472Y-11749999D03*
%TD*%
D27*
%TO.C,BZ1*%
X-19250000Y15150000D03*
X-19250000Y23849998D03*
%TD*%
D28*
%TO.C,C19*%
X25041471Y-15250000D03*
X23491471Y-15250000D03*
%TD*%
D29*
%TO.C,R14*%
X15766472Y-19599999D03*
X15766472Y-17949999D03*
%TD*%
M02*
