%TF.GenerationSoftware,KiCad,Pcbnew,10.0.1*%
%TF.CreationDate,2026-06-23T14:05:49+08:00*%
%TF.ProjectId,elec,656c6563-2e6b-4696-9361-645f70636258,v0.1*%
%TF.SameCoordinates,Original*%
%TF.FileFunction,Paste,Top*%
%TF.FilePolarity,Positive*%
%FSLAX46Y46*%
G04 Gerber Fmt 4.6, Leading zero omitted, Abs format (unit mm)*
G04 Created by KiCad (PCBNEW 10.0.1) date 2026-06-23 14:05:49*
%MOMM*%
%LPD*%
G01*
G04 APERTURE LIST*
G04 Aperture macros list*
%AMRoundRect*
0 Rectangle with rounded corners*
0 $1 Rounding radius*
0 $2 $3 $4 $5 $6 $7 $8 $9 X,Y pos of 4 corners*
0 Add a 4 corners polygon primitive as box body*
4,1,4,$2,$3,$4,$5,$6,$7,$8,$9,$2,$3,0*
0 Add four circle primitives for the rounded corners*
1,1,$1+$1,$2,$3*
1,1,$1+$1,$4,$5*
1,1,$1+$1,$6,$7*
1,1,$1+$1,$8,$9*
0 Add four rect primitives between the rounded corners*
20,1,$1+$1,$2,$3,$4,$5,0*
20,1,$1+$1,$4,$5,$6,$7,0*
20,1,$1+$1,$6,$7,$8,$9,0*
20,1,$1+$1,$8,$9,$2,$3,0*%
G04 Aperture macros list end*
%ADD10C,0.010000*%
%ADD11RoundRect,0.200000X-0.275000X0.200000X-0.275000X-0.200000X0.275000X-0.200000X0.275000X0.200000X0*%
%ADD12RoundRect,0.200000X0.275000X-0.200000X0.275000X0.200000X-0.275000X0.200000X-0.275000X-0.200000X0*%
%ADD13RoundRect,0.218750X-0.256250X0.218750X-0.256250X-0.218750X0.256250X-0.218750X0.256250X0.218750X0*%
%ADD14RoundRect,0.218750X-0.218750X-0.256250X0.218750X-0.256250X0.218750X0.256250X-0.218750X0.256250X0*%
%ADD15RoundRect,0.218750X0.256250X-0.218750X0.256250X0.218750X-0.256250X0.218750X-0.256250X-0.218750X0*%
%ADD16RoundRect,0.232500X0.232500X-0.232500X0.232500X0.232500X-0.232500X0.232500X-0.232500X-0.232500X0*%
%ADD17RoundRect,0.050000X0.050000X-0.362500X0.050000X0.362500X-0.050000X0.362500X-0.050000X-0.362500X0*%
%ADD18RoundRect,0.050000X0.362500X-0.050000X0.362500X0.050000X-0.362500X0.050000X-0.362500X-0.050000X0*%
%ADD19RoundRect,0.125000X0.353553X0.530330X-0.530330X-0.353553X-0.353553X-0.530330X0.530330X0.353553X0*%
%ADD20RoundRect,0.125000X-0.353553X0.530330X-0.530330X0.353553X0.353553X-0.530330X0.530330X-0.353553X0*%
%ADD21RoundRect,0.200000X-0.200000X-0.275000X0.200000X-0.275000X0.200000X0.275000X-0.200000X0.275000X0*%
%ADD22RoundRect,0.225000X-0.335876X-0.017678X-0.017678X-0.335876X0.335876X0.017678X0.017678X0.335876X0*%
%ADD23RoundRect,0.250000X1.425000X-0.362500X1.425000X0.362500X-1.425000X0.362500X-1.425000X-0.362500X0*%
%ADD24RoundRect,0.250000X0.325000X0.650000X-0.325000X0.650000X-0.325000X-0.650000X0.325000X-0.650000X0*%
%ADD25RoundRect,0.056250X0.068750X-0.243750X0.068750X0.243750X-0.068750X0.243750X-0.068750X-0.243750X0*%
%ADD26RoundRect,0.056250X0.268750X-0.068750X0.268750X0.068750X-0.268750X0.068750X-0.268750X-0.068750X0*%
%ADD27RoundRect,0.056250X0.243750X-0.068750X0.243750X0.068750X-0.243750X0.068750X-0.243750X-0.068750X0*%
%ADD28R,0.800000X2.000000*%
%ADD29R,1.003300X0.457200*%
%ADD30R,5.400000X2.900000*%
%ADD31RoundRect,0.225000X-0.250000X0.225000X-0.250000X-0.225000X0.250000X-0.225000X0.250000X0.225000X0*%
%ADD32RoundRect,0.225000X0.335876X0.017678X0.017678X0.335876X-0.335876X-0.017678X-0.017678X-0.335876X0*%
%ADD33RoundRect,0.200000X-0.053033X0.335876X-0.335876X0.053033X0.053033X-0.335876X0.335876X-0.053033X0*%
%ADD34RoundRect,0.225000X0.250000X-0.225000X0.250000X0.225000X-0.250000X0.225000X-0.250000X-0.225000X0*%
%ADD35RoundRect,0.225000X0.017678X-0.335876X0.335876X-0.017678X-0.017678X0.335876X-0.335876X0.017678X0*%
%ADD36RoundRect,0.250000X-0.325000X-0.650000X0.325000X-0.650000X0.325000X0.650000X-0.325000X0.650000X0*%
%ADD37RoundRect,0.177500X-0.177500X-0.177500X0.177500X-0.177500X0.177500X0.177500X-0.177500X0.177500X0*%
%ADD38RoundRect,0.062500X-0.312500X-0.062500X0.312500X-0.062500X0.312500X0.062500X-0.312500X0.062500X0*%
%ADD39RoundRect,0.062500X-0.062500X-0.312500X0.062500X-0.312500X0.062500X0.312500X-0.062500X0.312500X0*%
%ADD40RoundRect,0.249999X1.850001X-0.450001X1.850001X0.450001X-1.850001X0.450001X-1.850001X-0.450001X0*%
%ADD41RoundRect,0.225000X0.225000X0.250000X-0.225000X0.250000X-0.225000X-0.250000X0.225000X-0.250000X0*%
%ADD42RoundRect,0.225000X-0.225000X-0.375000X0.225000X-0.375000X0.225000X0.375000X-0.225000X0.375000X0*%
%ADD43RoundRect,0.150000X-0.425000X0.150000X-0.425000X-0.150000X0.425000X-0.150000X0.425000X0.150000X0*%
%ADD44RoundRect,0.075000X-0.500000X0.075000X-0.500000X-0.075000X0.500000X-0.075000X0.500000X0.075000X0*%
%ADD45O,2.100000X1.000000*%
%ADD46O,1.800000X1.000000*%
%ADD47RoundRect,0.150000X-0.825000X-0.150000X0.825000X-0.150000X0.825000X0.150000X-0.825000X0.150000X0*%
%ADD48RoundRect,0.200000X0.053033X-0.335876X0.335876X-0.053033X-0.053033X0.335876X-0.335876X0.053033X0*%
G04 APERTURE END LIST*
D10*
%TO.C,U4*%
X18516472Y-12174999D02*
X18519472Y-12174998D01*
X18521472Y-12174998D01*
X18524472Y-12175998D01*
X18526472Y-12175998D01*
X18529472Y-12176998D01*
X18531472Y-12176998D01*
X18534472Y-12177998D01*
X18536472Y-12178998D01*
X18539472Y-12179999D01*
X18541472Y-12181998D01*
X18543472Y-12182998D01*
X18545472Y-12184998D01*
X18547472Y-12185998D01*
X18549471Y-12187998D01*
X18551472Y-12189998D01*
X18553471Y-12191998D01*
X18555472Y-12193999D01*
X18556472Y-12195998D01*
X18558471Y-12197998D01*
X18559472Y-12199998D01*
X18561472Y-12201998D01*
X18562472Y-12204998D01*
X18563472Y-12206998D01*
X18564472Y-12209998D01*
X18564472Y-12211999D01*
X18565472Y-12214998D01*
X18565472Y-12216998D01*
X18566472Y-12219998D01*
X18566472Y-12221998D01*
X18566472Y-12224998D01*
X18566472Y-12374998D01*
X18566472Y-12377998D01*
X18566472Y-12379998D01*
X18565472Y-12382998D01*
X18565472Y-12384998D01*
X18564472Y-12387998D01*
X18564472Y-12389999D01*
X18563472Y-12392998D01*
X18562472Y-12394998D01*
X18561472Y-12397998D01*
X18559472Y-12399998D01*
X18558472Y-12401998D01*
X18556472Y-12403998D01*
X18555472Y-12405998D01*
X18553471Y-12407998D01*
X18551472Y-12409998D01*
X18549472Y-12411997D01*
X18547472Y-12413998D01*
X18545472Y-12414998D01*
X18543472Y-12416998D01*
X18541472Y-12417998D01*
X18539472Y-12419998D01*
X18536472Y-12420998D01*
X18534472Y-12421998D01*
X18531472Y-12422999D01*
X18529472Y-12422998D01*
X18526472Y-12423998D01*
X18524472Y-12423998D01*
X18521472Y-12424998D01*
X18519472Y-12424998D01*
X18516472Y-12424998D01*
X17616472Y-12424998D01*
X17613472Y-12424998D01*
X17611472Y-12424998D01*
X17608472Y-12423998D01*
X17606472Y-12423998D01*
X17603472Y-12422999D01*
X17601472Y-12422998D01*
X17598472Y-12421998D01*
X17596472Y-12420998D01*
X17593472Y-12419998D01*
X17591473Y-12417998D01*
X17589471Y-12416998D01*
X17587472Y-12414998D01*
X17585472Y-12413999D01*
X17583472Y-12411998D01*
X17581472Y-12409998D01*
X17579471Y-12407998D01*
X17577472Y-12405998D01*
X17576472Y-12403999D01*
X17574472Y-12401998D01*
X17573472Y-12399998D01*
X17571472Y-12397997D01*
X17570472Y-12394998D01*
X17569472Y-12392998D01*
X17568472Y-12389998D01*
X17568472Y-12387998D01*
X17567473Y-12384998D01*
X17567472Y-12382998D01*
X17566472Y-12379998D01*
X17566472Y-12377998D01*
X17566472Y-12374997D01*
X17566472Y-12224997D01*
X17566472Y-12221998D01*
X17566472Y-12219998D01*
X17567472Y-12216999D01*
X17567472Y-12214997D01*
X17568472Y-12211998D01*
X17568472Y-12209998D01*
X17569472Y-12206998D01*
X17570472Y-12204998D01*
X17571472Y-12201997D01*
X17573472Y-12199998D01*
X17574472Y-12197998D01*
X17576472Y-12195998D01*
X17577472Y-12193998D01*
X17579471Y-12191998D01*
X17581472Y-12189998D01*
X17583472Y-12187998D01*
X17585472Y-12185998D01*
X17587472Y-12184998D01*
X17589471Y-12182998D01*
X17591472Y-12181998D01*
X17593471Y-12179998D01*
X17596472Y-12178998D01*
X17598472Y-12177998D01*
X17601472Y-12176998D01*
X17603472Y-12176998D01*
X17606472Y-12175998D01*
X17608472Y-12175998D01*
X17611472Y-12174998D01*
X17613472Y-12174998D01*
X17616472Y-12174998D01*
X18516472Y-12174999D01*
G36*
X18516472Y-12174999D02*
G01*
X18519472Y-12174998D01*
X18521472Y-12174998D01*
X18524472Y-12175998D01*
X18526472Y-12175998D01*
X18529472Y-12176998D01*
X18531472Y-12176998D01*
X18534472Y-12177998D01*
X18536472Y-12178998D01*
X18539472Y-12179999D01*
X18541472Y-12181998D01*
X18543472Y-12182998D01*
X18545472Y-12184998D01*
X18547472Y-12185998D01*
X18549471Y-12187998D01*
X18551472Y-12189998D01*
X18553471Y-12191998D01*
X18555472Y-12193999D01*
X18556472Y-12195998D01*
X18558471Y-12197998D01*
X18559472Y-12199998D01*
X18561472Y-12201998D01*
X18562472Y-12204998D01*
X18563472Y-12206998D01*
X18564472Y-12209998D01*
X18564472Y-12211999D01*
X18565472Y-12214998D01*
X18565472Y-12216998D01*
X18566472Y-12219998D01*
X18566472Y-12221998D01*
X18566472Y-12224998D01*
X18566472Y-12374998D01*
X18566472Y-12377998D01*
X18566472Y-12379998D01*
X18565472Y-12382998D01*
X18565472Y-12384998D01*
X18564472Y-12387998D01*
X18564472Y-12389999D01*
X18563472Y-12392998D01*
X18562472Y-12394998D01*
X18561472Y-12397998D01*
X18559472Y-12399998D01*
X18558472Y-12401998D01*
X18556472Y-12403998D01*
X18555472Y-12405998D01*
X18553471Y-12407998D01*
X18551472Y-12409998D01*
X18549472Y-12411997D01*
X18547472Y-12413998D01*
X18545472Y-12414998D01*
X18543472Y-12416998D01*
X18541472Y-12417998D01*
X18539472Y-12419998D01*
X18536472Y-12420998D01*
X18534472Y-12421998D01*
X18531472Y-12422999D01*
X18529472Y-12422998D01*
X18526472Y-12423998D01*
X18524472Y-12423998D01*
X18521472Y-12424998D01*
X18519472Y-12424998D01*
X18516472Y-12424998D01*
X17616472Y-12424998D01*
X17613472Y-12424998D01*
X17611472Y-12424998D01*
X17608472Y-12423998D01*
X17606472Y-12423998D01*
X17603472Y-12422999D01*
X17601472Y-12422998D01*
X17598472Y-12421998D01*
X17596472Y-12420998D01*
X17593472Y-12419998D01*
X17591473Y-12417998D01*
X17589471Y-12416998D01*
X17587472Y-12414998D01*
X17585472Y-12413999D01*
X17583472Y-12411998D01*
X17581472Y-12409998D01*
X17579471Y-12407998D01*
X17577472Y-12405998D01*
X17576472Y-12403999D01*
X17574472Y-12401998D01*
X17573472Y-12399998D01*
X17571472Y-12397997D01*
X17570472Y-12394998D01*
X17569472Y-12392998D01*
X17568472Y-12389998D01*
X17568472Y-12387998D01*
X17567473Y-12384998D01*
X17567472Y-12382998D01*
X17566472Y-12379998D01*
X17566472Y-12377998D01*
X17566472Y-12374997D01*
X17566472Y-12224997D01*
X17566472Y-12221998D01*
X17566472Y-12219998D01*
X17567472Y-12216999D01*
X17567472Y-12214997D01*
X17568472Y-12211998D01*
X17568472Y-12209998D01*
X17569472Y-12206998D01*
X17570472Y-12204998D01*
X17571472Y-12201997D01*
X17573472Y-12199998D01*
X17574472Y-12197998D01*
X17576472Y-12195998D01*
X17577472Y-12193998D01*
X17579471Y-12191998D01*
X17581472Y-12189998D01*
X17583472Y-12187998D01*
X17585472Y-12185998D01*
X17587472Y-12184998D01*
X17589471Y-12182998D01*
X17591472Y-12181998D01*
X17593471Y-12179998D01*
X17596472Y-12178998D01*
X17598472Y-12177998D01*
X17601472Y-12176998D01*
X17603472Y-12176998D01*
X17606472Y-12175998D01*
X17608472Y-12175998D01*
X17611472Y-12174998D01*
X17613472Y-12174998D01*
X17616472Y-12174998D01*
X18516472Y-12174999D01*
G37*
X17616472Y-12674998D02*
X18516472Y-12674998D01*
X18519472Y-12674998D01*
X18521471Y-12674998D01*
X18524472Y-12675998D01*
X18526472Y-12675998D01*
X18529472Y-12676998D01*
X18531472Y-12676998D01*
X18534472Y-12677998D01*
X18536472Y-12678997D01*
X18539472Y-12679998D01*
X18541472Y-12681998D01*
X18543472Y-12682998D01*
X18545472Y-12684998D01*
X18547472Y-12685998D01*
X18549472Y-12687998D01*
X18551472Y-12689998D01*
X18553472Y-12691998D01*
X18555472Y-12693998D01*
X18556472Y-12695998D01*
X18558472Y-12697998D01*
X18559472Y-12699998D01*
X18561472Y-12701998D01*
X18562472Y-12704998D01*
X18563472Y-12706997D01*
X18564472Y-12709998D01*
X18564472Y-12711998D01*
X18565472Y-12714998D01*
X18565473Y-12716998D01*
X18566472Y-12719998D01*
X18566472Y-12721998D01*
X18566472Y-12724998D01*
X18566472Y-12874998D01*
X18566472Y-12877998D01*
X18566472Y-12879998D01*
X18565472Y-12882998D01*
X18565473Y-12884998D01*
X18564472Y-12887998D01*
X18564472Y-12889998D01*
X18563472Y-12892998D01*
X18562472Y-12894998D01*
X18561472Y-12897998D01*
X18559472Y-12899999D01*
X18558472Y-12901998D01*
X18556472Y-12903998D01*
X18555472Y-12905998D01*
X18553472Y-12907998D01*
X18551472Y-12909998D01*
X18549472Y-12911998D01*
X18547472Y-12913998D01*
X18545472Y-12914999D01*
X18543472Y-12916998D01*
X18541473Y-12917998D01*
X18539472Y-12919998D01*
X18536472Y-12920998D01*
X18534472Y-12921998D01*
X18531472Y-12922998D01*
X18529472Y-12922998D01*
X18526472Y-12923999D01*
X18524472Y-12923998D01*
X18521472Y-12924998D01*
X18519472Y-12924998D01*
X18516472Y-12924998D01*
X17616472Y-12924998D01*
X17613472Y-12924998D01*
X17611472Y-12924998D01*
X17608472Y-12923999D01*
X17606472Y-12923998D01*
X17603472Y-12922998D01*
X17601472Y-12922998D01*
X17598472Y-12921997D01*
X17596472Y-12920998D01*
X17593472Y-12919998D01*
X17591472Y-12917998D01*
X17589472Y-12916998D01*
X17587472Y-12914998D01*
X17585472Y-12913998D01*
X17583472Y-12911998D01*
X17581472Y-12909998D01*
X17579472Y-12907998D01*
X17577472Y-12905998D01*
X17576472Y-12903998D01*
X17574472Y-12901998D01*
X17573472Y-12899998D01*
X17571472Y-12897998D01*
X17570471Y-12894998D01*
X17569472Y-12892998D01*
X17568472Y-12889998D01*
X17568472Y-12887998D01*
X17567472Y-12884998D01*
X17567472Y-12882998D01*
X17566472Y-12879997D01*
X17566472Y-12877998D01*
X17566472Y-12874998D01*
X17566472Y-12724998D01*
X17566471Y-12721998D01*
X17566472Y-12719998D01*
X17567472Y-12716998D01*
X17567472Y-12714998D01*
X17568472Y-12711998D01*
X17568472Y-12709998D01*
X17569472Y-12706998D01*
X17570472Y-12704998D01*
X17571472Y-12701998D01*
X17573472Y-12699998D01*
X17574472Y-12697998D01*
X17576472Y-12695998D01*
X17577472Y-12693998D01*
X17579472Y-12691998D01*
X17581472Y-12689999D01*
X17583472Y-12687998D01*
X17585472Y-12685998D01*
X17587472Y-12684998D01*
X17589472Y-12682998D01*
X17591472Y-12681998D01*
X17593472Y-12679998D01*
X17596472Y-12678998D01*
X17598472Y-12677998D01*
X17601472Y-12676998D01*
X17603472Y-12676998D01*
X17606472Y-12675998D01*
X17608472Y-12675998D01*
X17611472Y-12674998D01*
X17613472Y-12674997D01*
X17616472Y-12674998D01*
G36*
X17616472Y-12674998D02*
G01*
X18516472Y-12674998D01*
X18519472Y-12674998D01*
X18521471Y-12674998D01*
X18524472Y-12675998D01*
X18526472Y-12675998D01*
X18529472Y-12676998D01*
X18531472Y-12676998D01*
X18534472Y-12677998D01*
X18536472Y-12678997D01*
X18539472Y-12679998D01*
X18541472Y-12681998D01*
X18543472Y-12682998D01*
X18545472Y-12684998D01*
X18547472Y-12685998D01*
X18549472Y-12687998D01*
X18551472Y-12689998D01*
X18553472Y-12691998D01*
X18555472Y-12693998D01*
X18556472Y-12695998D01*
X18558472Y-12697998D01*
X18559472Y-12699998D01*
X18561472Y-12701998D01*
X18562472Y-12704998D01*
X18563472Y-12706997D01*
X18564472Y-12709998D01*
X18564472Y-12711998D01*
X18565472Y-12714998D01*
X18565473Y-12716998D01*
X18566472Y-12719998D01*
X18566472Y-12721998D01*
X18566472Y-12724998D01*
X18566472Y-12874998D01*
X18566472Y-12877998D01*
X18566472Y-12879998D01*
X18565472Y-12882998D01*
X18565473Y-12884998D01*
X18564472Y-12887998D01*
X18564472Y-12889998D01*
X18563472Y-12892998D01*
X18562472Y-12894998D01*
X18561472Y-12897998D01*
X18559472Y-12899999D01*
X18558472Y-12901998D01*
X18556472Y-12903998D01*
X18555472Y-12905998D01*
X18553472Y-12907998D01*
X18551472Y-12909998D01*
X18549472Y-12911998D01*
X18547472Y-12913998D01*
X18545472Y-12914999D01*
X18543472Y-12916998D01*
X18541473Y-12917998D01*
X18539472Y-12919998D01*
X18536472Y-12920998D01*
X18534472Y-12921998D01*
X18531472Y-12922998D01*
X18529472Y-12922998D01*
X18526472Y-12923999D01*
X18524472Y-12923998D01*
X18521472Y-12924998D01*
X18519472Y-12924998D01*
X18516472Y-12924998D01*
X17616472Y-12924998D01*
X17613472Y-12924998D01*
X17611472Y-12924998D01*
X17608472Y-12923999D01*
X17606472Y-12923998D01*
X17603472Y-12922998D01*
X17601472Y-12922998D01*
X17598472Y-12921997D01*
X17596472Y-12920998D01*
X17593472Y-12919998D01*
X17591472Y-12917998D01*
X17589472Y-12916998D01*
X17587472Y-12914998D01*
X17585472Y-12913998D01*
X17583472Y-12911998D01*
X17581472Y-12909998D01*
X17579472Y-12907998D01*
X17577472Y-12905998D01*
X17576472Y-12903998D01*
X17574472Y-12901998D01*
X17573472Y-12899998D01*
X17571472Y-12897998D01*
X17570471Y-12894998D01*
X17569472Y-12892998D01*
X17568472Y-12889998D01*
X17568472Y-12887998D01*
X17567472Y-12884998D01*
X17567472Y-12882998D01*
X17566472Y-12879997D01*
X17566472Y-12877998D01*
X17566472Y-12874998D01*
X17566472Y-12724998D01*
X17566471Y-12721998D01*
X17566472Y-12719998D01*
X17567472Y-12716998D01*
X17567472Y-12714998D01*
X17568472Y-12711998D01*
X17568472Y-12709998D01*
X17569472Y-12706998D01*
X17570472Y-12704998D01*
X17571472Y-12701998D01*
X17573472Y-12699998D01*
X17574472Y-12697998D01*
X17576472Y-12695998D01*
X17577472Y-12693998D01*
X17579472Y-12691998D01*
X17581472Y-12689999D01*
X17583472Y-12687998D01*
X17585472Y-12685998D01*
X17587472Y-12684998D01*
X17589472Y-12682998D01*
X17591472Y-12681998D01*
X17593472Y-12679998D01*
X17596472Y-12678998D01*
X17598472Y-12677998D01*
X17601472Y-12676998D01*
X17603472Y-12676998D01*
X17606472Y-12675998D01*
X17608472Y-12675998D01*
X17611472Y-12674998D01*
X17613472Y-12674997D01*
X17616472Y-12674998D01*
G37*
X18524472Y-13215998D02*
X18526472Y-13215998D01*
X18529472Y-13216998D01*
X18531472Y-13216997D01*
X18534472Y-13217998D01*
X18536472Y-13218998D01*
X18539472Y-13219998D01*
X18541472Y-13221998D01*
X18543472Y-13222998D01*
X18545472Y-13224998D01*
X18547472Y-13225998D01*
X18549471Y-13227998D01*
X18551472Y-13229998D01*
X18553471Y-13231998D01*
X18555472Y-13233998D01*
X18556472Y-13235998D01*
X18558472Y-13237999D01*
X18559472Y-13239998D01*
X18561472Y-13241998D01*
X18562472Y-13244998D01*
X18563472Y-13246998D01*
X18564472Y-13249997D01*
X18564472Y-13251999D01*
X18565472Y-13254998D01*
X18565472Y-13256998D01*
X18566472Y-13259998D01*
X18566472Y-13261998D01*
X18566472Y-13264998D01*
X18566472Y-13414998D01*
X18566472Y-13417998D01*
X18566472Y-13419998D01*
X18565472Y-13422998D01*
X18565472Y-13424998D01*
X18564472Y-13427997D01*
X18564472Y-13429999D01*
X18563472Y-13432998D01*
X18562472Y-13434998D01*
X18561472Y-13437998D01*
X18559472Y-13439998D01*
X18558472Y-13441997D01*
X18556472Y-13443998D01*
X18555472Y-13445998D01*
X18553471Y-13447998D01*
X18551472Y-13449998D01*
X18549471Y-13451998D01*
X18547472Y-13453998D01*
X18545472Y-13454998D01*
X18543472Y-13456998D01*
X18541472Y-13457998D01*
X18539472Y-13459998D01*
X18536472Y-13460998D01*
X18534472Y-13461998D01*
X18531472Y-13462999D01*
X18529472Y-13462998D01*
X18526472Y-13463998D01*
X18524472Y-13463998D01*
X18521472Y-13464998D01*
X18519472Y-13464998D01*
X18516472Y-13464998D01*
X17616472Y-13464998D01*
X17613472Y-13464998D01*
X17611472Y-13464998D01*
X17608472Y-13463998D01*
X17606472Y-13463998D01*
X17603472Y-13462999D01*
X17601472Y-13462998D01*
X17598472Y-13461998D01*
X17596472Y-13460998D01*
X17593472Y-13459998D01*
X17591473Y-13457998D01*
X17589471Y-13456998D01*
X17587472Y-13454998D01*
X17585472Y-13453998D01*
X17583472Y-13451998D01*
X17581472Y-13449998D01*
X17579471Y-13447998D01*
X17577472Y-13445998D01*
X17576472Y-13443999D01*
X17574472Y-13441998D01*
X17573472Y-13439998D01*
X17571472Y-13437997D01*
X17570472Y-13434998D01*
X17569472Y-13432998D01*
X17568472Y-13429998D01*
X17568472Y-13427998D01*
X17567473Y-13424998D01*
X17567472Y-13422997D01*
X17566472Y-13419998D01*
X17566472Y-13417998D01*
X17566471Y-13414998D01*
X17566471Y-13264998D01*
X17566472Y-13261998D01*
X17566472Y-13259998D01*
X17567472Y-13256999D01*
X17567473Y-13254998D01*
X17568472Y-13251998D01*
X17568472Y-13249998D01*
X17569472Y-13246998D01*
X17570472Y-13244998D01*
X17571472Y-13241999D01*
X17573472Y-13239998D01*
X17574472Y-13237998D01*
X17576472Y-13235997D01*
X17577472Y-13233998D01*
X17579471Y-13231998D01*
X17581472Y-13229998D01*
X17583472Y-13227998D01*
X17585472Y-13225998D01*
X17587472Y-13224998D01*
X17589471Y-13222998D01*
X17591473Y-13221998D01*
X17593472Y-13219998D01*
X17596472Y-13218998D01*
X17598472Y-13217998D01*
X17601472Y-13216998D01*
X17603472Y-13216997D01*
X17606472Y-13215998D01*
X17608472Y-13215998D01*
X17611472Y-13214998D01*
X17613472Y-13214998D01*
X17616472Y-13214998D01*
X18516472Y-13214998D01*
X18519472Y-13214998D01*
X18521472Y-13214998D01*
X18524472Y-13215998D01*
G36*
X18524472Y-13215998D02*
G01*
X18526472Y-13215998D01*
X18529472Y-13216998D01*
X18531472Y-13216997D01*
X18534472Y-13217998D01*
X18536472Y-13218998D01*
X18539472Y-13219998D01*
X18541472Y-13221998D01*
X18543472Y-13222998D01*
X18545472Y-13224998D01*
X18547472Y-13225998D01*
X18549471Y-13227998D01*
X18551472Y-13229998D01*
X18553471Y-13231998D01*
X18555472Y-13233998D01*
X18556472Y-13235998D01*
X18558472Y-13237999D01*
X18559472Y-13239998D01*
X18561472Y-13241998D01*
X18562472Y-13244998D01*
X18563472Y-13246998D01*
X18564472Y-13249997D01*
X18564472Y-13251999D01*
X18565472Y-13254998D01*
X18565472Y-13256998D01*
X18566472Y-13259998D01*
X18566472Y-13261998D01*
X18566472Y-13264998D01*
X18566472Y-13414998D01*
X18566472Y-13417998D01*
X18566472Y-13419998D01*
X18565472Y-13422998D01*
X18565472Y-13424998D01*
X18564472Y-13427997D01*
X18564472Y-13429999D01*
X18563472Y-13432998D01*
X18562472Y-13434998D01*
X18561472Y-13437998D01*
X18559472Y-13439998D01*
X18558472Y-13441997D01*
X18556472Y-13443998D01*
X18555472Y-13445998D01*
X18553471Y-13447998D01*
X18551472Y-13449998D01*
X18549471Y-13451998D01*
X18547472Y-13453998D01*
X18545472Y-13454998D01*
X18543472Y-13456998D01*
X18541472Y-13457998D01*
X18539472Y-13459998D01*
X18536472Y-13460998D01*
X18534472Y-13461998D01*
X18531472Y-13462999D01*
X18529472Y-13462998D01*
X18526472Y-13463998D01*
X18524472Y-13463998D01*
X18521472Y-13464998D01*
X18519472Y-13464998D01*
X18516472Y-13464998D01*
X17616472Y-13464998D01*
X17613472Y-13464998D01*
X17611472Y-13464998D01*
X17608472Y-13463998D01*
X17606472Y-13463998D01*
X17603472Y-13462999D01*
X17601472Y-13462998D01*
X17598472Y-13461998D01*
X17596472Y-13460998D01*
X17593472Y-13459998D01*
X17591473Y-13457998D01*
X17589471Y-13456998D01*
X17587472Y-13454998D01*
X17585472Y-13453998D01*
X17583472Y-13451998D01*
X17581472Y-13449998D01*
X17579471Y-13447998D01*
X17577472Y-13445998D01*
X17576472Y-13443999D01*
X17574472Y-13441998D01*
X17573472Y-13439998D01*
X17571472Y-13437997D01*
X17570472Y-13434998D01*
X17569472Y-13432998D01*
X17568472Y-13429998D01*
X17568472Y-13427998D01*
X17567473Y-13424998D01*
X17567472Y-13422997D01*
X17566472Y-13419998D01*
X17566472Y-13417998D01*
X17566471Y-13414998D01*
X17566471Y-13264998D01*
X17566472Y-13261998D01*
X17566472Y-13259998D01*
X17567472Y-13256999D01*
X17567473Y-13254998D01*
X17568472Y-13251998D01*
X17568472Y-13249998D01*
X17569472Y-13246998D01*
X17570472Y-13244998D01*
X17571472Y-13241999D01*
X17573472Y-13239998D01*
X17574472Y-13237998D01*
X17576472Y-13235997D01*
X17577472Y-13233998D01*
X17579471Y-13231998D01*
X17581472Y-13229998D01*
X17583472Y-13227998D01*
X17585472Y-13225998D01*
X17587472Y-13224998D01*
X17589471Y-13222998D01*
X17591473Y-13221998D01*
X17593472Y-13219998D01*
X17596472Y-13218998D01*
X17598472Y-13217998D01*
X17601472Y-13216998D01*
X17603472Y-13216997D01*
X17606472Y-13215998D01*
X17608472Y-13215998D01*
X17611472Y-13214998D01*
X17613472Y-13214998D01*
X17616472Y-13214998D01*
X18516472Y-13214998D01*
X18519472Y-13214998D01*
X18521472Y-13214998D01*
X18524472Y-13215998D01*
G37*
X18524472Y-13755998D02*
X18526472Y-13755997D01*
X18529472Y-13756998D01*
X18531472Y-13756998D01*
X18534472Y-13757998D01*
X18536472Y-13758998D01*
X18539472Y-13759998D01*
X18541473Y-13761998D01*
X18543472Y-13762998D01*
X18545472Y-13764997D01*
X18547472Y-13765998D01*
X18549472Y-13767998D01*
X18551472Y-13769998D01*
X18553472Y-13771998D01*
X18555472Y-13773998D01*
X18556472Y-13775998D01*
X18558472Y-13777998D01*
X18559472Y-13779997D01*
X18561472Y-13781998D01*
X18562472Y-13784998D01*
X18563472Y-13786998D01*
X18564472Y-13789998D01*
X18564472Y-13791998D01*
X18565473Y-13794998D01*
X18565472Y-13796998D01*
X18566472Y-13799998D01*
X18566472Y-13801998D01*
X18566472Y-13804998D01*
X18566472Y-13954998D01*
X18566472Y-13957998D01*
X18566472Y-13959998D01*
X18565473Y-13962998D01*
X18565472Y-13964998D01*
X18564472Y-13967998D01*
X18564472Y-13969998D01*
X18563472Y-13972999D01*
X18562472Y-13974998D01*
X18561472Y-13977998D01*
X18559472Y-13979998D01*
X18558472Y-13981998D01*
X18556472Y-13983998D01*
X18555472Y-13985998D01*
X18553472Y-13987998D01*
X18551472Y-13989998D01*
X18549472Y-13991998D01*
X18547472Y-13993998D01*
X18545472Y-13994998D01*
X18543472Y-13996998D01*
X18541472Y-13997998D01*
X18539472Y-13999998D01*
X18536472Y-14000999D01*
X18534472Y-14001998D01*
X18531472Y-14002998D01*
X18529472Y-14002998D01*
X18526472Y-14003998D01*
X18524472Y-14003998D01*
X18521471Y-14004998D01*
X18519472Y-14004998D01*
X18516472Y-14004998D01*
X17616472Y-14004998D01*
X17613472Y-14004999D01*
X17611472Y-14004998D01*
X17608472Y-14003998D01*
X17606472Y-14003998D01*
X17603472Y-14002998D01*
X17601472Y-14002998D01*
X17598472Y-14001998D01*
X17596472Y-14000998D01*
X17593472Y-13999998D01*
X17591472Y-13997998D01*
X17589472Y-13996998D01*
X17587472Y-13994998D01*
X17585472Y-13993998D01*
X17583472Y-13991998D01*
X17581472Y-13989997D01*
X17579472Y-13987998D01*
X17577472Y-13985998D01*
X17576472Y-13983998D01*
X17574472Y-13981998D01*
X17573472Y-13979998D01*
X17571472Y-13977998D01*
X17570472Y-13974998D01*
X17569472Y-13972998D01*
X17568472Y-13969998D01*
X17568472Y-13967998D01*
X17567472Y-13964998D01*
X17567472Y-13962998D01*
X17566472Y-13959998D01*
X17566471Y-13957998D01*
X17566472Y-13954998D01*
X17566472Y-13804998D01*
X17566472Y-13801998D01*
X17566472Y-13799999D01*
X17567472Y-13796998D01*
X17567472Y-13794998D01*
X17568472Y-13791998D01*
X17568472Y-13789998D01*
X17569472Y-13786998D01*
X17570471Y-13784998D01*
X17571472Y-13781998D01*
X17573472Y-13779998D01*
X17574472Y-13777998D01*
X17576472Y-13775998D01*
X17577472Y-13773998D01*
X17579472Y-13771998D01*
X17581472Y-13769998D01*
X17583472Y-13767998D01*
X17585472Y-13765998D01*
X17587472Y-13764998D01*
X17589472Y-13762998D01*
X17591472Y-13761998D01*
X17593472Y-13759998D01*
X17596472Y-13758998D01*
X17598472Y-13757999D01*
X17601472Y-13756998D01*
X17603472Y-13756998D01*
X17606472Y-13755998D01*
X17608472Y-13755997D01*
X17611472Y-13754998D01*
X17613472Y-13754998D01*
X17616472Y-13754998D01*
X18516472Y-13754998D01*
X18519472Y-13754998D01*
X18521472Y-13754998D01*
X18524472Y-13755998D01*
G36*
X18524472Y-13755998D02*
G01*
X18526472Y-13755997D01*
X18529472Y-13756998D01*
X18531472Y-13756998D01*
X18534472Y-13757998D01*
X18536472Y-13758998D01*
X18539472Y-13759998D01*
X18541473Y-13761998D01*
X18543472Y-13762998D01*
X18545472Y-13764997D01*
X18547472Y-13765998D01*
X18549472Y-13767998D01*
X18551472Y-13769998D01*
X18553472Y-13771998D01*
X18555472Y-13773998D01*
X18556472Y-13775998D01*
X18558472Y-13777998D01*
X18559472Y-13779997D01*
X18561472Y-13781998D01*
X18562472Y-13784998D01*
X18563472Y-13786998D01*
X18564472Y-13789998D01*
X18564472Y-13791998D01*
X18565473Y-13794998D01*
X18565472Y-13796998D01*
X18566472Y-13799998D01*
X18566472Y-13801998D01*
X18566472Y-13804998D01*
X18566472Y-13954998D01*
X18566472Y-13957998D01*
X18566472Y-13959998D01*
X18565473Y-13962998D01*
X18565472Y-13964998D01*
X18564472Y-13967998D01*
X18564472Y-13969998D01*
X18563472Y-13972999D01*
X18562472Y-13974998D01*
X18561472Y-13977998D01*
X18559472Y-13979998D01*
X18558472Y-13981998D01*
X18556472Y-13983998D01*
X18555472Y-13985998D01*
X18553472Y-13987998D01*
X18551472Y-13989998D01*
X18549472Y-13991998D01*
X18547472Y-13993998D01*
X18545472Y-13994998D01*
X18543472Y-13996998D01*
X18541472Y-13997998D01*
X18539472Y-13999998D01*
X18536472Y-14000999D01*
X18534472Y-14001998D01*
X18531472Y-14002998D01*
X18529472Y-14002998D01*
X18526472Y-14003998D01*
X18524472Y-14003998D01*
X18521471Y-14004998D01*
X18519472Y-14004998D01*
X18516472Y-14004998D01*
X17616472Y-14004998D01*
X17613472Y-14004999D01*
X17611472Y-14004998D01*
X17608472Y-14003998D01*
X17606472Y-14003998D01*
X17603472Y-14002998D01*
X17601472Y-14002998D01*
X17598472Y-14001998D01*
X17596472Y-14000998D01*
X17593472Y-13999998D01*
X17591472Y-13997998D01*
X17589472Y-13996998D01*
X17587472Y-13994998D01*
X17585472Y-13993998D01*
X17583472Y-13991998D01*
X17581472Y-13989997D01*
X17579472Y-13987998D01*
X17577472Y-13985998D01*
X17576472Y-13983998D01*
X17574472Y-13981998D01*
X17573472Y-13979998D01*
X17571472Y-13977998D01*
X17570472Y-13974998D01*
X17569472Y-13972998D01*
X17568472Y-13969998D01*
X17568472Y-13967998D01*
X17567472Y-13964998D01*
X17567472Y-13962998D01*
X17566472Y-13959998D01*
X17566471Y-13957998D01*
X17566472Y-13954998D01*
X17566472Y-13804998D01*
X17566472Y-13801998D01*
X17566472Y-13799999D01*
X17567472Y-13796998D01*
X17567472Y-13794998D01*
X17568472Y-13791998D01*
X17568472Y-13789998D01*
X17569472Y-13786998D01*
X17570471Y-13784998D01*
X17571472Y-13781998D01*
X17573472Y-13779998D01*
X17574472Y-13777998D01*
X17576472Y-13775998D01*
X17577472Y-13773998D01*
X17579472Y-13771998D01*
X17581472Y-13769998D01*
X17583472Y-13767998D01*
X17585472Y-13765998D01*
X17587472Y-13764998D01*
X17589472Y-13762998D01*
X17591472Y-13761998D01*
X17593472Y-13759998D01*
X17596472Y-13758998D01*
X17598472Y-13757999D01*
X17601472Y-13756998D01*
X17603472Y-13756998D01*
X17606472Y-13755998D01*
X17608472Y-13755997D01*
X17611472Y-13754998D01*
X17613472Y-13754998D01*
X17616472Y-13754998D01*
X18516472Y-13754998D01*
X18519472Y-13754998D01*
X18521472Y-13754998D01*
X18524472Y-13755998D01*
G37*
X18524472Y-14255998D02*
X18526472Y-14255998D01*
X18529472Y-14256998D01*
X18531472Y-14256997D01*
X18534472Y-14257998D01*
X18536472Y-14258998D01*
X18539472Y-14259998D01*
X18541472Y-14261998D01*
X18543472Y-14262998D01*
X18545472Y-14264998D01*
X18547472Y-14265998D01*
X18549472Y-14267999D01*
X18551472Y-14269998D01*
X18553471Y-14271998D01*
X18555472Y-14273998D01*
X18556472Y-14275998D01*
X18558472Y-14277998D01*
X18559472Y-14279998D01*
X18561472Y-14281998D01*
X18562472Y-14284998D01*
X18563472Y-14286998D01*
X18564472Y-14289997D01*
X18564472Y-14291998D01*
X18565472Y-14294998D01*
X18565472Y-14296998D01*
X18566472Y-14299998D01*
X18566472Y-14301998D01*
X18566472Y-14304998D01*
X18566472Y-14454998D01*
X18566472Y-14457998D01*
X18566472Y-14459998D01*
X18565472Y-14462998D01*
X18565472Y-14464998D01*
X18564472Y-14467997D01*
X18564472Y-14469998D01*
X18563472Y-14472998D01*
X18562472Y-14474998D01*
X18561472Y-14477998D01*
X18559472Y-14479998D01*
X18558471Y-14481998D01*
X18556472Y-14483998D01*
X18555472Y-14485997D01*
X18553471Y-14487998D01*
X18551472Y-14489998D01*
X18549471Y-14491998D01*
X18547472Y-14493998D01*
X18545472Y-14494998D01*
X18543472Y-14496998D01*
X18541472Y-14497998D01*
X18539472Y-14499997D01*
X18536472Y-14500998D01*
X18534472Y-14501998D01*
X18531472Y-14502998D01*
X18529472Y-14502998D01*
X18526472Y-14503998D01*
X18524472Y-14503998D01*
X18521472Y-14504998D01*
X18519472Y-14504998D01*
X18516472Y-14504997D01*
X17616472Y-14504998D01*
X17613472Y-14504998D01*
X17611472Y-14504998D01*
X17608472Y-14503998D01*
X17606472Y-14503998D01*
X17603472Y-14502998D01*
X17601472Y-14502998D01*
X17598472Y-14501998D01*
X17596472Y-14500998D01*
X17593471Y-14499998D01*
X17591472Y-14497998D01*
X17589471Y-14496998D01*
X17587472Y-14494998D01*
X17585472Y-14493998D01*
X17583472Y-14491998D01*
X17581472Y-14489998D01*
X17579471Y-14487998D01*
X17577472Y-14485998D01*
X17576472Y-14483998D01*
X17574472Y-14481998D01*
X17573472Y-14479998D01*
X17571472Y-14477999D01*
X17570472Y-14474998D01*
X17569472Y-14472998D01*
X17568472Y-14469998D01*
X17568472Y-14467998D01*
X17567472Y-14464999D01*
X17567472Y-14462997D01*
X17566472Y-14459998D01*
X17566472Y-14457998D01*
X17566472Y-14454999D01*
X17566472Y-14304999D01*
X17566472Y-14301998D01*
X17566472Y-14299998D01*
X17567472Y-14296998D01*
X17567473Y-14294998D01*
X17568472Y-14291998D01*
X17568472Y-14289998D01*
X17569472Y-14286998D01*
X17570472Y-14284998D01*
X17571472Y-14281999D01*
X17573472Y-14279998D01*
X17574472Y-14277998D01*
X17576472Y-14275997D01*
X17577472Y-14273998D01*
X17579471Y-14271998D01*
X17581472Y-14269998D01*
X17583472Y-14267998D01*
X17585472Y-14265997D01*
X17587472Y-14264998D01*
X17589471Y-14262998D01*
X17591473Y-14261998D01*
X17593472Y-14259998D01*
X17596472Y-14258998D01*
X17598472Y-14257998D01*
X17601472Y-14256998D01*
X17603472Y-14256997D01*
X17606472Y-14255998D01*
X17608472Y-14255998D01*
X17611472Y-14254998D01*
X17613472Y-14254998D01*
X17616472Y-14254998D01*
X18516472Y-14254998D01*
X18519472Y-14254998D01*
X18521472Y-14254998D01*
X18524472Y-14255998D01*
G36*
X18524472Y-14255998D02*
G01*
X18526472Y-14255998D01*
X18529472Y-14256998D01*
X18531472Y-14256997D01*
X18534472Y-14257998D01*
X18536472Y-14258998D01*
X18539472Y-14259998D01*
X18541472Y-14261998D01*
X18543472Y-14262998D01*
X18545472Y-14264998D01*
X18547472Y-14265998D01*
X18549472Y-14267999D01*
X18551472Y-14269998D01*
X18553471Y-14271998D01*
X18555472Y-14273998D01*
X18556472Y-14275998D01*
X18558472Y-14277998D01*
X18559472Y-14279998D01*
X18561472Y-14281998D01*
X18562472Y-14284998D01*
X18563472Y-14286998D01*
X18564472Y-14289997D01*
X18564472Y-14291998D01*
X18565472Y-14294998D01*
X18565472Y-14296998D01*
X18566472Y-14299998D01*
X18566472Y-14301998D01*
X18566472Y-14304998D01*
X18566472Y-14454998D01*
X18566472Y-14457998D01*
X18566472Y-14459998D01*
X18565472Y-14462998D01*
X18565472Y-14464998D01*
X18564472Y-14467997D01*
X18564472Y-14469998D01*
X18563472Y-14472998D01*
X18562472Y-14474998D01*
X18561472Y-14477998D01*
X18559472Y-14479998D01*
X18558471Y-14481998D01*
X18556472Y-14483998D01*
X18555472Y-14485997D01*
X18553471Y-14487998D01*
X18551472Y-14489998D01*
X18549471Y-14491998D01*
X18547472Y-14493998D01*
X18545472Y-14494998D01*
X18543472Y-14496998D01*
X18541472Y-14497998D01*
X18539472Y-14499997D01*
X18536472Y-14500998D01*
X18534472Y-14501998D01*
X18531472Y-14502998D01*
X18529472Y-14502998D01*
X18526472Y-14503998D01*
X18524472Y-14503998D01*
X18521472Y-14504998D01*
X18519472Y-14504998D01*
X18516472Y-14504997D01*
X17616472Y-14504998D01*
X17613472Y-14504998D01*
X17611472Y-14504998D01*
X17608472Y-14503998D01*
X17606472Y-14503998D01*
X17603472Y-14502998D01*
X17601472Y-14502998D01*
X17598472Y-14501998D01*
X17596472Y-14500998D01*
X17593471Y-14499998D01*
X17591472Y-14497998D01*
X17589471Y-14496998D01*
X17587472Y-14494998D01*
X17585472Y-14493998D01*
X17583472Y-14491998D01*
X17581472Y-14489998D01*
X17579471Y-14487998D01*
X17577472Y-14485998D01*
X17576472Y-14483998D01*
X17574472Y-14481998D01*
X17573472Y-14479998D01*
X17571472Y-14477999D01*
X17570472Y-14474998D01*
X17569472Y-14472998D01*
X17568472Y-14469998D01*
X17568472Y-14467998D01*
X17567472Y-14464999D01*
X17567472Y-14462997D01*
X17566472Y-14459998D01*
X17566472Y-14457998D01*
X17566472Y-14454999D01*
X17566472Y-14304999D01*
X17566472Y-14301998D01*
X17566472Y-14299998D01*
X17567472Y-14296998D01*
X17567473Y-14294998D01*
X17568472Y-14291998D01*
X17568472Y-14289998D01*
X17569472Y-14286998D01*
X17570472Y-14284998D01*
X17571472Y-14281999D01*
X17573472Y-14279998D01*
X17574472Y-14277998D01*
X17576472Y-14275997D01*
X17577472Y-14273998D01*
X17579471Y-14271998D01*
X17581472Y-14269998D01*
X17583472Y-14267998D01*
X17585472Y-14265997D01*
X17587472Y-14264998D01*
X17589471Y-14262998D01*
X17591473Y-14261998D01*
X17593472Y-14259998D01*
X17596472Y-14258998D01*
X17598472Y-14257998D01*
X17601472Y-14256998D01*
X17603472Y-14256997D01*
X17606472Y-14255998D01*
X17608472Y-14255998D01*
X17611472Y-14254998D01*
X17613472Y-14254998D01*
X17616472Y-14254998D01*
X18516472Y-14254998D01*
X18519472Y-14254998D01*
X18521472Y-14254998D01*
X18524472Y-14255998D01*
G37*
X18816472Y-12174999D02*
X19716472Y-12174999D01*
X19719472Y-12174998D01*
X19721472Y-12174998D01*
X19724472Y-12175998D01*
X19726472Y-12175998D01*
X19729472Y-12176998D01*
X19731472Y-12176998D01*
X19734472Y-12177998D01*
X19736472Y-12178998D01*
X19739472Y-12179999D01*
X19741472Y-12181998D01*
X19743471Y-12182998D01*
X19745472Y-12184998D01*
X19747472Y-12185998D01*
X19749473Y-12187998D01*
X19751472Y-12189998D01*
X19753472Y-12191997D01*
X19755472Y-12193998D01*
X19756472Y-12195998D01*
X19758472Y-12197999D01*
X19759472Y-12199998D01*
X19761471Y-12201998D01*
X19762472Y-12204998D01*
X19763472Y-12206998D01*
X19764472Y-12209998D01*
X19764472Y-12211998D01*
X19765472Y-12214998D01*
X19765472Y-12216998D01*
X19766472Y-12219998D01*
X19766472Y-12221998D01*
X19766471Y-12224998D01*
X19766471Y-12374998D01*
X19766472Y-12377998D01*
X19766472Y-12379998D01*
X19765472Y-12382998D01*
X19765472Y-12384998D01*
X19764472Y-12387998D01*
X19764472Y-12389998D01*
X19763472Y-12392998D01*
X19762472Y-12394998D01*
X19761471Y-12397998D01*
X19759472Y-12399998D01*
X19758472Y-12401998D01*
X19756472Y-12403998D01*
X19755472Y-12405998D01*
X19753472Y-12407997D01*
X19751472Y-12409998D01*
X19749472Y-12411997D01*
X19747471Y-12413998D01*
X19745472Y-12414998D01*
X19743471Y-12416998D01*
X19741472Y-12417998D01*
X19739472Y-12419998D01*
X19736472Y-12420998D01*
X19734472Y-12421998D01*
X19731472Y-12422998D01*
X19729472Y-12422999D01*
X19726472Y-12423998D01*
X19724472Y-12423998D01*
X19721472Y-12424998D01*
X19719472Y-12424998D01*
X19716472Y-12424998D01*
X18816472Y-12424998D01*
X18813472Y-12424998D01*
X18811472Y-12424998D01*
X18808472Y-12423998D01*
X18806472Y-12423998D01*
X18803472Y-12422999D01*
X18801472Y-12422998D01*
X18798472Y-12421998D01*
X18796472Y-12420998D01*
X18793472Y-12419998D01*
X18791472Y-12417998D01*
X18789473Y-12416998D01*
X18787472Y-12414998D01*
X18785473Y-12413998D01*
X18783472Y-12411997D01*
X18781472Y-12409998D01*
X18779472Y-12407997D01*
X18777472Y-12405998D01*
X18776472Y-12403998D01*
X18774472Y-12401998D01*
X18773472Y-12399998D01*
X18771473Y-12397998D01*
X18770472Y-12394998D01*
X18769472Y-12392998D01*
X18768472Y-12389998D01*
X18768472Y-12387998D01*
X18767472Y-12384998D01*
X18767472Y-12382998D01*
X18766472Y-12379998D01*
X18766472Y-12377998D01*
X18766473Y-12374998D01*
X18766473Y-12224998D01*
X18766472Y-12221998D01*
X18766472Y-12219998D01*
X18767472Y-12216998D01*
X18767472Y-12214998D01*
X18768472Y-12211998D01*
X18768472Y-12209998D01*
X18769472Y-12206998D01*
X18770472Y-12204998D01*
X18771473Y-12201998D01*
X18773472Y-12199998D01*
X18774472Y-12197999D01*
X18776472Y-12195998D01*
X18777472Y-12193998D01*
X18779472Y-12191997D01*
X18781472Y-12189998D01*
X18783471Y-12187998D01*
X18785472Y-12185998D01*
X18787472Y-12184998D01*
X18789473Y-12182998D01*
X18791472Y-12181998D01*
X18793472Y-12179999D01*
X18796472Y-12178998D01*
X18798472Y-12177998D01*
X18801472Y-12176998D01*
X18803472Y-12176998D01*
X18806472Y-12175998D01*
X18808472Y-12175998D01*
X18811472Y-12174998D01*
X18813472Y-12174998D01*
X18816472Y-12174999D01*
G36*
X18816472Y-12174999D02*
G01*
X19716472Y-12174999D01*
X19719472Y-12174998D01*
X19721472Y-12174998D01*
X19724472Y-12175998D01*
X19726472Y-12175998D01*
X19729472Y-12176998D01*
X19731472Y-12176998D01*
X19734472Y-12177998D01*
X19736472Y-12178998D01*
X19739472Y-12179999D01*
X19741472Y-12181998D01*
X19743471Y-12182998D01*
X19745472Y-12184998D01*
X19747472Y-12185998D01*
X19749473Y-12187998D01*
X19751472Y-12189998D01*
X19753472Y-12191997D01*
X19755472Y-12193998D01*
X19756472Y-12195998D01*
X19758472Y-12197999D01*
X19759472Y-12199998D01*
X19761471Y-12201998D01*
X19762472Y-12204998D01*
X19763472Y-12206998D01*
X19764472Y-12209998D01*
X19764472Y-12211998D01*
X19765472Y-12214998D01*
X19765472Y-12216998D01*
X19766472Y-12219998D01*
X19766472Y-12221998D01*
X19766471Y-12224998D01*
X19766471Y-12374998D01*
X19766472Y-12377998D01*
X19766472Y-12379998D01*
X19765472Y-12382998D01*
X19765472Y-12384998D01*
X19764472Y-12387998D01*
X19764472Y-12389998D01*
X19763472Y-12392998D01*
X19762472Y-12394998D01*
X19761471Y-12397998D01*
X19759472Y-12399998D01*
X19758472Y-12401998D01*
X19756472Y-12403998D01*
X19755472Y-12405998D01*
X19753472Y-12407997D01*
X19751472Y-12409998D01*
X19749472Y-12411997D01*
X19747471Y-12413998D01*
X19745472Y-12414998D01*
X19743471Y-12416998D01*
X19741472Y-12417998D01*
X19739472Y-12419998D01*
X19736472Y-12420998D01*
X19734472Y-12421998D01*
X19731472Y-12422998D01*
X19729472Y-12422999D01*
X19726472Y-12423998D01*
X19724472Y-12423998D01*
X19721472Y-12424998D01*
X19719472Y-12424998D01*
X19716472Y-12424998D01*
X18816472Y-12424998D01*
X18813472Y-12424998D01*
X18811472Y-12424998D01*
X18808472Y-12423998D01*
X18806472Y-12423998D01*
X18803472Y-12422999D01*
X18801472Y-12422998D01*
X18798472Y-12421998D01*
X18796472Y-12420998D01*
X18793472Y-12419998D01*
X18791472Y-12417998D01*
X18789473Y-12416998D01*
X18787472Y-12414998D01*
X18785473Y-12413998D01*
X18783472Y-12411997D01*
X18781472Y-12409998D01*
X18779472Y-12407997D01*
X18777472Y-12405998D01*
X18776472Y-12403998D01*
X18774472Y-12401998D01*
X18773472Y-12399998D01*
X18771473Y-12397998D01*
X18770472Y-12394998D01*
X18769472Y-12392998D01*
X18768472Y-12389998D01*
X18768472Y-12387998D01*
X18767472Y-12384998D01*
X18767472Y-12382998D01*
X18766472Y-12379998D01*
X18766472Y-12377998D01*
X18766473Y-12374998D01*
X18766473Y-12224998D01*
X18766472Y-12221998D01*
X18766472Y-12219998D01*
X18767472Y-12216998D01*
X18767472Y-12214998D01*
X18768472Y-12211998D01*
X18768472Y-12209998D01*
X18769472Y-12206998D01*
X18770472Y-12204998D01*
X18771473Y-12201998D01*
X18773472Y-12199998D01*
X18774472Y-12197999D01*
X18776472Y-12195998D01*
X18777472Y-12193998D01*
X18779472Y-12191997D01*
X18781472Y-12189998D01*
X18783471Y-12187998D01*
X18785472Y-12185998D01*
X18787472Y-12184998D01*
X18789473Y-12182998D01*
X18791472Y-12181998D01*
X18793472Y-12179999D01*
X18796472Y-12178998D01*
X18798472Y-12177998D01*
X18801472Y-12176998D01*
X18803472Y-12176998D01*
X18806472Y-12175998D01*
X18808472Y-12175998D01*
X18811472Y-12174998D01*
X18813472Y-12174998D01*
X18816472Y-12174999D01*
G37*
X19724472Y-12675998D02*
X19726472Y-12675998D01*
X19729472Y-12676998D01*
X19731472Y-12676998D01*
X19734472Y-12677998D01*
X19736472Y-12678998D01*
X19739472Y-12679998D01*
X19741472Y-12681998D01*
X19743472Y-12682998D01*
X19745472Y-12684998D01*
X19747472Y-12685998D01*
X19749472Y-12687998D01*
X19751472Y-12689998D01*
X19753472Y-12691998D01*
X19755472Y-12693998D01*
X19756472Y-12695998D01*
X19758472Y-12697998D01*
X19759472Y-12699998D01*
X19761472Y-12701998D01*
X19762472Y-12704998D01*
X19763472Y-12706997D01*
X19764472Y-12709998D01*
X19764472Y-12711998D01*
X19765472Y-12714998D01*
X19765472Y-12716998D01*
X19766472Y-12719998D01*
X19766471Y-12721998D01*
X19766472Y-12724998D01*
X19766472Y-12874998D01*
X19766472Y-12877998D01*
X19766472Y-12879997D01*
X19765472Y-12882998D01*
X19765472Y-12884998D01*
X19764472Y-12887998D01*
X19764472Y-12889998D01*
X19763472Y-12892998D01*
X19762471Y-12894998D01*
X19761472Y-12897998D01*
X19759473Y-12899998D01*
X19758472Y-12901998D01*
X19756472Y-12903998D01*
X19755472Y-12905998D01*
X19753472Y-12907998D01*
X19751472Y-12909998D01*
X19749472Y-12911998D01*
X19747472Y-12913998D01*
X19745472Y-12914998D01*
X19743472Y-12916998D01*
X19741472Y-12917998D01*
X19739472Y-12919998D01*
X19736472Y-12920998D01*
X19734472Y-12921997D01*
X19731472Y-12922998D01*
X19729472Y-12922998D01*
X19726473Y-12923998D01*
X19724471Y-12923998D01*
X19721472Y-12924998D01*
X19719472Y-12924998D01*
X19716472Y-12924998D01*
X18816472Y-12924998D01*
X18813472Y-12924998D01*
X18811472Y-12924998D01*
X18808473Y-12923998D01*
X18806471Y-12923998D01*
X18803472Y-12922998D01*
X18801472Y-12922998D01*
X18798472Y-12921997D01*
X18796472Y-12920998D01*
X18793472Y-12919998D01*
X18791472Y-12917998D01*
X18789472Y-12916998D01*
X18787472Y-12914998D01*
X18785472Y-12913998D01*
X18783472Y-12911998D01*
X18781472Y-12909998D01*
X18779472Y-12907998D01*
X18777472Y-12905998D01*
X18776472Y-12903998D01*
X18774472Y-12901998D01*
X18773471Y-12899998D01*
X18771472Y-12897998D01*
X18770473Y-12894998D01*
X18769472Y-12892998D01*
X18768472Y-12889998D01*
X18768472Y-12887998D01*
X18767472Y-12884998D01*
X18767472Y-12882998D01*
X18766472Y-12879997D01*
X18766472Y-12877998D01*
X18766472Y-12874998D01*
X18766472Y-12724998D01*
X18766473Y-12721998D01*
X18766472Y-12719998D01*
X18767472Y-12716998D01*
X18767472Y-12714998D01*
X18768472Y-12711998D01*
X18768472Y-12709998D01*
X18769472Y-12706997D01*
X18770472Y-12704998D01*
X18771472Y-12701998D01*
X18773472Y-12699998D01*
X18774472Y-12697998D01*
X18776472Y-12695998D01*
X18777472Y-12693998D01*
X18779472Y-12691998D01*
X18781472Y-12689998D01*
X18783472Y-12687998D01*
X18785472Y-12685998D01*
X18787472Y-12684998D01*
X18789472Y-12682998D01*
X18791472Y-12681998D01*
X18793472Y-12679998D01*
X18796472Y-12678998D01*
X18798472Y-12677998D01*
X18801472Y-12676998D01*
X18803472Y-12676998D01*
X18806472Y-12675998D01*
X18808472Y-12675998D01*
X18811471Y-12674998D01*
X18813473Y-12674998D01*
X18816472Y-12674998D01*
X19716472Y-12674998D01*
X19719471Y-12674998D01*
X19721473Y-12674998D01*
X19724472Y-12675998D01*
G36*
X19724472Y-12675998D02*
G01*
X19726472Y-12675998D01*
X19729472Y-12676998D01*
X19731472Y-12676998D01*
X19734472Y-12677998D01*
X19736472Y-12678998D01*
X19739472Y-12679998D01*
X19741472Y-12681998D01*
X19743472Y-12682998D01*
X19745472Y-12684998D01*
X19747472Y-12685998D01*
X19749472Y-12687998D01*
X19751472Y-12689998D01*
X19753472Y-12691998D01*
X19755472Y-12693998D01*
X19756472Y-12695998D01*
X19758472Y-12697998D01*
X19759472Y-12699998D01*
X19761472Y-12701998D01*
X19762472Y-12704998D01*
X19763472Y-12706997D01*
X19764472Y-12709998D01*
X19764472Y-12711998D01*
X19765472Y-12714998D01*
X19765472Y-12716998D01*
X19766472Y-12719998D01*
X19766471Y-12721998D01*
X19766472Y-12724998D01*
X19766472Y-12874998D01*
X19766472Y-12877998D01*
X19766472Y-12879997D01*
X19765472Y-12882998D01*
X19765472Y-12884998D01*
X19764472Y-12887998D01*
X19764472Y-12889998D01*
X19763472Y-12892998D01*
X19762471Y-12894998D01*
X19761472Y-12897998D01*
X19759473Y-12899998D01*
X19758472Y-12901998D01*
X19756472Y-12903998D01*
X19755472Y-12905998D01*
X19753472Y-12907998D01*
X19751472Y-12909998D01*
X19749472Y-12911998D01*
X19747472Y-12913998D01*
X19745472Y-12914998D01*
X19743472Y-12916998D01*
X19741472Y-12917998D01*
X19739472Y-12919998D01*
X19736472Y-12920998D01*
X19734472Y-12921997D01*
X19731472Y-12922998D01*
X19729472Y-12922998D01*
X19726473Y-12923998D01*
X19724471Y-12923998D01*
X19721472Y-12924998D01*
X19719472Y-12924998D01*
X19716472Y-12924998D01*
X18816472Y-12924998D01*
X18813472Y-12924998D01*
X18811472Y-12924998D01*
X18808473Y-12923998D01*
X18806471Y-12923998D01*
X18803472Y-12922998D01*
X18801472Y-12922998D01*
X18798472Y-12921997D01*
X18796472Y-12920998D01*
X18793472Y-12919998D01*
X18791472Y-12917998D01*
X18789472Y-12916998D01*
X18787472Y-12914998D01*
X18785472Y-12913998D01*
X18783472Y-12911998D01*
X18781472Y-12909998D01*
X18779472Y-12907998D01*
X18777472Y-12905998D01*
X18776472Y-12903998D01*
X18774472Y-12901998D01*
X18773471Y-12899998D01*
X18771472Y-12897998D01*
X18770473Y-12894998D01*
X18769472Y-12892998D01*
X18768472Y-12889998D01*
X18768472Y-12887998D01*
X18767472Y-12884998D01*
X18767472Y-12882998D01*
X18766472Y-12879997D01*
X18766472Y-12877998D01*
X18766472Y-12874998D01*
X18766472Y-12724998D01*
X18766473Y-12721998D01*
X18766472Y-12719998D01*
X18767472Y-12716998D01*
X18767472Y-12714998D01*
X18768472Y-12711998D01*
X18768472Y-12709998D01*
X18769472Y-12706997D01*
X18770472Y-12704998D01*
X18771472Y-12701998D01*
X18773472Y-12699998D01*
X18774472Y-12697998D01*
X18776472Y-12695998D01*
X18777472Y-12693998D01*
X18779472Y-12691998D01*
X18781472Y-12689998D01*
X18783472Y-12687998D01*
X18785472Y-12685998D01*
X18787472Y-12684998D01*
X18789472Y-12682998D01*
X18791472Y-12681998D01*
X18793472Y-12679998D01*
X18796472Y-12678998D01*
X18798472Y-12677998D01*
X18801472Y-12676998D01*
X18803472Y-12676998D01*
X18806472Y-12675998D01*
X18808472Y-12675998D01*
X18811471Y-12674998D01*
X18813473Y-12674998D01*
X18816472Y-12674998D01*
X19716472Y-12674998D01*
X19719471Y-12674998D01*
X19721473Y-12674998D01*
X19724472Y-12675998D01*
G37*
X19719472Y-13174998D02*
X19721472Y-13174998D01*
X19724471Y-13175998D01*
X19726473Y-13175998D01*
X19729472Y-13176998D01*
X19731472Y-13176998D01*
X19734472Y-13177998D01*
X19736472Y-13178998D01*
X19739472Y-13179997D01*
X19741472Y-13181998D01*
X19743472Y-13182998D01*
X19745472Y-13184998D01*
X19747472Y-13185998D01*
X19749472Y-13187998D01*
X19751472Y-13189998D01*
X19753472Y-13191998D01*
X19755472Y-13193998D01*
X19756472Y-13195998D01*
X19758472Y-13197998D01*
X19759473Y-13199998D01*
X19761472Y-13201998D01*
X19762472Y-13204999D01*
X19763472Y-13206998D01*
X19764472Y-13209998D01*
X19764472Y-13211998D01*
X19765472Y-13214998D01*
X19765472Y-13216998D01*
X19766472Y-13219998D01*
X19766472Y-13221998D01*
X19766472Y-13224998D01*
X19766472Y-13454998D01*
X19766472Y-13457998D01*
X19766472Y-13459998D01*
X19765472Y-13462998D01*
X19765472Y-13464998D01*
X19764472Y-13467998D01*
X19764472Y-13469998D01*
X19763472Y-13472998D01*
X19762472Y-13474997D01*
X19761472Y-13477998D01*
X19759473Y-13479998D01*
X19758472Y-13481998D01*
X19756472Y-13483998D01*
X19755472Y-13485998D01*
X19753472Y-13487998D01*
X19751472Y-13489998D01*
X19749472Y-13491998D01*
X19747472Y-13493998D01*
X19745472Y-13494998D01*
X19743472Y-13496998D01*
X19741472Y-13497998D01*
X19739472Y-13499999D01*
X19736472Y-13500998D01*
X19734472Y-13501998D01*
X19731472Y-13502998D01*
X19729472Y-13502998D01*
X19726473Y-13503998D01*
X19724471Y-13503998D01*
X19721472Y-13504998D01*
X19719472Y-13504998D01*
X19716472Y-13504999D01*
X18816472Y-13504999D01*
X18813472Y-13504998D01*
X18811472Y-13504998D01*
X18808473Y-13503998D01*
X18806471Y-13503998D01*
X18803472Y-13502998D01*
X18801472Y-13502998D01*
X18798472Y-13501998D01*
X18796472Y-13500998D01*
X18793472Y-13499999D01*
X18791472Y-13497998D01*
X18789472Y-13496998D01*
X18787472Y-13494998D01*
X18785472Y-13493998D01*
X18783472Y-13491998D01*
X18781472Y-13489998D01*
X18779472Y-13487998D01*
X18777472Y-13485998D01*
X18776472Y-13483998D01*
X18774472Y-13481998D01*
X18773471Y-13479998D01*
X18771472Y-13477998D01*
X18770472Y-13474997D01*
X18769472Y-13472998D01*
X18768472Y-13469998D01*
X18768472Y-13467998D01*
X18767472Y-13464998D01*
X18767472Y-13462998D01*
X18766472Y-13459998D01*
X18766472Y-13457998D01*
X18766472Y-13454998D01*
X18766472Y-13224998D01*
X18766472Y-13221998D01*
X18766472Y-13219998D01*
X18767472Y-13216998D01*
X18767472Y-13214998D01*
X18768472Y-13211998D01*
X18768472Y-13209998D01*
X18769472Y-13206998D01*
X18770472Y-13204999D01*
X18771472Y-13201998D01*
X18773471Y-13199998D01*
X18774472Y-13197998D01*
X18776472Y-13195998D01*
X18777472Y-13193998D01*
X18779472Y-13191998D01*
X18781472Y-13189998D01*
X18783472Y-13187998D01*
X18785472Y-13185998D01*
X18787472Y-13184998D01*
X18789472Y-13182998D01*
X18791472Y-13181998D01*
X18793472Y-13179997D01*
X18796472Y-13178998D01*
X18798472Y-13177998D01*
X18801472Y-13176998D01*
X18803472Y-13176998D01*
X18806471Y-13175998D01*
X18808473Y-13175998D01*
X18811472Y-13174998D01*
X18813472Y-13174998D01*
X18816472Y-13174997D01*
X19716472Y-13174997D01*
X19719472Y-13174998D01*
G36*
X19719472Y-13174998D02*
G01*
X19721472Y-13174998D01*
X19724471Y-13175998D01*
X19726473Y-13175998D01*
X19729472Y-13176998D01*
X19731472Y-13176998D01*
X19734472Y-13177998D01*
X19736472Y-13178998D01*
X19739472Y-13179997D01*
X19741472Y-13181998D01*
X19743472Y-13182998D01*
X19745472Y-13184998D01*
X19747472Y-13185998D01*
X19749472Y-13187998D01*
X19751472Y-13189998D01*
X19753472Y-13191998D01*
X19755472Y-13193998D01*
X19756472Y-13195998D01*
X19758472Y-13197998D01*
X19759473Y-13199998D01*
X19761472Y-13201998D01*
X19762472Y-13204999D01*
X19763472Y-13206998D01*
X19764472Y-13209998D01*
X19764472Y-13211998D01*
X19765472Y-13214998D01*
X19765472Y-13216998D01*
X19766472Y-13219998D01*
X19766472Y-13221998D01*
X19766472Y-13224998D01*
X19766472Y-13454998D01*
X19766472Y-13457998D01*
X19766472Y-13459998D01*
X19765472Y-13462998D01*
X19765472Y-13464998D01*
X19764472Y-13467998D01*
X19764472Y-13469998D01*
X19763472Y-13472998D01*
X19762472Y-13474997D01*
X19761472Y-13477998D01*
X19759473Y-13479998D01*
X19758472Y-13481998D01*
X19756472Y-13483998D01*
X19755472Y-13485998D01*
X19753472Y-13487998D01*
X19751472Y-13489998D01*
X19749472Y-13491998D01*
X19747472Y-13493998D01*
X19745472Y-13494998D01*
X19743472Y-13496998D01*
X19741472Y-13497998D01*
X19739472Y-13499999D01*
X19736472Y-13500998D01*
X19734472Y-13501998D01*
X19731472Y-13502998D01*
X19729472Y-13502998D01*
X19726473Y-13503998D01*
X19724471Y-13503998D01*
X19721472Y-13504998D01*
X19719472Y-13504998D01*
X19716472Y-13504999D01*
X18816472Y-13504999D01*
X18813472Y-13504998D01*
X18811472Y-13504998D01*
X18808473Y-13503998D01*
X18806471Y-13503998D01*
X18803472Y-13502998D01*
X18801472Y-13502998D01*
X18798472Y-13501998D01*
X18796472Y-13500998D01*
X18793472Y-13499999D01*
X18791472Y-13497998D01*
X18789472Y-13496998D01*
X18787472Y-13494998D01*
X18785472Y-13493998D01*
X18783472Y-13491998D01*
X18781472Y-13489998D01*
X18779472Y-13487998D01*
X18777472Y-13485998D01*
X18776472Y-13483998D01*
X18774472Y-13481998D01*
X18773471Y-13479998D01*
X18771472Y-13477998D01*
X18770472Y-13474997D01*
X18769472Y-13472998D01*
X18768472Y-13469998D01*
X18768472Y-13467998D01*
X18767472Y-13464998D01*
X18767472Y-13462998D01*
X18766472Y-13459998D01*
X18766472Y-13457998D01*
X18766472Y-13454998D01*
X18766472Y-13224998D01*
X18766472Y-13221998D01*
X18766472Y-13219998D01*
X18767472Y-13216998D01*
X18767472Y-13214998D01*
X18768472Y-13211998D01*
X18768472Y-13209998D01*
X18769472Y-13206998D01*
X18770472Y-13204999D01*
X18771472Y-13201998D01*
X18773471Y-13199998D01*
X18774472Y-13197998D01*
X18776472Y-13195998D01*
X18777472Y-13193998D01*
X18779472Y-13191998D01*
X18781472Y-13189998D01*
X18783472Y-13187998D01*
X18785472Y-13185998D01*
X18787472Y-13184998D01*
X18789472Y-13182998D01*
X18791472Y-13181998D01*
X18793472Y-13179997D01*
X18796472Y-13178998D01*
X18798472Y-13177998D01*
X18801472Y-13176998D01*
X18803472Y-13176998D01*
X18806471Y-13175998D01*
X18808473Y-13175998D01*
X18811472Y-13174998D01*
X18813472Y-13174998D01*
X18816472Y-13174997D01*
X19716472Y-13174997D01*
X19719472Y-13174998D01*
G37*
X19724471Y-13755998D02*
X19726473Y-13755998D01*
X19729472Y-13756998D01*
X19731472Y-13756998D01*
X19734472Y-13757999D01*
X19736472Y-13758998D01*
X19739472Y-13759998D01*
X19741472Y-13761998D01*
X19743472Y-13762998D01*
X19745472Y-13764998D01*
X19747472Y-13765998D01*
X19749472Y-13767998D01*
X19751472Y-13769998D01*
X19753472Y-13771998D01*
X19755472Y-13773998D01*
X19756472Y-13775998D01*
X19758472Y-13777998D01*
X19759473Y-13779998D01*
X19761472Y-13781998D01*
X19762471Y-13784998D01*
X19763472Y-13786998D01*
X19764472Y-13789998D01*
X19764472Y-13791998D01*
X19765472Y-13794998D01*
X19765472Y-13796998D01*
X19766472Y-13799999D01*
X19766472Y-13801998D01*
X19766472Y-13804998D01*
X19766472Y-13954998D01*
X19766471Y-13957998D01*
X19766472Y-13959998D01*
X19765472Y-13962998D01*
X19765472Y-13964998D01*
X19764472Y-13967998D01*
X19764472Y-13969998D01*
X19763472Y-13972999D01*
X19762472Y-13974998D01*
X19761472Y-13977998D01*
X19759472Y-13979998D01*
X19758472Y-13981998D01*
X19756472Y-13983998D01*
X19755472Y-13985998D01*
X19753472Y-13987998D01*
X19751472Y-13989998D01*
X19749472Y-13991998D01*
X19747472Y-13993998D01*
X19745472Y-13994998D01*
X19743472Y-13996998D01*
X19741472Y-13997998D01*
X19739472Y-13999998D01*
X19736472Y-14000998D01*
X19734472Y-14001998D01*
X19731472Y-14002998D01*
X19729472Y-14002998D01*
X19726472Y-14003998D01*
X19724472Y-14003998D01*
X19721473Y-14004998D01*
X19719471Y-14004998D01*
X19716472Y-14004998D01*
X18816472Y-14004998D01*
X18813473Y-14004998D01*
X18811471Y-14004998D01*
X18808472Y-14003998D01*
X18806472Y-14003998D01*
X18803472Y-14002998D01*
X18801472Y-14002998D01*
X18798472Y-14001998D01*
X18796472Y-14000998D01*
X18793472Y-13999998D01*
X18791472Y-13997998D01*
X18789472Y-13996998D01*
X18787472Y-13994998D01*
X18785472Y-13993998D01*
X18783472Y-13991998D01*
X18781472Y-13989998D01*
X18779472Y-13987998D01*
X18777472Y-13985998D01*
X18776472Y-13983998D01*
X18774472Y-13981998D01*
X18773472Y-13979998D01*
X18771472Y-13977998D01*
X18770472Y-13974998D01*
X18769472Y-13972999D01*
X18768472Y-13969998D01*
X18768472Y-13967998D01*
X18767472Y-13964998D01*
X18767472Y-13962998D01*
X18766472Y-13959998D01*
X18766473Y-13957998D01*
X18766472Y-13954998D01*
X18766472Y-13804998D01*
X18766472Y-13801998D01*
X18766472Y-13799999D01*
X18767472Y-13796998D01*
X18767472Y-13794998D01*
X18768472Y-13791998D01*
X18768472Y-13789998D01*
X18769472Y-13786998D01*
X18770473Y-13784998D01*
X18771472Y-13781998D01*
X18773471Y-13779998D01*
X18774472Y-13777998D01*
X18776472Y-13775998D01*
X18777472Y-13773998D01*
X18779472Y-13771998D01*
X18781472Y-13769998D01*
X18783472Y-13767998D01*
X18785472Y-13765998D01*
X18787472Y-13764998D01*
X18789472Y-13762998D01*
X18791472Y-13761998D01*
X18793472Y-13759998D01*
X18796472Y-13758998D01*
X18798472Y-13757999D01*
X18801472Y-13756998D01*
X18803472Y-13756998D01*
X18806471Y-13755998D01*
X18808473Y-13755998D01*
X18811472Y-13754998D01*
X18813472Y-13754998D01*
X18816472Y-13754998D01*
X19716472Y-13754998D01*
X19719472Y-13754998D01*
X19721472Y-13754998D01*
X19724471Y-13755998D01*
G36*
X19724471Y-13755998D02*
G01*
X19726473Y-13755998D01*
X19729472Y-13756998D01*
X19731472Y-13756998D01*
X19734472Y-13757999D01*
X19736472Y-13758998D01*
X19739472Y-13759998D01*
X19741472Y-13761998D01*
X19743472Y-13762998D01*
X19745472Y-13764998D01*
X19747472Y-13765998D01*
X19749472Y-13767998D01*
X19751472Y-13769998D01*
X19753472Y-13771998D01*
X19755472Y-13773998D01*
X19756472Y-13775998D01*
X19758472Y-13777998D01*
X19759473Y-13779998D01*
X19761472Y-13781998D01*
X19762471Y-13784998D01*
X19763472Y-13786998D01*
X19764472Y-13789998D01*
X19764472Y-13791998D01*
X19765472Y-13794998D01*
X19765472Y-13796998D01*
X19766472Y-13799999D01*
X19766472Y-13801998D01*
X19766472Y-13804998D01*
X19766472Y-13954998D01*
X19766471Y-13957998D01*
X19766472Y-13959998D01*
X19765472Y-13962998D01*
X19765472Y-13964998D01*
X19764472Y-13967998D01*
X19764472Y-13969998D01*
X19763472Y-13972999D01*
X19762472Y-13974998D01*
X19761472Y-13977998D01*
X19759472Y-13979998D01*
X19758472Y-13981998D01*
X19756472Y-13983998D01*
X19755472Y-13985998D01*
X19753472Y-13987998D01*
X19751472Y-13989998D01*
X19749472Y-13991998D01*
X19747472Y-13993998D01*
X19745472Y-13994998D01*
X19743472Y-13996998D01*
X19741472Y-13997998D01*
X19739472Y-13999998D01*
X19736472Y-14000998D01*
X19734472Y-14001998D01*
X19731472Y-14002998D01*
X19729472Y-14002998D01*
X19726472Y-14003998D01*
X19724472Y-14003998D01*
X19721473Y-14004998D01*
X19719471Y-14004998D01*
X19716472Y-14004998D01*
X18816472Y-14004998D01*
X18813473Y-14004998D01*
X18811471Y-14004998D01*
X18808472Y-14003998D01*
X18806472Y-14003998D01*
X18803472Y-14002998D01*
X18801472Y-14002998D01*
X18798472Y-14001998D01*
X18796472Y-14000998D01*
X18793472Y-13999998D01*
X18791472Y-13997998D01*
X18789472Y-13996998D01*
X18787472Y-13994998D01*
X18785472Y-13993998D01*
X18783472Y-13991998D01*
X18781472Y-13989998D01*
X18779472Y-13987998D01*
X18777472Y-13985998D01*
X18776472Y-13983998D01*
X18774472Y-13981998D01*
X18773472Y-13979998D01*
X18771472Y-13977998D01*
X18770472Y-13974998D01*
X18769472Y-13972999D01*
X18768472Y-13969998D01*
X18768472Y-13967998D01*
X18767472Y-13964998D01*
X18767472Y-13962998D01*
X18766472Y-13959998D01*
X18766473Y-13957998D01*
X18766472Y-13954998D01*
X18766472Y-13804998D01*
X18766472Y-13801998D01*
X18766472Y-13799999D01*
X18767472Y-13796998D01*
X18767472Y-13794998D01*
X18768472Y-13791998D01*
X18768472Y-13789998D01*
X18769472Y-13786998D01*
X18770473Y-13784998D01*
X18771472Y-13781998D01*
X18773471Y-13779998D01*
X18774472Y-13777998D01*
X18776472Y-13775998D01*
X18777472Y-13773998D01*
X18779472Y-13771998D01*
X18781472Y-13769998D01*
X18783472Y-13767998D01*
X18785472Y-13765998D01*
X18787472Y-13764998D01*
X18789472Y-13762998D01*
X18791472Y-13761998D01*
X18793472Y-13759998D01*
X18796472Y-13758998D01*
X18798472Y-13757999D01*
X18801472Y-13756998D01*
X18803472Y-13756998D01*
X18806471Y-13755998D01*
X18808473Y-13755998D01*
X18811472Y-13754998D01*
X18813472Y-13754998D01*
X18816472Y-13754998D01*
X19716472Y-13754998D01*
X19719472Y-13754998D01*
X19721472Y-13754998D01*
X19724471Y-13755998D01*
G37*
X19724472Y-14255998D02*
X19726472Y-14255998D01*
X19729472Y-14256997D01*
X19731472Y-14256998D01*
X19734472Y-14257998D01*
X19736472Y-14258998D01*
X19739472Y-14259998D01*
X19741472Y-14261998D01*
X19743471Y-14262998D01*
X19745472Y-14264998D01*
X19747471Y-14265998D01*
X19749472Y-14267999D01*
X19751472Y-14269998D01*
X19753472Y-14271999D01*
X19755472Y-14273998D01*
X19756472Y-14275998D01*
X19758472Y-14277998D01*
X19759472Y-14279998D01*
X19761471Y-14281998D01*
X19762472Y-14284998D01*
X19763472Y-14286998D01*
X19764472Y-14289998D01*
X19764472Y-14291998D01*
X19765472Y-14294998D01*
X19765472Y-14296998D01*
X19766472Y-14299998D01*
X19766472Y-14301998D01*
X19766471Y-14304998D01*
X19766471Y-14454998D01*
X19766472Y-14457998D01*
X19766472Y-14459998D01*
X19765472Y-14462998D01*
X19765472Y-14464998D01*
X19764472Y-14467998D01*
X19764472Y-14469998D01*
X19763472Y-14472998D01*
X19762472Y-14474998D01*
X19761471Y-14477998D01*
X19759472Y-14479998D01*
X19758472Y-14481997D01*
X19756472Y-14483998D01*
X19755472Y-14485998D01*
X19753472Y-14487999D01*
X19751472Y-14489998D01*
X19749473Y-14491998D01*
X19747472Y-14493998D01*
X19745472Y-14494998D01*
X19743471Y-14496998D01*
X19741472Y-14497998D01*
X19739472Y-14499997D01*
X19736472Y-14500998D01*
X19734472Y-14501998D01*
X19731472Y-14502998D01*
X19729472Y-14502998D01*
X19726472Y-14503998D01*
X19724472Y-14503998D01*
X19721472Y-14504998D01*
X19719472Y-14504998D01*
X19716472Y-14504997D01*
X18816472Y-14504997D01*
X18813472Y-14504998D01*
X18811472Y-14504998D01*
X18808472Y-14503998D01*
X18806472Y-14503998D01*
X18803472Y-14502998D01*
X18801472Y-14502998D01*
X18798472Y-14501998D01*
X18796472Y-14500998D01*
X18793472Y-14499997D01*
X18791472Y-14497998D01*
X18789473Y-14496998D01*
X18787472Y-14494998D01*
X18785472Y-14493998D01*
X18783471Y-14491998D01*
X18781472Y-14489998D01*
X18779472Y-14487999D01*
X18777472Y-14485998D01*
X18776472Y-14483998D01*
X18774472Y-14481997D01*
X18773472Y-14479998D01*
X18771473Y-14477998D01*
X18770472Y-14474998D01*
X18769472Y-14472998D01*
X18768472Y-14469998D01*
X18768472Y-14467998D01*
X18767472Y-14464998D01*
X18767472Y-14462998D01*
X18766472Y-14459998D01*
X18766472Y-14457998D01*
X18766473Y-14454998D01*
X18766473Y-14304998D01*
X18766472Y-14301998D01*
X18766472Y-14299998D01*
X18767472Y-14296998D01*
X18767472Y-14294998D01*
X18768472Y-14291998D01*
X18768472Y-14289998D01*
X18769472Y-14286998D01*
X18770472Y-14284998D01*
X18771473Y-14281998D01*
X18773472Y-14279998D01*
X18774472Y-14277998D01*
X18776472Y-14275998D01*
X18777472Y-14273998D01*
X18779472Y-14271999D01*
X18781472Y-14269998D01*
X18783472Y-14267999D01*
X18785473Y-14265998D01*
X18787472Y-14264998D01*
X18789473Y-14262998D01*
X18791472Y-14261998D01*
X18793472Y-14259998D01*
X18796472Y-14258998D01*
X18798472Y-14257998D01*
X18801472Y-14256998D01*
X18803472Y-14256997D01*
X18806472Y-14255998D01*
X18808472Y-14255998D01*
X18811472Y-14254998D01*
X18813472Y-14254998D01*
X18816472Y-14254998D01*
X19716472Y-14254998D01*
X19719472Y-14254998D01*
X19721472Y-14254998D01*
X19724472Y-14255998D01*
G36*
X19724472Y-14255998D02*
G01*
X19726472Y-14255998D01*
X19729472Y-14256997D01*
X19731472Y-14256998D01*
X19734472Y-14257998D01*
X19736472Y-14258998D01*
X19739472Y-14259998D01*
X19741472Y-14261998D01*
X19743471Y-14262998D01*
X19745472Y-14264998D01*
X19747471Y-14265998D01*
X19749472Y-14267999D01*
X19751472Y-14269998D01*
X19753472Y-14271999D01*
X19755472Y-14273998D01*
X19756472Y-14275998D01*
X19758472Y-14277998D01*
X19759472Y-14279998D01*
X19761471Y-14281998D01*
X19762472Y-14284998D01*
X19763472Y-14286998D01*
X19764472Y-14289998D01*
X19764472Y-14291998D01*
X19765472Y-14294998D01*
X19765472Y-14296998D01*
X19766472Y-14299998D01*
X19766472Y-14301998D01*
X19766471Y-14304998D01*
X19766471Y-14454998D01*
X19766472Y-14457998D01*
X19766472Y-14459998D01*
X19765472Y-14462998D01*
X19765472Y-14464998D01*
X19764472Y-14467998D01*
X19764472Y-14469998D01*
X19763472Y-14472998D01*
X19762472Y-14474998D01*
X19761471Y-14477998D01*
X19759472Y-14479998D01*
X19758472Y-14481997D01*
X19756472Y-14483998D01*
X19755472Y-14485998D01*
X19753472Y-14487999D01*
X19751472Y-14489998D01*
X19749473Y-14491998D01*
X19747472Y-14493998D01*
X19745472Y-14494998D01*
X19743471Y-14496998D01*
X19741472Y-14497998D01*
X19739472Y-14499997D01*
X19736472Y-14500998D01*
X19734472Y-14501998D01*
X19731472Y-14502998D01*
X19729472Y-14502998D01*
X19726472Y-14503998D01*
X19724472Y-14503998D01*
X19721472Y-14504998D01*
X19719472Y-14504998D01*
X19716472Y-14504997D01*
X18816472Y-14504997D01*
X18813472Y-14504998D01*
X18811472Y-14504998D01*
X18808472Y-14503998D01*
X18806472Y-14503998D01*
X18803472Y-14502998D01*
X18801472Y-14502998D01*
X18798472Y-14501998D01*
X18796472Y-14500998D01*
X18793472Y-14499997D01*
X18791472Y-14497998D01*
X18789473Y-14496998D01*
X18787472Y-14494998D01*
X18785472Y-14493998D01*
X18783471Y-14491998D01*
X18781472Y-14489998D01*
X18779472Y-14487999D01*
X18777472Y-14485998D01*
X18776472Y-14483998D01*
X18774472Y-14481997D01*
X18773472Y-14479998D01*
X18771473Y-14477998D01*
X18770472Y-14474998D01*
X18769472Y-14472998D01*
X18768472Y-14469998D01*
X18768472Y-14467998D01*
X18767472Y-14464998D01*
X18767472Y-14462998D01*
X18766472Y-14459998D01*
X18766472Y-14457998D01*
X18766473Y-14454998D01*
X18766473Y-14304998D01*
X18766472Y-14301998D01*
X18766472Y-14299998D01*
X18767472Y-14296998D01*
X18767472Y-14294998D01*
X18768472Y-14291998D01*
X18768472Y-14289998D01*
X18769472Y-14286998D01*
X18770472Y-14284998D01*
X18771473Y-14281998D01*
X18773472Y-14279998D01*
X18774472Y-14277998D01*
X18776472Y-14275998D01*
X18777472Y-14273998D01*
X18779472Y-14271999D01*
X18781472Y-14269998D01*
X18783472Y-14267999D01*
X18785473Y-14265998D01*
X18787472Y-14264998D01*
X18789473Y-14262998D01*
X18791472Y-14261998D01*
X18793472Y-14259998D01*
X18796472Y-14258998D01*
X18798472Y-14257998D01*
X18801472Y-14256998D01*
X18803472Y-14256997D01*
X18806472Y-14255998D01*
X18808472Y-14255998D01*
X18811472Y-14254998D01*
X18813472Y-14254998D01*
X18816472Y-14254998D01*
X19716472Y-14254998D01*
X19719472Y-14254998D01*
X19721472Y-14254998D01*
X19724472Y-14255998D01*
G37*
X20016472Y-12174999D02*
X20916472Y-12174998D01*
X20919472Y-12174998D01*
X20921472Y-12174998D01*
X20924472Y-12175998D01*
X20926472Y-12175998D01*
X20929472Y-12176998D01*
X20931472Y-12176998D01*
X20934472Y-12177998D01*
X20936472Y-12178998D01*
X20939473Y-12179998D01*
X20941472Y-12181998D01*
X20943473Y-12182998D01*
X20945472Y-12184998D01*
X20947472Y-12185998D01*
X20949472Y-12187998D01*
X20951472Y-12189998D01*
X20953473Y-12191998D01*
X20955472Y-12193998D01*
X20956472Y-12195998D01*
X20958472Y-12197998D01*
X20959472Y-12199998D01*
X20961472Y-12201997D01*
X20962472Y-12204998D01*
X20963472Y-12206998D01*
X20964472Y-12209998D01*
X20964472Y-12211998D01*
X20965472Y-12214997D01*
X20965472Y-12216999D01*
X20966472Y-12219998D01*
X20966472Y-12221998D01*
X20966472Y-12224997D01*
X20966472Y-12374997D01*
X20966472Y-12377998D01*
X20966472Y-12379998D01*
X20965472Y-12382998D01*
X20965471Y-12384998D01*
X20964472Y-12387998D01*
X20964472Y-12389998D01*
X20963472Y-12392998D01*
X20962472Y-12394998D01*
X20961472Y-12397997D01*
X20959472Y-12399998D01*
X20958472Y-12401998D01*
X20956472Y-12403999D01*
X20955472Y-12405998D01*
X20953473Y-12407998D01*
X20951472Y-12409998D01*
X20949472Y-12411998D01*
X20947472Y-12413999D01*
X20945472Y-12414998D01*
X20943473Y-12416998D01*
X20941471Y-12417998D01*
X20939472Y-12419998D01*
X20936472Y-12420998D01*
X20934472Y-12421998D01*
X20931472Y-12422998D01*
X20929472Y-12422999D01*
X20926472Y-12423998D01*
X20924472Y-12423998D01*
X20921472Y-12424998D01*
X20919472Y-12424998D01*
X20916472Y-12424998D01*
X20016472Y-12424998D01*
X20013472Y-12424998D01*
X20011472Y-12424998D01*
X20008472Y-12423998D01*
X20006472Y-12423998D01*
X20003472Y-12422998D01*
X20001472Y-12422999D01*
X19998472Y-12421998D01*
X19996472Y-12420998D01*
X19993472Y-12419998D01*
X19991472Y-12417998D01*
X19989472Y-12416998D01*
X19987472Y-12414998D01*
X19985472Y-12413998D01*
X19983472Y-12411997D01*
X19981472Y-12409998D01*
X19979473Y-12407998D01*
X19977472Y-12405998D01*
X19976472Y-12403998D01*
X19974472Y-12401998D01*
X19973472Y-12399998D01*
X19971472Y-12397998D01*
X19970472Y-12394998D01*
X19969472Y-12392998D01*
X19968472Y-12389999D01*
X19968472Y-12387998D01*
X19967472Y-12384998D01*
X19967472Y-12382998D01*
X19966472Y-12379998D01*
X19966472Y-12377998D01*
X19966472Y-12374998D01*
X19966472Y-12224998D01*
X19966472Y-12221998D01*
X19966472Y-12219998D01*
X19967472Y-12216998D01*
X19967472Y-12214998D01*
X19968472Y-12211999D01*
X19968472Y-12209998D01*
X19969472Y-12206998D01*
X19970472Y-12204998D01*
X19971472Y-12201998D01*
X19973472Y-12199998D01*
X19974473Y-12197998D01*
X19976472Y-12195998D01*
X19977472Y-12193999D01*
X19979473Y-12191998D01*
X19981472Y-12189998D01*
X19983473Y-12187998D01*
X19985472Y-12185998D01*
X19987472Y-12184998D01*
X19989472Y-12182998D01*
X19991472Y-12181998D01*
X19993472Y-12179999D01*
X19996472Y-12178998D01*
X19998472Y-12177998D01*
X20001472Y-12176998D01*
X20003472Y-12176998D01*
X20006472Y-12175998D01*
X20008472Y-12175998D01*
X20011472Y-12174998D01*
X20013472Y-12174998D01*
X20016472Y-12174999D01*
G36*
X20016472Y-12174999D02*
G01*
X20916472Y-12174998D01*
X20919472Y-12174998D01*
X20921472Y-12174998D01*
X20924472Y-12175998D01*
X20926472Y-12175998D01*
X20929472Y-12176998D01*
X20931472Y-12176998D01*
X20934472Y-12177998D01*
X20936472Y-12178998D01*
X20939473Y-12179998D01*
X20941472Y-12181998D01*
X20943473Y-12182998D01*
X20945472Y-12184998D01*
X20947472Y-12185998D01*
X20949472Y-12187998D01*
X20951472Y-12189998D01*
X20953473Y-12191998D01*
X20955472Y-12193998D01*
X20956472Y-12195998D01*
X20958472Y-12197998D01*
X20959472Y-12199998D01*
X20961472Y-12201997D01*
X20962472Y-12204998D01*
X20963472Y-12206998D01*
X20964472Y-12209998D01*
X20964472Y-12211998D01*
X20965472Y-12214997D01*
X20965472Y-12216999D01*
X20966472Y-12219998D01*
X20966472Y-12221998D01*
X20966472Y-12224997D01*
X20966472Y-12374997D01*
X20966472Y-12377998D01*
X20966472Y-12379998D01*
X20965472Y-12382998D01*
X20965471Y-12384998D01*
X20964472Y-12387998D01*
X20964472Y-12389998D01*
X20963472Y-12392998D01*
X20962472Y-12394998D01*
X20961472Y-12397997D01*
X20959472Y-12399998D01*
X20958472Y-12401998D01*
X20956472Y-12403999D01*
X20955472Y-12405998D01*
X20953473Y-12407998D01*
X20951472Y-12409998D01*
X20949472Y-12411998D01*
X20947472Y-12413999D01*
X20945472Y-12414998D01*
X20943473Y-12416998D01*
X20941471Y-12417998D01*
X20939472Y-12419998D01*
X20936472Y-12420998D01*
X20934472Y-12421998D01*
X20931472Y-12422998D01*
X20929472Y-12422999D01*
X20926472Y-12423998D01*
X20924472Y-12423998D01*
X20921472Y-12424998D01*
X20919472Y-12424998D01*
X20916472Y-12424998D01*
X20016472Y-12424998D01*
X20013472Y-12424998D01*
X20011472Y-12424998D01*
X20008472Y-12423998D01*
X20006472Y-12423998D01*
X20003472Y-12422998D01*
X20001472Y-12422999D01*
X19998472Y-12421998D01*
X19996472Y-12420998D01*
X19993472Y-12419998D01*
X19991472Y-12417998D01*
X19989472Y-12416998D01*
X19987472Y-12414998D01*
X19985472Y-12413998D01*
X19983472Y-12411997D01*
X19981472Y-12409998D01*
X19979473Y-12407998D01*
X19977472Y-12405998D01*
X19976472Y-12403998D01*
X19974472Y-12401998D01*
X19973472Y-12399998D01*
X19971472Y-12397998D01*
X19970472Y-12394998D01*
X19969472Y-12392998D01*
X19968472Y-12389999D01*
X19968472Y-12387998D01*
X19967472Y-12384998D01*
X19967472Y-12382998D01*
X19966472Y-12379998D01*
X19966472Y-12377998D01*
X19966472Y-12374998D01*
X19966472Y-12224998D01*
X19966472Y-12221998D01*
X19966472Y-12219998D01*
X19967472Y-12216998D01*
X19967472Y-12214998D01*
X19968472Y-12211999D01*
X19968472Y-12209998D01*
X19969472Y-12206998D01*
X19970472Y-12204998D01*
X19971472Y-12201998D01*
X19973472Y-12199998D01*
X19974473Y-12197998D01*
X19976472Y-12195998D01*
X19977472Y-12193999D01*
X19979473Y-12191998D01*
X19981472Y-12189998D01*
X19983473Y-12187998D01*
X19985472Y-12185998D01*
X19987472Y-12184998D01*
X19989472Y-12182998D01*
X19991472Y-12181998D01*
X19993472Y-12179999D01*
X19996472Y-12178998D01*
X19998472Y-12177998D01*
X20001472Y-12176998D01*
X20003472Y-12176998D01*
X20006472Y-12175998D01*
X20008472Y-12175998D01*
X20011472Y-12174998D01*
X20013472Y-12174998D01*
X20016472Y-12174999D01*
G37*
X20921472Y-12674998D02*
X20924472Y-12675998D01*
X20926472Y-12675998D01*
X20929472Y-12676998D01*
X20931472Y-12676998D01*
X20934472Y-12677998D01*
X20936472Y-12678998D01*
X20939472Y-12679998D01*
X20941472Y-12681998D01*
X20943472Y-12682998D01*
X20945472Y-12684998D01*
X20947472Y-12685998D01*
X20949472Y-12687998D01*
X20951472Y-12689999D01*
X20953472Y-12691998D01*
X20955472Y-12693998D01*
X20956472Y-12695998D01*
X20958472Y-12697998D01*
X20959472Y-12699998D01*
X20961472Y-12701998D01*
X20962472Y-12704998D01*
X20963472Y-12706998D01*
X20964472Y-12709998D01*
X20964472Y-12711998D01*
X20965472Y-12714998D01*
X20965472Y-12716998D01*
X20966472Y-12719998D01*
X20966473Y-12721998D01*
X20966472Y-12724998D01*
X20966472Y-12874998D01*
X20966472Y-12877998D01*
X20966472Y-12879997D01*
X20965472Y-12882998D01*
X20965472Y-12884998D01*
X20964472Y-12887998D01*
X20964472Y-12889998D01*
X20963472Y-12892998D01*
X20962473Y-12894998D01*
X20961472Y-12897998D01*
X20959472Y-12899998D01*
X20958472Y-12901998D01*
X20956472Y-12903998D01*
X20955472Y-12905998D01*
X20953472Y-12907998D01*
X20951472Y-12909998D01*
X20949472Y-12911998D01*
X20947472Y-12913998D01*
X20945472Y-12914998D01*
X20943472Y-12916998D01*
X20941472Y-12917998D01*
X20939472Y-12919998D01*
X20936472Y-12920998D01*
X20934472Y-12921997D01*
X20931472Y-12922998D01*
X20929472Y-12922998D01*
X20926472Y-12923998D01*
X20924472Y-12923999D01*
X20921472Y-12924998D01*
X20919472Y-12924998D01*
X20916472Y-12924998D01*
X20016472Y-12924998D01*
X20013472Y-12924998D01*
X20011472Y-12924998D01*
X20008472Y-12923998D01*
X20006472Y-12923999D01*
X20003472Y-12922998D01*
X20001472Y-12922998D01*
X19998472Y-12921998D01*
X19996472Y-12920998D01*
X19993472Y-12919998D01*
X19991471Y-12917998D01*
X19989472Y-12916998D01*
X19987472Y-12914999D01*
X19985472Y-12913998D01*
X19983472Y-12911998D01*
X19981472Y-12909998D01*
X19979472Y-12907998D01*
X19977472Y-12905998D01*
X19976472Y-12903998D01*
X19974472Y-12901998D01*
X19973472Y-12899999D01*
X19971472Y-12897998D01*
X19970472Y-12894998D01*
X19969472Y-12892998D01*
X19968472Y-12889998D01*
X19968472Y-12887998D01*
X19967471Y-12884998D01*
X19967472Y-12882998D01*
X19966472Y-12879998D01*
X19966472Y-12877998D01*
X19966472Y-12874998D01*
X19966472Y-12724998D01*
X19966472Y-12721998D01*
X19966472Y-12719998D01*
X19967471Y-12716998D01*
X19967472Y-12714998D01*
X19968472Y-12711998D01*
X19968472Y-12709998D01*
X19969472Y-12706997D01*
X19970472Y-12704998D01*
X19971472Y-12701998D01*
X19973472Y-12699998D01*
X19974472Y-12697998D01*
X19976472Y-12695998D01*
X19977472Y-12693998D01*
X19979472Y-12691998D01*
X19981472Y-12689998D01*
X19983472Y-12687998D01*
X19985472Y-12685998D01*
X19987472Y-12684998D01*
X19989472Y-12682998D01*
X19991472Y-12681998D01*
X19993472Y-12679998D01*
X19996472Y-12678997D01*
X19998472Y-12677998D01*
X20001472Y-12676998D01*
X20003472Y-12676998D01*
X20006472Y-12675998D01*
X20008472Y-12675998D01*
X20011473Y-12674998D01*
X20013472Y-12674998D01*
X20016472Y-12674998D01*
X20916472Y-12674998D01*
X20919472Y-12674997D01*
X20921472Y-12674998D01*
G36*
X20921472Y-12674998D02*
G01*
X20924472Y-12675998D01*
X20926472Y-12675998D01*
X20929472Y-12676998D01*
X20931472Y-12676998D01*
X20934472Y-12677998D01*
X20936472Y-12678998D01*
X20939472Y-12679998D01*
X20941472Y-12681998D01*
X20943472Y-12682998D01*
X20945472Y-12684998D01*
X20947472Y-12685998D01*
X20949472Y-12687998D01*
X20951472Y-12689999D01*
X20953472Y-12691998D01*
X20955472Y-12693998D01*
X20956472Y-12695998D01*
X20958472Y-12697998D01*
X20959472Y-12699998D01*
X20961472Y-12701998D01*
X20962472Y-12704998D01*
X20963472Y-12706998D01*
X20964472Y-12709998D01*
X20964472Y-12711998D01*
X20965472Y-12714998D01*
X20965472Y-12716998D01*
X20966472Y-12719998D01*
X20966473Y-12721998D01*
X20966472Y-12724998D01*
X20966472Y-12874998D01*
X20966472Y-12877998D01*
X20966472Y-12879997D01*
X20965472Y-12882998D01*
X20965472Y-12884998D01*
X20964472Y-12887998D01*
X20964472Y-12889998D01*
X20963472Y-12892998D01*
X20962473Y-12894998D01*
X20961472Y-12897998D01*
X20959472Y-12899998D01*
X20958472Y-12901998D01*
X20956472Y-12903998D01*
X20955472Y-12905998D01*
X20953472Y-12907998D01*
X20951472Y-12909998D01*
X20949472Y-12911998D01*
X20947472Y-12913998D01*
X20945472Y-12914998D01*
X20943472Y-12916998D01*
X20941472Y-12917998D01*
X20939472Y-12919998D01*
X20936472Y-12920998D01*
X20934472Y-12921997D01*
X20931472Y-12922998D01*
X20929472Y-12922998D01*
X20926472Y-12923998D01*
X20924472Y-12923999D01*
X20921472Y-12924998D01*
X20919472Y-12924998D01*
X20916472Y-12924998D01*
X20016472Y-12924998D01*
X20013472Y-12924998D01*
X20011472Y-12924998D01*
X20008472Y-12923998D01*
X20006472Y-12923999D01*
X20003472Y-12922998D01*
X20001472Y-12922998D01*
X19998472Y-12921998D01*
X19996472Y-12920998D01*
X19993472Y-12919998D01*
X19991471Y-12917998D01*
X19989472Y-12916998D01*
X19987472Y-12914999D01*
X19985472Y-12913998D01*
X19983472Y-12911998D01*
X19981472Y-12909998D01*
X19979472Y-12907998D01*
X19977472Y-12905998D01*
X19976472Y-12903998D01*
X19974472Y-12901998D01*
X19973472Y-12899999D01*
X19971472Y-12897998D01*
X19970472Y-12894998D01*
X19969472Y-12892998D01*
X19968472Y-12889998D01*
X19968472Y-12887998D01*
X19967471Y-12884998D01*
X19967472Y-12882998D01*
X19966472Y-12879998D01*
X19966472Y-12877998D01*
X19966472Y-12874998D01*
X19966472Y-12724998D01*
X19966472Y-12721998D01*
X19966472Y-12719998D01*
X19967471Y-12716998D01*
X19967472Y-12714998D01*
X19968472Y-12711998D01*
X19968472Y-12709998D01*
X19969472Y-12706997D01*
X19970472Y-12704998D01*
X19971472Y-12701998D01*
X19973472Y-12699998D01*
X19974472Y-12697998D01*
X19976472Y-12695998D01*
X19977472Y-12693998D01*
X19979472Y-12691998D01*
X19981472Y-12689998D01*
X19983472Y-12687998D01*
X19985472Y-12685998D01*
X19987472Y-12684998D01*
X19989472Y-12682998D01*
X19991472Y-12681998D01*
X19993472Y-12679998D01*
X19996472Y-12678997D01*
X19998472Y-12677998D01*
X20001472Y-12676998D01*
X20003472Y-12676998D01*
X20006472Y-12675998D01*
X20008472Y-12675998D01*
X20011473Y-12674998D01*
X20013472Y-12674998D01*
X20016472Y-12674998D01*
X20916472Y-12674998D01*
X20919472Y-12674997D01*
X20921472Y-12674998D01*
G37*
X20924472Y-13215998D02*
X20926472Y-13215998D01*
X20929472Y-13216997D01*
X20931472Y-13216998D01*
X20934472Y-13217998D01*
X20936472Y-13218998D01*
X20939472Y-13219998D01*
X20941471Y-13221998D01*
X20943473Y-13222998D01*
X20945472Y-13224998D01*
X20947472Y-13225998D01*
X20949472Y-13227998D01*
X20951472Y-13229998D01*
X20953473Y-13231998D01*
X20955472Y-13233998D01*
X20956472Y-13235997D01*
X20958472Y-13237998D01*
X20959472Y-13239998D01*
X20961472Y-13241999D01*
X20962472Y-13244998D01*
X20963472Y-13246998D01*
X20964472Y-13249998D01*
X20964472Y-13251998D01*
X20965471Y-13254998D01*
X20965472Y-13256999D01*
X20966472Y-13259998D01*
X20966472Y-13261998D01*
X20966473Y-13264998D01*
X20966473Y-13414998D01*
X20966472Y-13417998D01*
X20966472Y-13419998D01*
X20965472Y-13422997D01*
X20965471Y-13424998D01*
X20964472Y-13427998D01*
X20964472Y-13429998D01*
X20963472Y-13432998D01*
X20962472Y-13434998D01*
X20961472Y-13437997D01*
X20959472Y-13439998D01*
X20958472Y-13441998D01*
X20956472Y-13443999D01*
X20955472Y-13445998D01*
X20953473Y-13447998D01*
X20951472Y-13449998D01*
X20949472Y-13451998D01*
X20947472Y-13453998D01*
X20945472Y-13454998D01*
X20943473Y-13456998D01*
X20941471Y-13457998D01*
X20939472Y-13459998D01*
X20936472Y-13460998D01*
X20934472Y-13461998D01*
X20931472Y-13462998D01*
X20929472Y-13462999D01*
X20926472Y-13463998D01*
X20924472Y-13463998D01*
X20921472Y-13464998D01*
X20919472Y-13464998D01*
X20916472Y-13464998D01*
X20016472Y-13464998D01*
X20013472Y-13464998D01*
X20011472Y-13464998D01*
X20008472Y-13463998D01*
X20006472Y-13463998D01*
X20003472Y-13462998D01*
X20001472Y-13462999D01*
X19998472Y-13461998D01*
X19996472Y-13460998D01*
X19993472Y-13459998D01*
X19991472Y-13457998D01*
X19989472Y-13456998D01*
X19987472Y-13454998D01*
X19985472Y-13453998D01*
X19983473Y-13451998D01*
X19981472Y-13449998D01*
X19979473Y-13447998D01*
X19977472Y-13445998D01*
X19976472Y-13443998D01*
X19974472Y-13441997D01*
X19973472Y-13439998D01*
X19971472Y-13437998D01*
X19970472Y-13434998D01*
X19969472Y-13432998D01*
X19968472Y-13429999D01*
X19968472Y-13427997D01*
X19967472Y-13424998D01*
X19967472Y-13422998D01*
X19966472Y-13419998D01*
X19966472Y-13417998D01*
X19966472Y-13414998D01*
X19966472Y-13264998D01*
X19966472Y-13261998D01*
X19966472Y-13259998D01*
X19967472Y-13256998D01*
X19967472Y-13254998D01*
X19968472Y-13251999D01*
X19968472Y-13249997D01*
X19969472Y-13246998D01*
X19970472Y-13244998D01*
X19971472Y-13241998D01*
X19973472Y-13239998D01*
X19974472Y-13237999D01*
X19976472Y-13235998D01*
X19977472Y-13233998D01*
X19979473Y-13231998D01*
X19981472Y-13229998D01*
X19983473Y-13227998D01*
X19985472Y-13225998D01*
X19987472Y-13224998D01*
X19989472Y-13222998D01*
X19991472Y-13221998D01*
X19993472Y-13219998D01*
X19996472Y-13218998D01*
X19998472Y-13217998D01*
X20001472Y-13216997D01*
X20003472Y-13216998D01*
X20006472Y-13215998D01*
X20008472Y-13215998D01*
X20011472Y-13214998D01*
X20013472Y-13214998D01*
X20016472Y-13214998D01*
X20916472Y-13214998D01*
X20919472Y-13214998D01*
X20921472Y-13214998D01*
X20924472Y-13215998D01*
G36*
X20924472Y-13215998D02*
G01*
X20926472Y-13215998D01*
X20929472Y-13216997D01*
X20931472Y-13216998D01*
X20934472Y-13217998D01*
X20936472Y-13218998D01*
X20939472Y-13219998D01*
X20941471Y-13221998D01*
X20943473Y-13222998D01*
X20945472Y-13224998D01*
X20947472Y-13225998D01*
X20949472Y-13227998D01*
X20951472Y-13229998D01*
X20953473Y-13231998D01*
X20955472Y-13233998D01*
X20956472Y-13235997D01*
X20958472Y-13237998D01*
X20959472Y-13239998D01*
X20961472Y-13241999D01*
X20962472Y-13244998D01*
X20963472Y-13246998D01*
X20964472Y-13249998D01*
X20964472Y-13251998D01*
X20965471Y-13254998D01*
X20965472Y-13256999D01*
X20966472Y-13259998D01*
X20966472Y-13261998D01*
X20966473Y-13264998D01*
X20966473Y-13414998D01*
X20966472Y-13417998D01*
X20966472Y-13419998D01*
X20965472Y-13422997D01*
X20965471Y-13424998D01*
X20964472Y-13427998D01*
X20964472Y-13429998D01*
X20963472Y-13432998D01*
X20962472Y-13434998D01*
X20961472Y-13437997D01*
X20959472Y-13439998D01*
X20958472Y-13441998D01*
X20956472Y-13443999D01*
X20955472Y-13445998D01*
X20953473Y-13447998D01*
X20951472Y-13449998D01*
X20949472Y-13451998D01*
X20947472Y-13453998D01*
X20945472Y-13454998D01*
X20943473Y-13456998D01*
X20941471Y-13457998D01*
X20939472Y-13459998D01*
X20936472Y-13460998D01*
X20934472Y-13461998D01*
X20931472Y-13462998D01*
X20929472Y-13462999D01*
X20926472Y-13463998D01*
X20924472Y-13463998D01*
X20921472Y-13464998D01*
X20919472Y-13464998D01*
X20916472Y-13464998D01*
X20016472Y-13464998D01*
X20013472Y-13464998D01*
X20011472Y-13464998D01*
X20008472Y-13463998D01*
X20006472Y-13463998D01*
X20003472Y-13462998D01*
X20001472Y-13462999D01*
X19998472Y-13461998D01*
X19996472Y-13460998D01*
X19993472Y-13459998D01*
X19991472Y-13457998D01*
X19989472Y-13456998D01*
X19987472Y-13454998D01*
X19985472Y-13453998D01*
X19983473Y-13451998D01*
X19981472Y-13449998D01*
X19979473Y-13447998D01*
X19977472Y-13445998D01*
X19976472Y-13443998D01*
X19974472Y-13441997D01*
X19973472Y-13439998D01*
X19971472Y-13437998D01*
X19970472Y-13434998D01*
X19969472Y-13432998D01*
X19968472Y-13429999D01*
X19968472Y-13427997D01*
X19967472Y-13424998D01*
X19967472Y-13422998D01*
X19966472Y-13419998D01*
X19966472Y-13417998D01*
X19966472Y-13414998D01*
X19966472Y-13264998D01*
X19966472Y-13261998D01*
X19966472Y-13259998D01*
X19967472Y-13256998D01*
X19967472Y-13254998D01*
X19968472Y-13251999D01*
X19968472Y-13249997D01*
X19969472Y-13246998D01*
X19970472Y-13244998D01*
X19971472Y-13241998D01*
X19973472Y-13239998D01*
X19974472Y-13237999D01*
X19976472Y-13235998D01*
X19977472Y-13233998D01*
X19979473Y-13231998D01*
X19981472Y-13229998D01*
X19983473Y-13227998D01*
X19985472Y-13225998D01*
X19987472Y-13224998D01*
X19989472Y-13222998D01*
X19991472Y-13221998D01*
X19993472Y-13219998D01*
X19996472Y-13218998D01*
X19998472Y-13217998D01*
X20001472Y-13216997D01*
X20003472Y-13216998D01*
X20006472Y-13215998D01*
X20008472Y-13215998D01*
X20011472Y-13214998D01*
X20013472Y-13214998D01*
X20016472Y-13214998D01*
X20916472Y-13214998D01*
X20919472Y-13214998D01*
X20921472Y-13214998D01*
X20924472Y-13215998D01*
G37*
X20924472Y-13755997D02*
X20926472Y-13755998D01*
X20929472Y-13756998D01*
X20931472Y-13756998D01*
X20934472Y-13757999D01*
X20936472Y-13758998D01*
X20939472Y-13759998D01*
X20941472Y-13761998D01*
X20943472Y-13762998D01*
X20945472Y-13764998D01*
X20947472Y-13765998D01*
X20949472Y-13767998D01*
X20951472Y-13769998D01*
X20953472Y-13771998D01*
X20955472Y-13773998D01*
X20956472Y-13775998D01*
X20958472Y-13777998D01*
X20959472Y-13779998D01*
X20961472Y-13781998D01*
X20962473Y-13784998D01*
X20963472Y-13786998D01*
X20964472Y-13789998D01*
X20964472Y-13791998D01*
X20965472Y-13794998D01*
X20965472Y-13796998D01*
X20966472Y-13799999D01*
X20966472Y-13801998D01*
X20966472Y-13804998D01*
X20966472Y-13954998D01*
X20966473Y-13957998D01*
X20966472Y-13959998D01*
X20965472Y-13962998D01*
X20965472Y-13964998D01*
X20964472Y-13967998D01*
X20964472Y-13969998D01*
X20963472Y-13972998D01*
X20962472Y-13974998D01*
X20961472Y-13977998D01*
X20959472Y-13979998D01*
X20958472Y-13981998D01*
X20956472Y-13983998D01*
X20955472Y-13985998D01*
X20953472Y-13987998D01*
X20951472Y-13989997D01*
X20949472Y-13991998D01*
X20947472Y-13993998D01*
X20945472Y-13994998D01*
X20943472Y-13996998D01*
X20941472Y-13997998D01*
X20939472Y-13999998D01*
X20936472Y-14000998D01*
X20934472Y-14001998D01*
X20931472Y-14002998D01*
X20929472Y-14002998D01*
X20926472Y-14003998D01*
X20924472Y-14003998D01*
X20921472Y-14004998D01*
X20919472Y-14004999D01*
X20916472Y-14004998D01*
X20016472Y-14004998D01*
X20013472Y-14004998D01*
X20011473Y-14004998D01*
X20008472Y-14003998D01*
X20006472Y-14003998D01*
X20003472Y-14002998D01*
X20001472Y-14002998D01*
X19998472Y-14001998D01*
X19996472Y-14000999D01*
X19993472Y-13999998D01*
X19991472Y-13997998D01*
X19989472Y-13996998D01*
X19987472Y-13994998D01*
X19985472Y-13993998D01*
X19983472Y-13991998D01*
X19981472Y-13989998D01*
X19979472Y-13987998D01*
X19977472Y-13985998D01*
X19976472Y-13983998D01*
X19974472Y-13981998D01*
X19973472Y-13979998D01*
X19971472Y-13977998D01*
X19970472Y-13974998D01*
X19969472Y-13972999D01*
X19968472Y-13969998D01*
X19968472Y-13967998D01*
X19967472Y-13964998D01*
X19967471Y-13962998D01*
X19966472Y-13959998D01*
X19966472Y-13957998D01*
X19966472Y-13954998D01*
X19966472Y-13804998D01*
X19966472Y-13801998D01*
X19966472Y-13799998D01*
X19967472Y-13796998D01*
X19967471Y-13794998D01*
X19968472Y-13791998D01*
X19968472Y-13789998D01*
X19969472Y-13786998D01*
X19970472Y-13784998D01*
X19971472Y-13781998D01*
X19973472Y-13779997D01*
X19974472Y-13777998D01*
X19976472Y-13775998D01*
X19977472Y-13773998D01*
X19979472Y-13771998D01*
X19981472Y-13769998D01*
X19983472Y-13767998D01*
X19985472Y-13765998D01*
X19987472Y-13764997D01*
X19989472Y-13762998D01*
X19991471Y-13761998D01*
X19993472Y-13759998D01*
X19996472Y-13758998D01*
X19998472Y-13757998D01*
X20001472Y-13756998D01*
X20003472Y-13756998D01*
X20006472Y-13755997D01*
X20008472Y-13755998D01*
X20011472Y-13754998D01*
X20013472Y-13754998D01*
X20016472Y-13754998D01*
X20916472Y-13754998D01*
X20919472Y-13754998D01*
X20921472Y-13754998D01*
X20924472Y-13755997D01*
G36*
X20924472Y-13755997D02*
G01*
X20926472Y-13755998D01*
X20929472Y-13756998D01*
X20931472Y-13756998D01*
X20934472Y-13757999D01*
X20936472Y-13758998D01*
X20939472Y-13759998D01*
X20941472Y-13761998D01*
X20943472Y-13762998D01*
X20945472Y-13764998D01*
X20947472Y-13765998D01*
X20949472Y-13767998D01*
X20951472Y-13769998D01*
X20953472Y-13771998D01*
X20955472Y-13773998D01*
X20956472Y-13775998D01*
X20958472Y-13777998D01*
X20959472Y-13779998D01*
X20961472Y-13781998D01*
X20962473Y-13784998D01*
X20963472Y-13786998D01*
X20964472Y-13789998D01*
X20964472Y-13791998D01*
X20965472Y-13794998D01*
X20965472Y-13796998D01*
X20966472Y-13799999D01*
X20966472Y-13801998D01*
X20966472Y-13804998D01*
X20966472Y-13954998D01*
X20966473Y-13957998D01*
X20966472Y-13959998D01*
X20965472Y-13962998D01*
X20965472Y-13964998D01*
X20964472Y-13967998D01*
X20964472Y-13969998D01*
X20963472Y-13972998D01*
X20962472Y-13974998D01*
X20961472Y-13977998D01*
X20959472Y-13979998D01*
X20958472Y-13981998D01*
X20956472Y-13983998D01*
X20955472Y-13985998D01*
X20953472Y-13987998D01*
X20951472Y-13989997D01*
X20949472Y-13991998D01*
X20947472Y-13993998D01*
X20945472Y-13994998D01*
X20943472Y-13996998D01*
X20941472Y-13997998D01*
X20939472Y-13999998D01*
X20936472Y-14000998D01*
X20934472Y-14001998D01*
X20931472Y-14002998D01*
X20929472Y-14002998D01*
X20926472Y-14003998D01*
X20924472Y-14003998D01*
X20921472Y-14004998D01*
X20919472Y-14004999D01*
X20916472Y-14004998D01*
X20016472Y-14004998D01*
X20013472Y-14004998D01*
X20011473Y-14004998D01*
X20008472Y-14003998D01*
X20006472Y-14003998D01*
X20003472Y-14002998D01*
X20001472Y-14002998D01*
X19998472Y-14001998D01*
X19996472Y-14000999D01*
X19993472Y-13999998D01*
X19991472Y-13997998D01*
X19989472Y-13996998D01*
X19987472Y-13994998D01*
X19985472Y-13993998D01*
X19983472Y-13991998D01*
X19981472Y-13989998D01*
X19979472Y-13987998D01*
X19977472Y-13985998D01*
X19976472Y-13983998D01*
X19974472Y-13981998D01*
X19973472Y-13979998D01*
X19971472Y-13977998D01*
X19970472Y-13974998D01*
X19969472Y-13972999D01*
X19968472Y-13969998D01*
X19968472Y-13967998D01*
X19967472Y-13964998D01*
X19967471Y-13962998D01*
X19966472Y-13959998D01*
X19966472Y-13957998D01*
X19966472Y-13954998D01*
X19966472Y-13804998D01*
X19966472Y-13801998D01*
X19966472Y-13799998D01*
X19967472Y-13796998D01*
X19967471Y-13794998D01*
X19968472Y-13791998D01*
X19968472Y-13789998D01*
X19969472Y-13786998D01*
X19970472Y-13784998D01*
X19971472Y-13781998D01*
X19973472Y-13779997D01*
X19974472Y-13777998D01*
X19976472Y-13775998D01*
X19977472Y-13773998D01*
X19979472Y-13771998D01*
X19981472Y-13769998D01*
X19983472Y-13767998D01*
X19985472Y-13765998D01*
X19987472Y-13764997D01*
X19989472Y-13762998D01*
X19991471Y-13761998D01*
X19993472Y-13759998D01*
X19996472Y-13758998D01*
X19998472Y-13757998D01*
X20001472Y-13756998D01*
X20003472Y-13756998D01*
X20006472Y-13755997D01*
X20008472Y-13755998D01*
X20011472Y-13754998D01*
X20013472Y-13754998D01*
X20016472Y-13754998D01*
X20916472Y-13754998D01*
X20919472Y-13754998D01*
X20921472Y-13754998D01*
X20924472Y-13755997D01*
G37*
X20924472Y-14255998D02*
X20926472Y-14255998D01*
X20929472Y-14256997D01*
X20931472Y-14256998D01*
X20934472Y-14257998D01*
X20936472Y-14258998D01*
X20939472Y-14259998D01*
X20941471Y-14261998D01*
X20943473Y-14262998D01*
X20945472Y-14264998D01*
X20947472Y-14265997D01*
X20949472Y-14267998D01*
X20951472Y-14269998D01*
X20953473Y-14271998D01*
X20955472Y-14273998D01*
X20956472Y-14275997D01*
X20958472Y-14277998D01*
X20959472Y-14279998D01*
X20961472Y-14281999D01*
X20962472Y-14284998D01*
X20963472Y-14286998D01*
X20964472Y-14289998D01*
X20964472Y-14291998D01*
X20965471Y-14294998D01*
X20965472Y-14296998D01*
X20966472Y-14299998D01*
X20966472Y-14301998D01*
X20966472Y-14304999D01*
X20966472Y-14454999D01*
X20966472Y-14457998D01*
X20966472Y-14459998D01*
X20965472Y-14462997D01*
X20965472Y-14464999D01*
X20964472Y-14467998D01*
X20964472Y-14469998D01*
X20963472Y-14472998D01*
X20962472Y-14474998D01*
X20961472Y-14477999D01*
X20959472Y-14479998D01*
X20958472Y-14481998D01*
X20956472Y-14483998D01*
X20955472Y-14485998D01*
X20953473Y-14487998D01*
X20951472Y-14489998D01*
X20949472Y-14491998D01*
X20947472Y-14493998D01*
X20945472Y-14494998D01*
X20943473Y-14496998D01*
X20941472Y-14497998D01*
X20939473Y-14499998D01*
X20936472Y-14500998D01*
X20934472Y-14501998D01*
X20931472Y-14502998D01*
X20929472Y-14502998D01*
X20926472Y-14503998D01*
X20924472Y-14503998D01*
X20921472Y-14504998D01*
X20919472Y-14504998D01*
X20916472Y-14504998D01*
X20016472Y-14504997D01*
X20013472Y-14504998D01*
X20011472Y-14504998D01*
X20008472Y-14503998D01*
X20006472Y-14503998D01*
X20003472Y-14502998D01*
X20001472Y-14502998D01*
X19998472Y-14501998D01*
X19996472Y-14500998D01*
X19993472Y-14499997D01*
X19991472Y-14497998D01*
X19989472Y-14496998D01*
X19987472Y-14494998D01*
X19985472Y-14493998D01*
X19983473Y-14491998D01*
X19981472Y-14489998D01*
X19979473Y-14487998D01*
X19977472Y-14485997D01*
X19976472Y-14483998D01*
X19974473Y-14481998D01*
X19973472Y-14479998D01*
X19971472Y-14477998D01*
X19970472Y-14474998D01*
X19969472Y-14472998D01*
X19968472Y-14469998D01*
X19968472Y-14467997D01*
X19967472Y-14464998D01*
X19967472Y-14462998D01*
X19966472Y-14459998D01*
X19966472Y-14457998D01*
X19966472Y-14454998D01*
X19966472Y-14304998D01*
X19966472Y-14301998D01*
X19966472Y-14299998D01*
X19967472Y-14296998D01*
X19967472Y-14294998D01*
X19968472Y-14291998D01*
X19968472Y-14289997D01*
X19969472Y-14286998D01*
X19970472Y-14284998D01*
X19971472Y-14281998D01*
X19973472Y-14279998D01*
X19974472Y-14277998D01*
X19976472Y-14275998D01*
X19977472Y-14273998D01*
X19979473Y-14271998D01*
X19981472Y-14269998D01*
X19983472Y-14267999D01*
X19985472Y-14265998D01*
X19987472Y-14264998D01*
X19989472Y-14262998D01*
X19991472Y-14261998D01*
X19993472Y-14259998D01*
X19996472Y-14258998D01*
X19998472Y-14257998D01*
X20001472Y-14256997D01*
X20003472Y-14256998D01*
X20006472Y-14255998D01*
X20008472Y-14255998D01*
X20011472Y-14254998D01*
X20013472Y-14254998D01*
X20016472Y-14254998D01*
X20916472Y-14254998D01*
X20919472Y-14254998D01*
X20921472Y-14254998D01*
X20924472Y-14255998D01*
G36*
X20924472Y-14255998D02*
G01*
X20926472Y-14255998D01*
X20929472Y-14256997D01*
X20931472Y-14256998D01*
X20934472Y-14257998D01*
X20936472Y-14258998D01*
X20939472Y-14259998D01*
X20941471Y-14261998D01*
X20943473Y-14262998D01*
X20945472Y-14264998D01*
X20947472Y-14265997D01*
X20949472Y-14267998D01*
X20951472Y-14269998D01*
X20953473Y-14271998D01*
X20955472Y-14273998D01*
X20956472Y-14275997D01*
X20958472Y-14277998D01*
X20959472Y-14279998D01*
X20961472Y-14281999D01*
X20962472Y-14284998D01*
X20963472Y-14286998D01*
X20964472Y-14289998D01*
X20964472Y-14291998D01*
X20965471Y-14294998D01*
X20965472Y-14296998D01*
X20966472Y-14299998D01*
X20966472Y-14301998D01*
X20966472Y-14304999D01*
X20966472Y-14454999D01*
X20966472Y-14457998D01*
X20966472Y-14459998D01*
X20965472Y-14462997D01*
X20965472Y-14464999D01*
X20964472Y-14467998D01*
X20964472Y-14469998D01*
X20963472Y-14472998D01*
X20962472Y-14474998D01*
X20961472Y-14477999D01*
X20959472Y-14479998D01*
X20958472Y-14481998D01*
X20956472Y-14483998D01*
X20955472Y-14485998D01*
X20953473Y-14487998D01*
X20951472Y-14489998D01*
X20949472Y-14491998D01*
X20947472Y-14493998D01*
X20945472Y-14494998D01*
X20943473Y-14496998D01*
X20941472Y-14497998D01*
X20939473Y-14499998D01*
X20936472Y-14500998D01*
X20934472Y-14501998D01*
X20931472Y-14502998D01*
X20929472Y-14502998D01*
X20926472Y-14503998D01*
X20924472Y-14503998D01*
X20921472Y-14504998D01*
X20919472Y-14504998D01*
X20916472Y-14504998D01*
X20016472Y-14504997D01*
X20013472Y-14504998D01*
X20011472Y-14504998D01*
X20008472Y-14503998D01*
X20006472Y-14503998D01*
X20003472Y-14502998D01*
X20001472Y-14502998D01*
X19998472Y-14501998D01*
X19996472Y-14500998D01*
X19993472Y-14499997D01*
X19991472Y-14497998D01*
X19989472Y-14496998D01*
X19987472Y-14494998D01*
X19985472Y-14493998D01*
X19983473Y-14491998D01*
X19981472Y-14489998D01*
X19979473Y-14487998D01*
X19977472Y-14485997D01*
X19976472Y-14483998D01*
X19974473Y-14481998D01*
X19973472Y-14479998D01*
X19971472Y-14477998D01*
X19970472Y-14474998D01*
X19969472Y-14472998D01*
X19968472Y-14469998D01*
X19968472Y-14467997D01*
X19967472Y-14464998D01*
X19967472Y-14462998D01*
X19966472Y-14459998D01*
X19966472Y-14457998D01*
X19966472Y-14454998D01*
X19966472Y-14304998D01*
X19966472Y-14301998D01*
X19966472Y-14299998D01*
X19967472Y-14296998D01*
X19967472Y-14294998D01*
X19968472Y-14291998D01*
X19968472Y-14289997D01*
X19969472Y-14286998D01*
X19970472Y-14284998D01*
X19971472Y-14281998D01*
X19973472Y-14279998D01*
X19974472Y-14277998D01*
X19976472Y-14275998D01*
X19977472Y-14273998D01*
X19979473Y-14271998D01*
X19981472Y-14269998D01*
X19983472Y-14267999D01*
X19985472Y-14265998D01*
X19987472Y-14264998D01*
X19989472Y-14262998D01*
X19991472Y-14261998D01*
X19993472Y-14259998D01*
X19996472Y-14258998D01*
X19998472Y-14257998D01*
X20001472Y-14256997D01*
X20003472Y-14256998D01*
X20006472Y-14255998D01*
X20008472Y-14255998D01*
X20011472Y-14254998D01*
X20013472Y-14254998D01*
X20016472Y-14254998D01*
X20916472Y-14254998D01*
X20919472Y-14254998D01*
X20921472Y-14254998D01*
X20924472Y-14255998D01*
G37*
%TD*%
D11*
%TO.C,TH1*%
X5750000Y-3675001D03*
X5750000Y-5325001D03*
%TD*%
D12*
%TO.C,R31*%
X7500000Y-3675001D03*
X7500000Y-5325001D03*
%TD*%
D13*
%TO.C,D41*%
X-9187500Y12162498D03*
X-9187500Y10587498D03*
%TD*%
D14*
%TO.C,D9*%
X-7725000Y24762499D03*
X-6150000Y24762499D03*
%TD*%
D15*
%TO.C,D24*%
X8245833Y22512500D03*
X8245833Y24087500D03*
%TD*%
D16*
%TO.C,U6*%
X-9012500Y3574999D03*
X-7862500Y3574999D03*
X-9012500Y4724999D03*
X-7862500Y4724999D03*
D17*
X-9637501Y2212499D03*
X-9237500Y2212499D03*
X-8837500Y2212499D03*
X-8437500Y2212500D03*
X-8037500Y2212499D03*
X-7637500Y2212499D03*
X-7237499Y2212499D03*
D18*
X-6500000Y2949998D03*
X-6500000Y3349999D03*
X-6500000Y3749999D03*
X-6500001Y4149999D03*
X-6500000Y4549999D03*
X-6500000Y4949999D03*
X-6500000Y5350000D03*
D17*
X-7237499Y6087499D03*
X-7637500Y6087499D03*
X-8037500Y6087499D03*
X-8437500Y6087498D03*
X-8837500Y6087499D03*
X-9237500Y6087499D03*
X-9637501Y6087499D03*
D18*
X-10375000Y5350000D03*
X-10375000Y4949999D03*
X-10375000Y4549999D03*
X-10374999Y4149999D03*
X-10375000Y3749999D03*
X-10375000Y3349999D03*
X-10375000Y2949998D03*
%TD*%
D15*
%TO.C,D49*%
X5529166Y13874999D03*
X5529166Y15449999D03*
%TD*%
D13*
%TO.C,D57*%
X12745833Y12199999D03*
X12745833Y10624999D03*
%TD*%
D14*
%TO.C,D23*%
X9708333Y24762499D03*
X11283333Y24762499D03*
%TD*%
D19*
%TO.C,U3*%
X4991435Y972272D03*
X4425749Y1537957D03*
X3860064Y2103643D03*
X3294379Y2669328D03*
X2728693Y3235014D03*
X2163008Y3800699D03*
X1597322Y4366384D03*
X1031637Y4932070D03*
D20*
X-912907Y4932070D03*
X-1478592Y4366384D03*
X-2044278Y3800699D03*
X-2609963Y3235014D03*
X-3175649Y2669328D03*
X-3741334Y2103643D03*
X-4307019Y1537957D03*
X-4872705Y972272D03*
D19*
X-4872705Y-972272D03*
X-4307019Y-1537957D03*
X-3741334Y-2103643D03*
X-3175649Y-2669328D03*
X-2609963Y-3235014D03*
X-2044278Y-3800699D03*
X-1478592Y-4366384D03*
X-912907Y-4932070D03*
D20*
X1031637Y-4932070D03*
X1597322Y-4366384D03*
X2163008Y-3800699D03*
X2728693Y-3235014D03*
X3294379Y-2669328D03*
X3860064Y-2103643D03*
X4425749Y-1537957D03*
X4991435Y-972272D03*
%TD*%
D14*
%TO.C,D40*%
X-7725000Y9874998D03*
X-6150000Y9874998D03*
%TD*%
D12*
%TO.C,R2*%
X-12947451Y-15500022D03*
X-12947451Y-13850022D03*
%TD*%
D14*
%TO.C,D60*%
X25462499Y21259602D03*
X27037501Y21259602D03*
%TD*%
D15*
%TO.C,D58*%
X-1750000Y18374998D03*
X-1750000Y19950000D03*
%TD*%
D21*
%TO.C,R21*%
X-885305Y-24121509D03*
X764695Y-24121509D03*
%TD*%
D22*
%TO.C,C7*%
X3559366Y6249999D03*
X4655382Y5153983D03*
%TD*%
D15*
%TO.C,D17*%
X1029166Y22512500D03*
X1029166Y24087500D03*
%TD*%
D23*
%TO.C,R17*%
X23750000Y-17444225D03*
X23750000Y-11519225D03*
%TD*%
D11*
%TO.C,R30*%
X-11500000Y1574999D03*
X-11500000Y-75001D03*
%TD*%
D14*
%TO.C,D5*%
X-14941667Y18512499D03*
X-13366667Y18512499D03*
%TD*%
D21*
%TO.C,R34*%
X17920348Y23398420D03*
X19570348Y23398420D03*
%TD*%
%TO.C,R35*%
X17920348Y17749999D03*
X19570348Y17749999D03*
%TD*%
D15*
%TO.C,D52*%
X8245833Y13874999D03*
X8245833Y15449999D03*
%TD*%
D14*
%TO.C,D32*%
X-14900000Y12874998D03*
X-13325000Y12874998D03*
%TD*%
%TO.C,D53*%
X9745833Y12874998D03*
X11320833Y12874998D03*
%TD*%
D13*
%TO.C,D50*%
X5529166Y12199999D03*
X5529166Y10624999D03*
%TD*%
D14*
%TO.C,D62*%
X25454998Y11059602D03*
X27030000Y11059602D03*
%TD*%
D24*
%TO.C,C3*%
X-22695736Y-10300042D03*
X-25645738Y-10300042D03*
%TD*%
D11*
%TO.C,R3*%
X-11197449Y-13850022D03*
X-11197449Y-15500022D03*
%TD*%
D14*
%TO.C,D25*%
X9745833Y21512499D03*
X11320833Y21512499D03*
%TD*%
D25*
%TO.C,U4*%
X18516472Y-15739998D03*
X19016472Y-15739998D03*
X19516472Y-15739998D03*
X20016472Y-15739998D03*
D26*
X20641472Y-15379998D03*
D27*
X20666472Y-14879998D03*
X20666472Y-11799998D03*
D26*
X20641472Y-11299998D03*
D25*
X20016472Y-10939998D03*
X19516472Y-10939998D03*
X19016472Y-10939998D03*
X18516472Y-10939998D03*
D26*
X17891472Y-11299998D03*
D27*
X17866472Y-11799998D03*
X17866472Y-14879998D03*
D26*
X17891472Y-15379998D03*
%TD*%
D15*
%TO.C,D38*%
X-9187500Y13874999D03*
X-9187500Y15449999D03*
%TD*%
D14*
%TO.C,D47*%
X2491666Y9874998D03*
X4066666Y9874998D03*
%TD*%
D28*
%TO.C,SW2*%
X-22340635Y21500000D03*
X-26540635Y21500000D03*
%TD*%
D14*
%TO.C,D19*%
X2491666Y18512499D03*
X4066666Y18512499D03*
%TD*%
D21*
%TO.C,R9*%
X-19375000Y-2970000D03*
X-17725000Y-2970000D03*
%TD*%
%TO.C,R23*%
X-20060304Y-24159010D03*
X-18410304Y-24159010D03*
%TD*%
D29*
%TO.C,U2*%
X-15094900Y-15650001D03*
X-15094900Y-15000015D03*
X-15094900Y-14350029D03*
X-15094900Y-13700043D03*
X-17800000Y-13700043D03*
X-17800000Y-14350029D03*
X-17800000Y-15000015D03*
X-17800000Y-15650001D03*
%TD*%
D15*
%TO.C,D7*%
X-11904167Y22512499D03*
X-11904167Y24087501D03*
%TD*%
%TO.C,D45*%
X1029166Y13874999D03*
X1029166Y15449999D03*
%TD*%
D24*
%TO.C,C4*%
X-22670736Y-12800042D03*
X-25620738Y-12800042D03*
%TD*%
D11*
%TO.C,R4*%
X-18197450Y-17425000D03*
X-18197450Y-19075000D03*
%TD*%
D13*
%TO.C,D20*%
X1029166Y20799999D03*
X1029166Y19224999D03*
%TD*%
D14*
%TO.C,D33*%
X-14937500Y9874998D03*
X-13362500Y9874998D03*
%TD*%
D21*
%TO.C,R29*%
X-9825000Y-1D03*
X-8175000Y-1D03*
%TD*%
D14*
%TO.C,D54*%
X9708333Y9874998D03*
X11283333Y9874998D03*
%TD*%
%TO.C,D44*%
X2491666Y16124998D03*
X4066666Y16124998D03*
%TD*%
D15*
%TO.C,D56*%
X12745833Y13874999D03*
X12745833Y15449999D03*
%TD*%
D14*
%TO.C,D46*%
X2529166Y12874998D03*
X4104166Y12874998D03*
%TD*%
D21*
%TO.C,R1*%
X-14522450Y-11425023D03*
X-12872450Y-11425023D03*
%TD*%
D14*
%TO.C,D12*%
X-7725000Y18512499D03*
X-6150000Y18512499D03*
%TD*%
%TO.C,D51*%
X9708333Y16124998D03*
X11283333Y16124998D03*
%TD*%
D13*
%TO.C,D8*%
X-11904167Y20837501D03*
X-11904167Y19262499D03*
%TD*%
D30*
%TO.C,L2*%
X9809365Y-17950002D03*
X9809365Y-8050000D03*
%TD*%
D14*
%TO.C,D61*%
X25462499Y16259602D03*
X27037501Y16259602D03*
%TD*%
%TO.C,D65*%
X17977848Y13648420D03*
X19552848Y13648420D03*
%TD*%
D13*
%TO.C,D48*%
X1029166Y12162498D03*
X1029166Y10587498D03*
%TD*%
D14*
%TO.C,D2*%
X-14941667Y24762499D03*
X-13366667Y24762499D03*
%TD*%
D13*
%TO.C,D13*%
X-9187500Y20799999D03*
X-9187500Y19224999D03*
%TD*%
D12*
%TO.C,R38*%
X14250000Y-5325001D03*
X14250000Y-3675001D03*
%TD*%
D15*
%TO.C,D59*%
X-1750000Y9762499D03*
X-1750000Y11337501D03*
%TD*%
D13*
%TO.C,D55*%
X8245833Y12162498D03*
X8245833Y10587498D03*
%TD*%
D21*
%TO.C,R10*%
X-16000000Y-2970000D03*
X-14350000Y-2970000D03*
%TD*%
D31*
%TO.C,C20*%
X10935000Y-3725000D03*
X10935000Y-5275000D03*
%TD*%
D14*
%TO.C,D4*%
X-14904167Y21512499D03*
X-13329167Y21512499D03*
%TD*%
D32*
%TO.C,C6*%
X6905382Y2903984D03*
X5809366Y4000000D03*
%TD*%
D13*
%TO.C,D22*%
X5529166Y20837500D03*
X5529166Y19262500D03*
%TD*%
D15*
%TO.C,D3*%
X-16404167Y22512499D03*
X-16404167Y24087501D03*
%TD*%
D33*
%TO.C,R13*%
X8142729Y1785355D03*
X6976003Y618629D03*
%TD*%
D14*
%TO.C,D16*%
X2491666Y24762499D03*
X4066666Y24762499D03*
%TD*%
D11*
%TO.C,R33*%
X-22750000Y27324999D03*
X-22750000Y25674999D03*
%TD*%
%TO.C,R8*%
X-13500000Y1899999D03*
X-13500000Y249999D03*
%TD*%
D21*
%TO.C,R27*%
X25425000Y17856487D03*
X27075000Y17856487D03*
%TD*%
D11*
%TO.C,R5*%
X-19947450Y-17425000D03*
X-19947450Y-19075000D03*
%TD*%
D13*
%TO.C,D15*%
X-4687500Y20837500D03*
X-4687500Y19262500D03*
%TD*%
D14*
%TO.C,D37*%
X-7725000Y16124998D03*
X-6150000Y16124998D03*
%TD*%
D34*
%TO.C,C2*%
X-19947450Y-15425023D03*
X-19947450Y-13875023D03*
%TD*%
D11*
%TO.C,R18*%
X20559365Y-17156725D03*
X20559365Y-18806725D03*
%TD*%
D14*
%TO.C,D63*%
X17977848Y24998420D03*
X19552848Y24998420D03*
%TD*%
%TO.C,D39*%
X-7687500Y12874998D03*
X-6112500Y12874998D03*
%TD*%
%TO.C,D64*%
X17977848Y19349999D03*
X19552848Y19349999D03*
%TD*%
D11*
%TO.C,R19*%
X23500000Y-7925001D03*
X23500000Y-9575001D03*
%TD*%
D13*
%TO.C,D6*%
X-16404167Y20800000D03*
X-16404167Y19224998D03*
%TD*%
D21*
%TO.C,R22*%
X8777195Y-24159010D03*
X10427195Y-24159010D03*
%TD*%
D35*
%TO.C,C21*%
X-7110458Y-4561906D03*
X-6014442Y-3465890D03*
%TD*%
D14*
%TO.C,D26*%
X9708333Y18512499D03*
X11283333Y18512499D03*
%TD*%
D15*
%TO.C,D14*%
X-4687500Y22512500D03*
X-4687500Y24087500D03*
%TD*%
D21*
%TO.C,R36*%
X17920348Y12048420D03*
X19570348Y12048420D03*
%TD*%
D33*
%TO.C,R12*%
X8333363Y-416638D03*
X7166637Y-1583364D03*
%TD*%
D15*
%TO.C,D10*%
X-9187500Y22512500D03*
X-9187500Y24087500D03*
%TD*%
%TO.C,D35*%
X-11900000Y13874999D03*
X-11900000Y15449999D03*
%TD*%
D12*
%TO.C,R7*%
X-13500000Y3499999D03*
X-13500000Y5149999D03*
%TD*%
D21*
%TO.C,R26*%
X25425000Y22856486D03*
X27075000Y22856486D03*
%TD*%
D36*
%TO.C,C1*%
X-19672450Y-11000001D03*
X-16722448Y-11000001D03*
%TD*%
D13*
%TO.C,D27*%
X8245833Y20799999D03*
X8245833Y19224999D03*
%TD*%
D15*
%TO.C,D31*%
X-16400000Y13874999D03*
X-16400000Y15449999D03*
%TD*%
D12*
%TO.C,R37*%
X12685000Y-5325001D03*
X12685000Y-3675001D03*
%TD*%
D15*
%TO.C,D21*%
X5529166Y22512500D03*
X5529166Y24087500D03*
%TD*%
D14*
%TO.C,D30*%
X-14937500Y16124998D03*
X-13362500Y16124998D03*
%TD*%
D11*
%TO.C,R11*%
X18309365Y-17156726D03*
X18309365Y-18806726D03*
%TD*%
D37*
%TO.C,U1*%
X-17690000Y3439999D03*
X-17690000Y2559999D03*
X-16810000Y3439999D03*
X-16810000Y2559999D03*
D38*
X-18725000Y3750000D03*
X-18725000Y3249999D03*
X-18725000Y2749999D03*
X-18725000Y2249998D03*
D39*
X-18000001Y1524999D03*
X-17500000Y1524999D03*
X-17000000Y1524999D03*
X-16499999Y1524999D03*
D38*
X-15775000Y2249998D03*
X-15775000Y2749999D03*
X-15775000Y3249999D03*
X-15775000Y3750000D03*
D39*
X-16499999Y4474999D03*
X-17000000Y4474999D03*
X-17500000Y4474999D03*
X-18000001Y4474999D03*
%TD*%
D13*
%TO.C,D36*%
X-11900000Y12199999D03*
X-11900000Y10624999D03*
%TD*%
D12*
%TO.C,R6*%
X-14697450Y-19075001D03*
X-14697450Y-17425001D03*
%TD*%
D21*
%TO.C,R25*%
X18609366Y-24149010D03*
X20259366Y-24149010D03*
%TD*%
D15*
%TO.C,D28*%
X12745833Y22512500D03*
X12745833Y24087500D03*
%TD*%
D14*
%TO.C,D11*%
X-7687500Y21512499D03*
X-6112500Y21512499D03*
%TD*%
D21*
%TO.C,R24*%
X-10397804Y-24159010D03*
X-8747804Y-24159010D03*
%TD*%
%TO.C,R28*%
X25417499Y12656486D03*
X27067499Y12656486D03*
%TD*%
D36*
%TO.C,C12*%
X18066473Y-8129998D03*
X21016475Y-8129998D03*
%TD*%
D13*
%TO.C,D34*%
X-16400000Y12162498D03*
X-16400000Y10587498D03*
%TD*%
D40*
%TO.C,L1*%
X-24043186Y-19350001D03*
X-24043186Y-15649999D03*
%TD*%
D41*
%TO.C,C8*%
X-21690635Y17750000D03*
X-23240635Y17750000D03*
%TD*%
D42*
%TO.C,D1*%
X-19050000Y-600001D03*
X-15750000Y-600001D03*
%TD*%
D31*
%TO.C,C5*%
X-16447451Y-17475000D03*
X-16447451Y-19025000D03*
%TD*%
D14*
%TO.C,D18*%
X2529166Y21512499D03*
X4104166Y21512499D03*
%TD*%
D43*
%TO.C,J1*%
X-22534836Y3200000D03*
X-22534836Y2400000D03*
D44*
X-22534837Y1250000D03*
X-22534836Y250000D03*
X-22534836Y-250000D03*
X-22534837Y-1250000D03*
D43*
X-22534836Y-2400000D03*
X-22534836Y-3200000D03*
X-22534836Y-3200000D03*
X-22534836Y-2400000D03*
D44*
X-22534836Y-1750000D03*
X-22534836Y-750000D03*
X-22534836Y750000D03*
X-22534836Y1750000D03*
D43*
X-22534836Y2400000D03*
X-22534836Y3200000D03*
D45*
X-23109836Y4320000D03*
D46*
X-27289836Y4320000D03*
D45*
X-23109836Y-4320000D03*
D46*
X-27289836Y-4320000D03*
%TD*%
D15*
%TO.C,D42*%
X-4687500Y13874999D03*
X-4687500Y15449999D03*
%TD*%
D47*
%TO.C,Q1*%
X-14275000Y-8655001D03*
X-14275000Y-7385001D03*
X-14275000Y-6115001D03*
X-14275000Y-4845001D03*
X-19225000Y-8655001D03*
X-19225000Y-7385001D03*
X-19225000Y-6115001D03*
X-19225000Y-4845001D03*
%TD*%
D13*
%TO.C,D29*%
X12745833Y20837500D03*
X12745833Y19262500D03*
%TD*%
D48*
%TO.C,R32*%
X-8408376Y-3334698D03*
X-7241650Y-2167972D03*
%TD*%
D13*
%TO.C,D43*%
X-4687500Y12199999D03*
X-4687500Y10624999D03*
%TD*%
D12*
%TO.C,R39*%
X9250000Y-5325001D03*
X9250000Y-3675001D03*
%TD*%
M02*
