%TF.GenerationSoftware,KiCad,Pcbnew,10.0.1*%
%TF.CreationDate,2026-06-23T14:05:49+08:00*%
%TF.ProjectId,elec,656c6563-2e6b-4696-9361-645f70636258,v0.1*%
%TF.SameCoordinates,Original*%
%TF.FileFunction,Soldermask,Top*%
%TF.FilePolarity,Negative*%
%FSLAX46Y46*%
G04 Gerber Fmt 4.6, Leading zero omitted, Abs format (unit mm)*
G04 Created by KiCad (PCBNEW 10.0.1) date 2026-06-23 14:05:49*
%MOMM*%
%LPD*%
G01*
G04 APERTURE LIST*
G04 Aperture macros list*
%AMRoundRect*
0 Rectangle with rounded corners*
0 $1 Rounding radius*
0 $2 $3 $4 $5 $6 $7 $8 $9 X,Y pos of 4 corners*
0 Add a 4 corners polygon primitive as box body*
4,1,4,$2,$3,$4,$5,$6,$7,$8,$9,$2,$3,0*
0 Add four circle primitives for the rounded corners*
1,1,$1+$1,$2,$3*
1,1,$1+$1,$4,$5*
1,1,$1+$1,$6,$7*
1,1,$1+$1,$8,$9*
0 Add four rect primitives between the rounded corners*
20,1,$1+$1,$2,$3,$4,$5,0*
20,1,$1+$1,$4,$5,$6,$7,0*
20,1,$1+$1,$6,$7,$8,$9,0*
20,1,$1+$1,$8,$9,$2,$3,0*%
G04 Aperture macros list end*
%ADD10C,0.010000*%
%ADD11RoundRect,0.200000X-0.275000X0.200000X-0.275000X-0.200000X0.275000X-0.200000X0.275000X0.200000X0*%
%ADD12RoundRect,0.200000X0.275000X-0.200000X0.275000X0.200000X-0.275000X0.200000X-0.275000X-0.200000X0*%
%ADD13RoundRect,0.218750X-0.256250X0.218750X-0.256250X-0.218750X0.256250X-0.218750X0.256250X0.218750X0*%
%ADD14RoundRect,0.218750X-0.218750X-0.256250X0.218750X-0.256250X0.218750X0.256250X-0.218750X0.256250X0*%
%ADD15RoundRect,0.218750X0.256250X-0.218750X0.256250X0.218750X-0.256250X0.218750X-0.256250X-0.218750X0*%
%ADD16RoundRect,0.050000X0.050000X-0.362500X0.050000X0.362500X-0.050000X0.362500X-0.050000X-0.362500X0*%
%ADD17RoundRect,0.050000X0.362500X-0.050000X0.362500X0.050000X-0.362500X0.050000X-0.362500X-0.050000X0*%
%ADD18R,2.300000X2.300000*%
%ADD19RoundRect,0.125000X0.353553X0.530330X-0.530330X-0.353553X-0.353553X-0.530330X0.530330X0.353553X0*%
%ADD20RoundRect,0.125000X-0.353553X0.530330X-0.530330X0.353553X0.353553X-0.530330X0.530330X-0.353553X0*%
%ADD21RoundRect,0.250001X0.949999X-0.949999X0.949999X0.949999X-0.949999X0.949999X-0.949999X-0.949999X0*%
%ADD22C,2.400000*%
%ADD23RoundRect,0.200000X-0.200000X-0.275000X0.200000X-0.275000X0.200000X0.275000X-0.200000X0.275000X0*%
%ADD24C,2.100000*%
%ADD25C,1.750000*%
%ADD26RoundRect,0.225000X-0.335876X-0.017678X-0.017678X-0.335876X0.335876X0.017678X0.017678X0.335876X0*%
%ADD27RoundRect,0.250000X1.425000X-0.362500X1.425000X0.362500X-1.425000X0.362500X-1.425000X-0.362500X0*%
%ADD28RoundRect,0.250000X0.325000X0.650000X-0.325000X0.650000X-0.325000X-0.650000X0.325000X-0.650000X0*%
%ADD29R,1.700000X1.700000*%
%ADD30C,1.700000*%
%ADD31R,0.800000X2.000000*%
%ADD32R,1.003300X0.457200*%
%ADD33R,5.400000X2.900000*%
%ADD34RoundRect,0.225000X-0.250000X0.225000X-0.250000X-0.225000X0.250000X-0.225000X0.250000X0.225000X0*%
%ADD35RoundRect,0.225000X0.335876X0.017678X0.017678X0.335876X-0.335876X-0.017678X-0.017678X-0.335876X0*%
%ADD36RoundRect,0.200000X-0.053033X0.335876X-0.335876X0.053033X0.053033X-0.335876X0.335876X-0.053033X0*%
%ADD37C,0.700000*%
%ADD38C,4.400000*%
%ADD39RoundRect,0.225000X0.250000X-0.225000X0.250000X0.225000X-0.250000X0.225000X-0.250000X-0.225000X0*%
%ADD40RoundRect,0.225000X0.017678X-0.335876X0.335876X-0.017678X-0.017678X0.335876X-0.335876X0.017678X0*%
%ADD41RoundRect,0.250000X-0.325000X-0.650000X0.325000X-0.650000X0.325000X0.650000X-0.325000X0.650000X0*%
%ADD42RoundRect,0.062500X-0.312500X-0.062500X0.312500X-0.062500X0.312500X0.062500X-0.312500X0.062500X0*%
%ADD43RoundRect,0.062500X-0.062500X-0.312500X0.062500X-0.312500X0.062500X0.312500X-0.062500X0.312500X0*%
%ADD44R,1.750000X1.750000*%
%ADD45RoundRect,0.249999X1.850001X-0.450001X1.850001X0.450001X-1.850001X0.450001X-1.850001X-0.450001X0*%
%ADD46RoundRect,0.225000X0.225000X0.250000X-0.225000X0.250000X-0.225000X-0.250000X0.225000X-0.250000X0*%
%ADD47RoundRect,0.225000X-0.225000X-0.375000X0.225000X-0.375000X0.225000X0.375000X-0.225000X0.375000X0*%
%ADD48RoundRect,0.150000X-0.425000X0.150000X-0.425000X-0.150000X0.425000X-0.150000X0.425000X0.150000X0*%
%ADD49RoundRect,0.075000X-0.500000X0.075000X-0.500000X-0.075000X0.500000X-0.075000X0.500000X0.075000X0*%
%ADD50O,2.100000X1.000000*%
%ADD51O,1.800000X1.000000*%
%ADD52RoundRect,0.150000X-0.825000X-0.150000X0.825000X-0.150000X0.825000X0.150000X-0.825000X0.150000X0*%
%ADD53RoundRect,0.200000X0.053033X-0.335876X0.335876X-0.053033X-0.053033X0.335876X-0.335876X0.053033X0*%
G04 APERTURE END LIST*
D10*
%TO.C,U4*%
X18129472Y-11605998D02*
X18135472Y-11605998D01*
X18141472Y-11607998D01*
X18147472Y-11608998D01*
X18153472Y-11610998D01*
X18159472Y-11612998D01*
X18165472Y-11614998D01*
X18170472Y-11617998D01*
X18176472Y-11620998D01*
X18181472Y-11623998D01*
X18187472Y-11627998D01*
X18192472Y-11631998D01*
X18196472Y-11635998D01*
X18201472Y-11639998D01*
X18205472Y-11644998D01*
X18209473Y-11648998D01*
X18213473Y-11653998D01*
X18217472Y-11659999D01*
X18220472Y-11664998D01*
X18223472Y-11670998D01*
X18226472Y-11675998D01*
X18228472Y-11681998D01*
X18230472Y-11687998D01*
X18232472Y-11693998D01*
X18233472Y-11699998D01*
X18235471Y-11705998D01*
X18235472Y-11711998D01*
X18236472Y-11718998D01*
X18236472Y-11724999D01*
X18236472Y-11874999D01*
X18236472Y-11880998D01*
X18235472Y-11887998D01*
X18235472Y-11893999D01*
X18233472Y-11899998D01*
X18232472Y-11905997D01*
X18230472Y-11911998D01*
X18228472Y-11917998D01*
X18226472Y-11923998D01*
X18223472Y-11928998D01*
X18220472Y-11934998D01*
X18217471Y-11939998D01*
X18213472Y-11945998D01*
X18209472Y-11950998D01*
X18205472Y-11954998D01*
X18201472Y-11959998D01*
X18196472Y-11963998D01*
X18192472Y-11967998D01*
X18187472Y-11971998D01*
X18181472Y-11975998D01*
X18176472Y-11978998D01*
X18170472Y-11981998D01*
X18165472Y-11984998D01*
X18159472Y-11986998D01*
X18153472Y-11988998D01*
X18147472Y-11990997D01*
X18141472Y-11991998D01*
X18135472Y-11993998D01*
X18129472Y-11993998D01*
X18122472Y-11994998D01*
X18116472Y-11994998D01*
X17616472Y-11994998D01*
X17610472Y-11994998D01*
X17603472Y-11993998D01*
X17597472Y-11993998D01*
X17591472Y-11991998D01*
X17585472Y-11990997D01*
X17579472Y-11988998D01*
X17573472Y-11986998D01*
X17567472Y-11984998D01*
X17562472Y-11981998D01*
X17556472Y-11978998D01*
X17551472Y-11975998D01*
X17545472Y-11971998D01*
X17540472Y-11967998D01*
X17536472Y-11963998D01*
X17531472Y-11959998D01*
X17527472Y-11954998D01*
X17523472Y-11950998D01*
X17519472Y-11945998D01*
X17515473Y-11939998D01*
X17512472Y-11934998D01*
X17509472Y-11928998D01*
X17506472Y-11923998D01*
X17504472Y-11917998D01*
X17502472Y-11911998D01*
X17500472Y-11905997D01*
X17499472Y-11899998D01*
X17497473Y-11893998D01*
X17497472Y-11887998D01*
X17496472Y-11880998D01*
X17496472Y-11874999D01*
X17496472Y-11724999D01*
X17496472Y-11718998D01*
X17497472Y-11711998D01*
X17497473Y-11705998D01*
X17499472Y-11699998D01*
X17500472Y-11693998D01*
X17502472Y-11687998D01*
X17504472Y-11681998D01*
X17506472Y-11675998D01*
X17509472Y-11670998D01*
X17512472Y-11664998D01*
X17515472Y-11659999D01*
X17519471Y-11653998D01*
X17523471Y-11648998D01*
X17527472Y-11644998D01*
X17531472Y-11639998D01*
X17536472Y-11635998D01*
X17540472Y-11631998D01*
X17545472Y-11627998D01*
X17551472Y-11623998D01*
X17556472Y-11620998D01*
X17562472Y-11617998D01*
X17567472Y-11614998D01*
X17573472Y-11612998D01*
X17579471Y-11610998D01*
X17585472Y-11608998D01*
X17591472Y-11607998D01*
X17597472Y-11605998D01*
X17603472Y-11605998D01*
X17610472Y-11604998D01*
X17616472Y-11604998D01*
X18116472Y-11604998D01*
X18122472Y-11604998D01*
X18129472Y-11605998D01*
G36*
X18129472Y-11605998D02*
G01*
X18135472Y-11605998D01*
X18141472Y-11607998D01*
X18147472Y-11608998D01*
X18153472Y-11610998D01*
X18159472Y-11612998D01*
X18165472Y-11614998D01*
X18170472Y-11617998D01*
X18176472Y-11620998D01*
X18181472Y-11623998D01*
X18187472Y-11627998D01*
X18192472Y-11631998D01*
X18196472Y-11635998D01*
X18201472Y-11639998D01*
X18205472Y-11644998D01*
X18209473Y-11648998D01*
X18213473Y-11653998D01*
X18217472Y-11659999D01*
X18220472Y-11664998D01*
X18223472Y-11670998D01*
X18226472Y-11675998D01*
X18228472Y-11681998D01*
X18230472Y-11687998D01*
X18232472Y-11693998D01*
X18233472Y-11699998D01*
X18235471Y-11705998D01*
X18235472Y-11711998D01*
X18236472Y-11718998D01*
X18236472Y-11724999D01*
X18236472Y-11874999D01*
X18236472Y-11880998D01*
X18235472Y-11887998D01*
X18235472Y-11893999D01*
X18233472Y-11899998D01*
X18232472Y-11905997D01*
X18230472Y-11911998D01*
X18228472Y-11917998D01*
X18226472Y-11923998D01*
X18223472Y-11928998D01*
X18220472Y-11934998D01*
X18217471Y-11939998D01*
X18213472Y-11945998D01*
X18209472Y-11950998D01*
X18205472Y-11954998D01*
X18201472Y-11959998D01*
X18196472Y-11963998D01*
X18192472Y-11967998D01*
X18187472Y-11971998D01*
X18181472Y-11975998D01*
X18176472Y-11978998D01*
X18170472Y-11981998D01*
X18165472Y-11984998D01*
X18159472Y-11986998D01*
X18153472Y-11988998D01*
X18147472Y-11990997D01*
X18141472Y-11991998D01*
X18135472Y-11993998D01*
X18129472Y-11993998D01*
X18122472Y-11994998D01*
X18116472Y-11994998D01*
X17616472Y-11994998D01*
X17610472Y-11994998D01*
X17603472Y-11993998D01*
X17597472Y-11993998D01*
X17591472Y-11991998D01*
X17585472Y-11990997D01*
X17579472Y-11988998D01*
X17573472Y-11986998D01*
X17567472Y-11984998D01*
X17562472Y-11981998D01*
X17556472Y-11978998D01*
X17551472Y-11975998D01*
X17545472Y-11971998D01*
X17540472Y-11967998D01*
X17536472Y-11963998D01*
X17531472Y-11959998D01*
X17527472Y-11954998D01*
X17523472Y-11950998D01*
X17519472Y-11945998D01*
X17515473Y-11939998D01*
X17512472Y-11934998D01*
X17509472Y-11928998D01*
X17506472Y-11923998D01*
X17504472Y-11917998D01*
X17502472Y-11911998D01*
X17500472Y-11905997D01*
X17499472Y-11899998D01*
X17497473Y-11893998D01*
X17497472Y-11887998D01*
X17496472Y-11880998D01*
X17496472Y-11874999D01*
X17496472Y-11724999D01*
X17496472Y-11718998D01*
X17497472Y-11711998D01*
X17497473Y-11705998D01*
X17499472Y-11699998D01*
X17500472Y-11693998D01*
X17502472Y-11687998D01*
X17504472Y-11681998D01*
X17506472Y-11675998D01*
X17509472Y-11670998D01*
X17512472Y-11664998D01*
X17515472Y-11659999D01*
X17519471Y-11653998D01*
X17523471Y-11648998D01*
X17527472Y-11644998D01*
X17531472Y-11639998D01*
X17536472Y-11635998D01*
X17540472Y-11631998D01*
X17545472Y-11627998D01*
X17551472Y-11623998D01*
X17556472Y-11620998D01*
X17562472Y-11617998D01*
X17567472Y-11614998D01*
X17573472Y-11612998D01*
X17579471Y-11610998D01*
X17585472Y-11608998D01*
X17591472Y-11607998D01*
X17597472Y-11605998D01*
X17603472Y-11605998D01*
X17610472Y-11604998D01*
X17616472Y-11604998D01*
X18116472Y-11604998D01*
X18122472Y-11604998D01*
X18129472Y-11605998D01*
G37*
X18129472Y-14685998D02*
X18135472Y-14685998D01*
X18141472Y-14687998D01*
X18147472Y-14688999D01*
X18153472Y-14690998D01*
X18159472Y-14692998D01*
X18165472Y-14694998D01*
X18170472Y-14697998D01*
X18176472Y-14700998D01*
X18181472Y-14703998D01*
X18187472Y-14707998D01*
X18192472Y-14711998D01*
X18196472Y-14715998D01*
X18201472Y-14719998D01*
X18205472Y-14724998D01*
X18209472Y-14728998D01*
X18213472Y-14733998D01*
X18217471Y-14739998D01*
X18220472Y-14744998D01*
X18223472Y-14750998D01*
X18226472Y-14755998D01*
X18228472Y-14761998D01*
X18230472Y-14767998D01*
X18232472Y-14773999D01*
X18233472Y-14779998D01*
X18235472Y-14785997D01*
X18235472Y-14791998D01*
X18236472Y-14798998D01*
X18236472Y-14804997D01*
X18236472Y-14954997D01*
X18236472Y-14960998D01*
X18235472Y-14967998D01*
X18235471Y-14973998D01*
X18233472Y-14979998D01*
X18232472Y-14985998D01*
X18230472Y-14991998D01*
X18228472Y-14997998D01*
X18226472Y-15003998D01*
X18223472Y-15008998D01*
X18220472Y-15014998D01*
X18217472Y-15019997D01*
X18213473Y-15025998D01*
X18209473Y-15030998D01*
X18205472Y-15034998D01*
X18201472Y-15039998D01*
X18196472Y-15043998D01*
X18192472Y-15047998D01*
X18187472Y-15051998D01*
X18181472Y-15055998D01*
X18176472Y-15058998D01*
X18170472Y-15061998D01*
X18165472Y-15064998D01*
X18159472Y-15066998D01*
X18153472Y-15068998D01*
X18147472Y-15070998D01*
X18141472Y-15071998D01*
X18135472Y-15073998D01*
X18129472Y-15073998D01*
X18122472Y-15074998D01*
X18116472Y-15074998D01*
X17616472Y-15074998D01*
X17610472Y-15074998D01*
X17603472Y-15073998D01*
X17597472Y-15073998D01*
X17591472Y-15071998D01*
X17585472Y-15070998D01*
X17579471Y-15068998D01*
X17573472Y-15066998D01*
X17567472Y-15064998D01*
X17562472Y-15061998D01*
X17556472Y-15058998D01*
X17551472Y-15055998D01*
X17545472Y-15051998D01*
X17540472Y-15047998D01*
X17536472Y-15043998D01*
X17531472Y-15039998D01*
X17527472Y-15034998D01*
X17523471Y-15030998D01*
X17519471Y-15025998D01*
X17515472Y-15019997D01*
X17512472Y-15014998D01*
X17509472Y-15008998D01*
X17506472Y-15003998D01*
X17504472Y-14997998D01*
X17502472Y-14991998D01*
X17500472Y-14985998D01*
X17499472Y-14979998D01*
X17497473Y-14973998D01*
X17497472Y-14967998D01*
X17496472Y-14960998D01*
X17496472Y-14954997D01*
X17496472Y-14804997D01*
X17496472Y-14798998D01*
X17497472Y-14791998D01*
X17497473Y-14785998D01*
X17499472Y-14779998D01*
X17500472Y-14773999D01*
X17502472Y-14767998D01*
X17504472Y-14761998D01*
X17506472Y-14755998D01*
X17509472Y-14750998D01*
X17512472Y-14744998D01*
X17515473Y-14739998D01*
X17519472Y-14733998D01*
X17523472Y-14728998D01*
X17527472Y-14724998D01*
X17531472Y-14719998D01*
X17536472Y-14715998D01*
X17540472Y-14711998D01*
X17545472Y-14707998D01*
X17551472Y-14703998D01*
X17556472Y-14700998D01*
X17562472Y-14697998D01*
X17567472Y-14694998D01*
X17573472Y-14692998D01*
X17579472Y-14690998D01*
X17585472Y-14688999D01*
X17591472Y-14687998D01*
X17597472Y-14685998D01*
X17603472Y-14685998D01*
X17610472Y-14684998D01*
X17616472Y-14684998D01*
X18116472Y-14684998D01*
X18122472Y-14684998D01*
X18129472Y-14685998D01*
G36*
X18129472Y-14685998D02*
G01*
X18135472Y-14685998D01*
X18141472Y-14687998D01*
X18147472Y-14688999D01*
X18153472Y-14690998D01*
X18159472Y-14692998D01*
X18165472Y-14694998D01*
X18170472Y-14697998D01*
X18176472Y-14700998D01*
X18181472Y-14703998D01*
X18187472Y-14707998D01*
X18192472Y-14711998D01*
X18196472Y-14715998D01*
X18201472Y-14719998D01*
X18205472Y-14724998D01*
X18209472Y-14728998D01*
X18213472Y-14733998D01*
X18217471Y-14739998D01*
X18220472Y-14744998D01*
X18223472Y-14750998D01*
X18226472Y-14755998D01*
X18228472Y-14761998D01*
X18230472Y-14767998D01*
X18232472Y-14773999D01*
X18233472Y-14779998D01*
X18235472Y-14785997D01*
X18235472Y-14791998D01*
X18236472Y-14798998D01*
X18236472Y-14804997D01*
X18236472Y-14954997D01*
X18236472Y-14960998D01*
X18235472Y-14967998D01*
X18235471Y-14973998D01*
X18233472Y-14979998D01*
X18232472Y-14985998D01*
X18230472Y-14991998D01*
X18228472Y-14997998D01*
X18226472Y-15003998D01*
X18223472Y-15008998D01*
X18220472Y-15014998D01*
X18217472Y-15019997D01*
X18213473Y-15025998D01*
X18209473Y-15030998D01*
X18205472Y-15034998D01*
X18201472Y-15039998D01*
X18196472Y-15043998D01*
X18192472Y-15047998D01*
X18187472Y-15051998D01*
X18181472Y-15055998D01*
X18176472Y-15058998D01*
X18170472Y-15061998D01*
X18165472Y-15064998D01*
X18159472Y-15066998D01*
X18153472Y-15068998D01*
X18147472Y-15070998D01*
X18141472Y-15071998D01*
X18135472Y-15073998D01*
X18129472Y-15073998D01*
X18122472Y-15074998D01*
X18116472Y-15074998D01*
X17616472Y-15074998D01*
X17610472Y-15074998D01*
X17603472Y-15073998D01*
X17597472Y-15073998D01*
X17591472Y-15071998D01*
X17585472Y-15070998D01*
X17579471Y-15068998D01*
X17573472Y-15066998D01*
X17567472Y-15064998D01*
X17562472Y-15061998D01*
X17556472Y-15058998D01*
X17551472Y-15055998D01*
X17545472Y-15051998D01*
X17540472Y-15047998D01*
X17536472Y-15043998D01*
X17531472Y-15039998D01*
X17527472Y-15034998D01*
X17523471Y-15030998D01*
X17519471Y-15025998D01*
X17515472Y-15019997D01*
X17512472Y-15014998D01*
X17509472Y-15008998D01*
X17506472Y-15003998D01*
X17504472Y-14997998D01*
X17502472Y-14991998D01*
X17500472Y-14985998D01*
X17499472Y-14979998D01*
X17497473Y-14973998D01*
X17497472Y-14967998D01*
X17496472Y-14960998D01*
X17496472Y-14954997D01*
X17496472Y-14804997D01*
X17496472Y-14798998D01*
X17497472Y-14791998D01*
X17497473Y-14785998D01*
X17499472Y-14779998D01*
X17500472Y-14773999D01*
X17502472Y-14767998D01*
X17504472Y-14761998D01*
X17506472Y-14755998D01*
X17509472Y-14750998D01*
X17512472Y-14744998D01*
X17515473Y-14739998D01*
X17519472Y-14733998D01*
X17523472Y-14728998D01*
X17527472Y-14724998D01*
X17531472Y-14719998D01*
X17536472Y-14715998D01*
X17540472Y-14711998D01*
X17545472Y-14707998D01*
X17551472Y-14703998D01*
X17556472Y-14700998D01*
X17562472Y-14697998D01*
X17567472Y-14694998D01*
X17573472Y-14692998D01*
X17579472Y-14690998D01*
X17585472Y-14688999D01*
X17591472Y-14687998D01*
X17597472Y-14685998D01*
X17603472Y-14685998D01*
X17610472Y-14684998D01*
X17616472Y-14684998D01*
X18116472Y-14684998D01*
X18122472Y-14684998D01*
X18129472Y-14685998D01*
G37*
X18179471Y-11105998D02*
X18185472Y-11105998D01*
X18191472Y-11107998D01*
X18197472Y-11108998D01*
X18203472Y-11110997D01*
X18209472Y-11112998D01*
X18215472Y-11114998D01*
X18220472Y-11117998D01*
X18226472Y-11120998D01*
X18231472Y-11123998D01*
X18237472Y-11127998D01*
X18242472Y-11131998D01*
X18246472Y-11135998D01*
X18251473Y-11139998D01*
X18255472Y-11144999D01*
X18259472Y-11148999D01*
X18263471Y-11153998D01*
X18267472Y-11159998D01*
X18270472Y-11164998D01*
X18273472Y-11170997D01*
X18276472Y-11175998D01*
X18278472Y-11181998D01*
X18280472Y-11187998D01*
X18282472Y-11193998D01*
X18283473Y-11199998D01*
X18285472Y-11205998D01*
X18285472Y-11211998D01*
X18286472Y-11218998D01*
X18286472Y-11224998D01*
X18286472Y-11374998D01*
X18286472Y-11380998D01*
X18285472Y-11387998D01*
X18285472Y-11393998D01*
X18283472Y-11399998D01*
X18282471Y-11405998D01*
X18280472Y-11411998D01*
X18278472Y-11417998D01*
X18276472Y-11423998D01*
X18273472Y-11428998D01*
X18270472Y-11434998D01*
X18267472Y-11439998D01*
X18263472Y-11445998D01*
X18259472Y-11450998D01*
X18255472Y-11454998D01*
X18251472Y-11459998D01*
X18246472Y-11463998D01*
X18242472Y-11467998D01*
X18237473Y-11471998D01*
X18231472Y-11475997D01*
X18226472Y-11478998D01*
X18220472Y-11481998D01*
X18215472Y-11484998D01*
X18209472Y-11486998D01*
X18203472Y-11488998D01*
X18197472Y-11490998D01*
X18191472Y-11491998D01*
X18185472Y-11493997D01*
X18179472Y-11493998D01*
X18172472Y-11494998D01*
X18166473Y-11494998D01*
X17616472Y-11494998D01*
X17610472Y-11494998D01*
X17603472Y-11493997D01*
X17597472Y-11493998D01*
X17591472Y-11491998D01*
X17585472Y-11490998D01*
X17579472Y-11488998D01*
X17573472Y-11486998D01*
X17567472Y-11484997D01*
X17562472Y-11481999D01*
X17556472Y-11478998D01*
X17551472Y-11475998D01*
X17545472Y-11471998D01*
X17540472Y-11467998D01*
X17536472Y-11463998D01*
X17531472Y-11459998D01*
X17527472Y-11454998D01*
X17523472Y-11450998D01*
X17519472Y-11445998D01*
X17515472Y-11439998D01*
X17512472Y-11434998D01*
X17509471Y-11428998D01*
X17506472Y-11423997D01*
X17504472Y-11417998D01*
X17502473Y-11411998D01*
X17500472Y-11405998D01*
X17499472Y-11399998D01*
X17497472Y-11393998D01*
X17497473Y-11387998D01*
X17496472Y-11380998D01*
X17496472Y-11374998D01*
X17496472Y-11224998D01*
X17496472Y-11218999D01*
X17497472Y-11211998D01*
X17497472Y-11205998D01*
X17499472Y-11199998D01*
X17500472Y-11193998D01*
X17502472Y-11187998D01*
X17504472Y-11181998D01*
X17506472Y-11175998D01*
X17509472Y-11170998D01*
X17512472Y-11164998D01*
X17515472Y-11159998D01*
X17519472Y-11153998D01*
X17523472Y-11148998D01*
X17527472Y-11144998D01*
X17531472Y-11139998D01*
X17536472Y-11135998D01*
X17540472Y-11131998D01*
X17545472Y-11127998D01*
X17551471Y-11123998D01*
X17556471Y-11120998D01*
X17562472Y-11117998D01*
X17567472Y-11114998D01*
X17573472Y-11112998D01*
X17579472Y-11110998D01*
X17585472Y-11108998D01*
X17591472Y-11107998D01*
X17597472Y-11105998D01*
X17603472Y-11105998D01*
X17610472Y-11104998D01*
X17616472Y-11104998D01*
X18166472Y-11104998D01*
X18172472Y-11104998D01*
X18179471Y-11105998D01*
G36*
X18179471Y-11105998D02*
G01*
X18185472Y-11105998D01*
X18191472Y-11107998D01*
X18197472Y-11108998D01*
X18203472Y-11110997D01*
X18209472Y-11112998D01*
X18215472Y-11114998D01*
X18220472Y-11117998D01*
X18226472Y-11120998D01*
X18231472Y-11123998D01*
X18237472Y-11127998D01*
X18242472Y-11131998D01*
X18246472Y-11135998D01*
X18251473Y-11139998D01*
X18255472Y-11144999D01*
X18259472Y-11148999D01*
X18263471Y-11153998D01*
X18267472Y-11159998D01*
X18270472Y-11164998D01*
X18273472Y-11170997D01*
X18276472Y-11175998D01*
X18278472Y-11181998D01*
X18280472Y-11187998D01*
X18282472Y-11193998D01*
X18283473Y-11199998D01*
X18285472Y-11205998D01*
X18285472Y-11211998D01*
X18286472Y-11218998D01*
X18286472Y-11224998D01*
X18286472Y-11374998D01*
X18286472Y-11380998D01*
X18285472Y-11387998D01*
X18285472Y-11393998D01*
X18283472Y-11399998D01*
X18282471Y-11405998D01*
X18280472Y-11411998D01*
X18278472Y-11417998D01*
X18276472Y-11423998D01*
X18273472Y-11428998D01*
X18270472Y-11434998D01*
X18267472Y-11439998D01*
X18263472Y-11445998D01*
X18259472Y-11450998D01*
X18255472Y-11454998D01*
X18251472Y-11459998D01*
X18246472Y-11463998D01*
X18242472Y-11467998D01*
X18237473Y-11471998D01*
X18231472Y-11475997D01*
X18226472Y-11478998D01*
X18220472Y-11481998D01*
X18215472Y-11484998D01*
X18209472Y-11486998D01*
X18203472Y-11488998D01*
X18197472Y-11490998D01*
X18191472Y-11491998D01*
X18185472Y-11493997D01*
X18179472Y-11493998D01*
X18172472Y-11494998D01*
X18166473Y-11494998D01*
X17616472Y-11494998D01*
X17610472Y-11494998D01*
X17603472Y-11493997D01*
X17597472Y-11493998D01*
X17591472Y-11491998D01*
X17585472Y-11490998D01*
X17579472Y-11488998D01*
X17573472Y-11486998D01*
X17567472Y-11484997D01*
X17562472Y-11481999D01*
X17556472Y-11478998D01*
X17551472Y-11475998D01*
X17545472Y-11471998D01*
X17540472Y-11467998D01*
X17536472Y-11463998D01*
X17531472Y-11459998D01*
X17527472Y-11454998D01*
X17523472Y-11450998D01*
X17519472Y-11445998D01*
X17515472Y-11439998D01*
X17512472Y-11434998D01*
X17509471Y-11428998D01*
X17506472Y-11423997D01*
X17504472Y-11417998D01*
X17502473Y-11411998D01*
X17500472Y-11405998D01*
X17499472Y-11399998D01*
X17497472Y-11393998D01*
X17497473Y-11387998D01*
X17496472Y-11380998D01*
X17496472Y-11374998D01*
X17496472Y-11224998D01*
X17496472Y-11218999D01*
X17497472Y-11211998D01*
X17497472Y-11205998D01*
X17499472Y-11199998D01*
X17500472Y-11193998D01*
X17502472Y-11187998D01*
X17504472Y-11181998D01*
X17506472Y-11175998D01*
X17509472Y-11170998D01*
X17512472Y-11164998D01*
X17515472Y-11159998D01*
X17519472Y-11153998D01*
X17523472Y-11148998D01*
X17527472Y-11144998D01*
X17531472Y-11139998D01*
X17536472Y-11135998D01*
X17540472Y-11131998D01*
X17545472Y-11127998D01*
X17551471Y-11123998D01*
X17556471Y-11120998D01*
X17562472Y-11117998D01*
X17567472Y-11114998D01*
X17573472Y-11112998D01*
X17579472Y-11110998D01*
X17585472Y-11108998D01*
X17591472Y-11107998D01*
X17597472Y-11105998D01*
X17603472Y-11105998D01*
X17610472Y-11104998D01*
X17616472Y-11104998D01*
X18166472Y-11104998D01*
X18172472Y-11104998D01*
X18179471Y-11105998D01*
G37*
X18179472Y-15185998D02*
X18185472Y-15185999D01*
X18191472Y-15187998D01*
X18197472Y-15188998D01*
X18203472Y-15190998D01*
X18209472Y-15192998D01*
X18215472Y-15194998D01*
X18220472Y-15197998D01*
X18226472Y-15200998D01*
X18231472Y-15203999D01*
X18237473Y-15207998D01*
X18242472Y-15211998D01*
X18246472Y-15215998D01*
X18251472Y-15219998D01*
X18255472Y-15224998D01*
X18259472Y-15228998D01*
X18263472Y-15233998D01*
X18267472Y-15239998D01*
X18270472Y-15244998D01*
X18273472Y-15250998D01*
X18276472Y-15255998D01*
X18278472Y-15261998D01*
X18280472Y-15267998D01*
X18282471Y-15273998D01*
X18283472Y-15279998D01*
X18285472Y-15285998D01*
X18285472Y-15291998D01*
X18286472Y-15298998D01*
X18286472Y-15304998D01*
X18286472Y-15454998D01*
X18286472Y-15460998D01*
X18285472Y-15467998D01*
X18285472Y-15473998D01*
X18283473Y-15479998D01*
X18282472Y-15485998D01*
X18280472Y-15491998D01*
X18278472Y-15497998D01*
X18276472Y-15503998D01*
X18273472Y-15508999D01*
X18270472Y-15514998D01*
X18267472Y-15519998D01*
X18263471Y-15525998D01*
X18259472Y-15530997D01*
X18255472Y-15534997D01*
X18251473Y-15539998D01*
X18246472Y-15543998D01*
X18242472Y-15547998D01*
X18237472Y-15551998D01*
X18231472Y-15555998D01*
X18226472Y-15558998D01*
X18220472Y-15561998D01*
X18215472Y-15564998D01*
X18209472Y-15566998D01*
X18203472Y-15568999D01*
X18197472Y-15570998D01*
X18191472Y-15571998D01*
X18185472Y-15573998D01*
X18179471Y-15573998D01*
X18172472Y-15574998D01*
X18166472Y-15574998D01*
X17616472Y-15574998D01*
X17610472Y-15574998D01*
X17603472Y-15573998D01*
X17597472Y-15573998D01*
X17591472Y-15571998D01*
X17585472Y-15570998D01*
X17579472Y-15568998D01*
X17573472Y-15566998D01*
X17567472Y-15564998D01*
X17562472Y-15561998D01*
X17556471Y-15558998D01*
X17551471Y-15555998D01*
X17545472Y-15551998D01*
X17540472Y-15547998D01*
X17536472Y-15543998D01*
X17531472Y-15539998D01*
X17527472Y-15534998D01*
X17523472Y-15530998D01*
X17519472Y-15525998D01*
X17515472Y-15519998D01*
X17512472Y-15514998D01*
X17509472Y-15508998D01*
X17506472Y-15503998D01*
X17504472Y-15497998D01*
X17502472Y-15491998D01*
X17500472Y-15485998D01*
X17499472Y-15479998D01*
X17497472Y-15473998D01*
X17497472Y-15467998D01*
X17496472Y-15460997D01*
X17496472Y-15454998D01*
X17496472Y-15304998D01*
X17496472Y-15298998D01*
X17497473Y-15291998D01*
X17497472Y-15285998D01*
X17499472Y-15279998D01*
X17500472Y-15273998D01*
X17502473Y-15267998D01*
X17504472Y-15261998D01*
X17506472Y-15255999D01*
X17509471Y-15250998D01*
X17512472Y-15244998D01*
X17515472Y-15239998D01*
X17519472Y-15233998D01*
X17523472Y-15228998D01*
X17527472Y-15224998D01*
X17531472Y-15219998D01*
X17536472Y-15215998D01*
X17540472Y-15211998D01*
X17545472Y-15207998D01*
X17551472Y-15203998D01*
X17556472Y-15200998D01*
X17562472Y-15197997D01*
X17567472Y-15194999D01*
X17573472Y-15192998D01*
X17579472Y-15190998D01*
X17585472Y-15188998D01*
X17591472Y-15187998D01*
X17597472Y-15185998D01*
X17603472Y-15185999D01*
X17610472Y-15184998D01*
X17616472Y-15184998D01*
X18166473Y-15184998D01*
X18172472Y-15184998D01*
X18179472Y-15185998D01*
G36*
X18179472Y-15185998D02*
G01*
X18185472Y-15185999D01*
X18191472Y-15187998D01*
X18197472Y-15188998D01*
X18203472Y-15190998D01*
X18209472Y-15192998D01*
X18215472Y-15194998D01*
X18220472Y-15197998D01*
X18226472Y-15200998D01*
X18231472Y-15203999D01*
X18237473Y-15207998D01*
X18242472Y-15211998D01*
X18246472Y-15215998D01*
X18251472Y-15219998D01*
X18255472Y-15224998D01*
X18259472Y-15228998D01*
X18263472Y-15233998D01*
X18267472Y-15239998D01*
X18270472Y-15244998D01*
X18273472Y-15250998D01*
X18276472Y-15255998D01*
X18278472Y-15261998D01*
X18280472Y-15267998D01*
X18282471Y-15273998D01*
X18283472Y-15279998D01*
X18285472Y-15285998D01*
X18285472Y-15291998D01*
X18286472Y-15298998D01*
X18286472Y-15304998D01*
X18286472Y-15454998D01*
X18286472Y-15460998D01*
X18285472Y-15467998D01*
X18285472Y-15473998D01*
X18283473Y-15479998D01*
X18282472Y-15485998D01*
X18280472Y-15491998D01*
X18278472Y-15497998D01*
X18276472Y-15503998D01*
X18273472Y-15508999D01*
X18270472Y-15514998D01*
X18267472Y-15519998D01*
X18263471Y-15525998D01*
X18259472Y-15530997D01*
X18255472Y-15534997D01*
X18251473Y-15539998D01*
X18246472Y-15543998D01*
X18242472Y-15547998D01*
X18237472Y-15551998D01*
X18231472Y-15555998D01*
X18226472Y-15558998D01*
X18220472Y-15561998D01*
X18215472Y-15564998D01*
X18209472Y-15566998D01*
X18203472Y-15568999D01*
X18197472Y-15570998D01*
X18191472Y-15571998D01*
X18185472Y-15573998D01*
X18179471Y-15573998D01*
X18172472Y-15574998D01*
X18166472Y-15574998D01*
X17616472Y-15574998D01*
X17610472Y-15574998D01*
X17603472Y-15573998D01*
X17597472Y-15573998D01*
X17591472Y-15571998D01*
X17585472Y-15570998D01*
X17579472Y-15568998D01*
X17573472Y-15566998D01*
X17567472Y-15564998D01*
X17562472Y-15561998D01*
X17556471Y-15558998D01*
X17551471Y-15555998D01*
X17545472Y-15551998D01*
X17540472Y-15547998D01*
X17536472Y-15543998D01*
X17531472Y-15539998D01*
X17527472Y-15534998D01*
X17523472Y-15530998D01*
X17519472Y-15525998D01*
X17515472Y-15519998D01*
X17512472Y-15514998D01*
X17509472Y-15508998D01*
X17506472Y-15503998D01*
X17504472Y-15497998D01*
X17502472Y-15491998D01*
X17500472Y-15485998D01*
X17499472Y-15479998D01*
X17497472Y-15473998D01*
X17497472Y-15467998D01*
X17496472Y-15460997D01*
X17496472Y-15454998D01*
X17496472Y-15304998D01*
X17496472Y-15298998D01*
X17497473Y-15291998D01*
X17497472Y-15285998D01*
X17499472Y-15279998D01*
X17500472Y-15273998D01*
X17502473Y-15267998D01*
X17504472Y-15261998D01*
X17506472Y-15255999D01*
X17509471Y-15250998D01*
X17512472Y-15244998D01*
X17515472Y-15239998D01*
X17519472Y-15233998D01*
X17523472Y-15228998D01*
X17527472Y-15224998D01*
X17531472Y-15219998D01*
X17536472Y-15215998D01*
X17540472Y-15211998D01*
X17545472Y-15207998D01*
X17551472Y-15203998D01*
X17556472Y-15200998D01*
X17562472Y-15197997D01*
X17567472Y-15194999D01*
X17573472Y-15192998D01*
X17579472Y-15190998D01*
X17585472Y-15188998D01*
X17591472Y-15187998D01*
X17597472Y-15185998D01*
X17603472Y-15185999D01*
X17610472Y-15184998D01*
X17616472Y-15184998D01*
X18166473Y-15184998D01*
X18172472Y-15184998D01*
X18179472Y-15185998D01*
G37*
X18604472Y-15370998D02*
X18610472Y-15370998D01*
X18616473Y-15372998D01*
X18622472Y-15373998D01*
X18628471Y-15375998D01*
X18634472Y-15377998D01*
X18640472Y-15379998D01*
X18645472Y-15382998D01*
X18651472Y-15385998D01*
X18656472Y-15388998D01*
X18662472Y-15392998D01*
X18667472Y-15396998D01*
X18671472Y-15400999D01*
X18676472Y-15404999D01*
X18680471Y-15409998D01*
X18684472Y-15413998D01*
X18688472Y-15418998D01*
X18692472Y-15424998D01*
X18695472Y-15429998D01*
X18698472Y-15435998D01*
X18701472Y-15440998D01*
X18703472Y-15446998D01*
X18705472Y-15452999D01*
X18707472Y-15458998D01*
X18708472Y-15464997D01*
X18710472Y-15470998D01*
X18710472Y-15476998D01*
X18711472Y-15483998D01*
X18711472Y-15489998D01*
X18711472Y-15989998D01*
X18711472Y-15995998D01*
X18710472Y-16002998D01*
X18710473Y-16008998D01*
X18708472Y-16014998D01*
X18707472Y-16020998D01*
X18705472Y-16026998D01*
X18703471Y-16032998D01*
X18701472Y-16038998D01*
X18698472Y-16043998D01*
X18695472Y-16049997D01*
X18692472Y-16054998D01*
X18688472Y-16060998D01*
X18684472Y-16065998D01*
X18680472Y-16069998D01*
X18676472Y-16074998D01*
X18671472Y-16078998D01*
X18667472Y-16082998D01*
X18662472Y-16086998D01*
X18656472Y-16090998D01*
X18651472Y-16093998D01*
X18645472Y-16096998D01*
X18640472Y-16099998D01*
X18634472Y-16101997D01*
X18628472Y-16103998D01*
X18622472Y-16105998D01*
X18616472Y-16106998D01*
X18610472Y-16108998D01*
X18604472Y-16108998D01*
X18597472Y-16109998D01*
X18591472Y-16109998D01*
X18441472Y-16109998D01*
X18435472Y-16109998D01*
X18428472Y-16108998D01*
X18422472Y-16108998D01*
X18416472Y-16106998D01*
X18410472Y-16105998D01*
X18404472Y-16103998D01*
X18398472Y-16101998D01*
X18392472Y-16099998D01*
X18387473Y-16096998D01*
X18381472Y-16093999D01*
X18376472Y-16090998D01*
X18370472Y-16086998D01*
X18365472Y-16082998D01*
X18361472Y-16078998D01*
X18356472Y-16074998D01*
X18352472Y-16069998D01*
X18348472Y-16065998D01*
X18344472Y-16060998D01*
X18340472Y-16054998D01*
X18337472Y-16049998D01*
X18334472Y-16043998D01*
X18331472Y-16038998D01*
X18329472Y-16032999D01*
X18327472Y-16026998D01*
X18325472Y-16020998D01*
X18324472Y-16014998D01*
X18322472Y-16008998D01*
X18322472Y-16002998D01*
X18321472Y-15995999D01*
X18321472Y-15989998D01*
X18321473Y-15489998D01*
X18321472Y-15483998D01*
X18322472Y-15476998D01*
X18322472Y-15470998D01*
X18324472Y-15464997D01*
X18325472Y-15458998D01*
X18327472Y-15452998D01*
X18329472Y-15446998D01*
X18331472Y-15440998D01*
X18334472Y-15435998D01*
X18337472Y-15429998D01*
X18340472Y-15424999D01*
X18344473Y-15418998D01*
X18348472Y-15413997D01*
X18352471Y-15409998D01*
X18356472Y-15404998D01*
X18361471Y-15400998D01*
X18365472Y-15396998D01*
X18370472Y-15392998D01*
X18376472Y-15388998D01*
X18381472Y-15385998D01*
X18387472Y-15382998D01*
X18392472Y-15379998D01*
X18398472Y-15377998D01*
X18404472Y-15375997D01*
X18410472Y-15373998D01*
X18416472Y-15372998D01*
X18422472Y-15370998D01*
X18428472Y-15370997D01*
X18435472Y-15369998D01*
X18441472Y-15369998D01*
X18591472Y-15369998D01*
X18597472Y-15369998D01*
X18604472Y-15370998D01*
G36*
X18604472Y-15370998D02*
G01*
X18610472Y-15370998D01*
X18616473Y-15372998D01*
X18622472Y-15373998D01*
X18628471Y-15375998D01*
X18634472Y-15377998D01*
X18640472Y-15379998D01*
X18645472Y-15382998D01*
X18651472Y-15385998D01*
X18656472Y-15388998D01*
X18662472Y-15392998D01*
X18667472Y-15396998D01*
X18671472Y-15400999D01*
X18676472Y-15404999D01*
X18680471Y-15409998D01*
X18684472Y-15413998D01*
X18688472Y-15418998D01*
X18692472Y-15424998D01*
X18695472Y-15429998D01*
X18698472Y-15435998D01*
X18701472Y-15440998D01*
X18703472Y-15446998D01*
X18705472Y-15452999D01*
X18707472Y-15458998D01*
X18708472Y-15464997D01*
X18710472Y-15470998D01*
X18710472Y-15476998D01*
X18711472Y-15483998D01*
X18711472Y-15489998D01*
X18711472Y-15989998D01*
X18711472Y-15995998D01*
X18710472Y-16002998D01*
X18710473Y-16008998D01*
X18708472Y-16014998D01*
X18707472Y-16020998D01*
X18705472Y-16026998D01*
X18703471Y-16032998D01*
X18701472Y-16038998D01*
X18698472Y-16043998D01*
X18695472Y-16049997D01*
X18692472Y-16054998D01*
X18688472Y-16060998D01*
X18684472Y-16065998D01*
X18680472Y-16069998D01*
X18676472Y-16074998D01*
X18671472Y-16078998D01*
X18667472Y-16082998D01*
X18662472Y-16086998D01*
X18656472Y-16090998D01*
X18651472Y-16093998D01*
X18645472Y-16096998D01*
X18640472Y-16099998D01*
X18634472Y-16101997D01*
X18628472Y-16103998D01*
X18622472Y-16105998D01*
X18616472Y-16106998D01*
X18610472Y-16108998D01*
X18604472Y-16108998D01*
X18597472Y-16109998D01*
X18591472Y-16109998D01*
X18441472Y-16109998D01*
X18435472Y-16109998D01*
X18428472Y-16108998D01*
X18422472Y-16108998D01*
X18416472Y-16106998D01*
X18410472Y-16105998D01*
X18404472Y-16103998D01*
X18398472Y-16101998D01*
X18392472Y-16099998D01*
X18387473Y-16096998D01*
X18381472Y-16093999D01*
X18376472Y-16090998D01*
X18370472Y-16086998D01*
X18365472Y-16082998D01*
X18361472Y-16078998D01*
X18356472Y-16074998D01*
X18352472Y-16069998D01*
X18348472Y-16065998D01*
X18344472Y-16060998D01*
X18340472Y-16054998D01*
X18337472Y-16049998D01*
X18334472Y-16043998D01*
X18331472Y-16038998D01*
X18329472Y-16032999D01*
X18327472Y-16026998D01*
X18325472Y-16020998D01*
X18324472Y-16014998D01*
X18322472Y-16008998D01*
X18322472Y-16002998D01*
X18321472Y-15995999D01*
X18321472Y-15989998D01*
X18321473Y-15489998D01*
X18321472Y-15483998D01*
X18322472Y-15476998D01*
X18322472Y-15470998D01*
X18324472Y-15464997D01*
X18325472Y-15458998D01*
X18327472Y-15452998D01*
X18329472Y-15446998D01*
X18331472Y-15440998D01*
X18334472Y-15435998D01*
X18337472Y-15429998D01*
X18340472Y-15424999D01*
X18344473Y-15418998D01*
X18348472Y-15413997D01*
X18352471Y-15409998D01*
X18356472Y-15404998D01*
X18361471Y-15400998D01*
X18365472Y-15396998D01*
X18370472Y-15392998D01*
X18376472Y-15388998D01*
X18381472Y-15385998D01*
X18387472Y-15382998D01*
X18392472Y-15379998D01*
X18398472Y-15377998D01*
X18404472Y-15375997D01*
X18410472Y-15373998D01*
X18416472Y-15372998D01*
X18422472Y-15370998D01*
X18428472Y-15370997D01*
X18435472Y-15369998D01*
X18441472Y-15369998D01*
X18591472Y-15369998D01*
X18597472Y-15369998D01*
X18604472Y-15370998D01*
G37*
X18604472Y-10570998D02*
X18610472Y-10570998D01*
X18616472Y-10572998D01*
X18622472Y-10573998D01*
X18628472Y-10575998D01*
X18634472Y-10577999D01*
X18640472Y-10579998D01*
X18645472Y-10582998D01*
X18651472Y-10585998D01*
X18656472Y-10588998D01*
X18662472Y-10592998D01*
X18667472Y-10596998D01*
X18671472Y-10600998D01*
X18676472Y-10604998D01*
X18680472Y-10609998D01*
X18684472Y-10613998D01*
X18688472Y-10618998D01*
X18692472Y-10624998D01*
X18695472Y-10629999D01*
X18698472Y-10635998D01*
X18701472Y-10640998D01*
X18703471Y-10646998D01*
X18705472Y-10652998D01*
X18707472Y-10658998D01*
X18708472Y-10664998D01*
X18710473Y-10670998D01*
X18710472Y-10676998D01*
X18711472Y-10683998D01*
X18711472Y-10689998D01*
X18711472Y-11189998D01*
X18711472Y-11195998D01*
X18710472Y-11202998D01*
X18710472Y-11208998D01*
X18708472Y-11214999D01*
X18707472Y-11220998D01*
X18705472Y-11226997D01*
X18703472Y-11232998D01*
X18701472Y-11238998D01*
X18698472Y-11243998D01*
X18695472Y-11249998D01*
X18692472Y-11254998D01*
X18688472Y-11260998D01*
X18684472Y-11265998D01*
X18680471Y-11269998D01*
X18676472Y-11274997D01*
X18671472Y-11278997D01*
X18667472Y-11282998D01*
X18662472Y-11286998D01*
X18656472Y-11290998D01*
X18651472Y-11293998D01*
X18645472Y-11296998D01*
X18640472Y-11299998D01*
X18634472Y-11301998D01*
X18628471Y-11303998D01*
X18622472Y-11305998D01*
X18616473Y-11306998D01*
X18610472Y-11308998D01*
X18604472Y-11308998D01*
X18597472Y-11309998D01*
X18591472Y-11309998D01*
X18441472Y-11309998D01*
X18435472Y-11309998D01*
X18428472Y-11308999D01*
X18422472Y-11308998D01*
X18416472Y-11306998D01*
X18410472Y-11305998D01*
X18404472Y-11303999D01*
X18398472Y-11301998D01*
X18392472Y-11299998D01*
X18387472Y-11296998D01*
X18381472Y-11293998D01*
X18376472Y-11290998D01*
X18370472Y-11286998D01*
X18365472Y-11282998D01*
X18361471Y-11278998D01*
X18356472Y-11274998D01*
X18352471Y-11269998D01*
X18348472Y-11265999D01*
X18344473Y-11260998D01*
X18340472Y-11254997D01*
X18337472Y-11249998D01*
X18334472Y-11243998D01*
X18331472Y-11238998D01*
X18329472Y-11232998D01*
X18327472Y-11226998D01*
X18325472Y-11220998D01*
X18324472Y-11214999D01*
X18322472Y-11208998D01*
X18322472Y-11202998D01*
X18321472Y-11195998D01*
X18321473Y-11189998D01*
X18321472Y-10689998D01*
X18321472Y-10683997D01*
X18322472Y-10676998D01*
X18322472Y-10670998D01*
X18324472Y-10664998D01*
X18325472Y-10658998D01*
X18327472Y-10652998D01*
X18329472Y-10646997D01*
X18331472Y-10640998D01*
X18334472Y-10635998D01*
X18337472Y-10629998D01*
X18340472Y-10624998D01*
X18344472Y-10618998D01*
X18348472Y-10613998D01*
X18352472Y-10609998D01*
X18356472Y-10604998D01*
X18361472Y-10600998D01*
X18365472Y-10596998D01*
X18370472Y-10592998D01*
X18376472Y-10588998D01*
X18381472Y-10585997D01*
X18387473Y-10582998D01*
X18392472Y-10579998D01*
X18398472Y-10577998D01*
X18404472Y-10575998D01*
X18410472Y-10573998D01*
X18416472Y-10572998D01*
X18422472Y-10570998D01*
X18428472Y-10570998D01*
X18435472Y-10569998D01*
X18441472Y-10569998D01*
X18591472Y-10569998D01*
X18597472Y-10569998D01*
X18604472Y-10570998D01*
G36*
X18604472Y-10570998D02*
G01*
X18610472Y-10570998D01*
X18616472Y-10572998D01*
X18622472Y-10573998D01*
X18628472Y-10575998D01*
X18634472Y-10577999D01*
X18640472Y-10579998D01*
X18645472Y-10582998D01*
X18651472Y-10585998D01*
X18656472Y-10588998D01*
X18662472Y-10592998D01*
X18667472Y-10596998D01*
X18671472Y-10600998D01*
X18676472Y-10604998D01*
X18680472Y-10609998D01*
X18684472Y-10613998D01*
X18688472Y-10618998D01*
X18692472Y-10624998D01*
X18695472Y-10629999D01*
X18698472Y-10635998D01*
X18701472Y-10640998D01*
X18703471Y-10646998D01*
X18705472Y-10652998D01*
X18707472Y-10658998D01*
X18708472Y-10664998D01*
X18710473Y-10670998D01*
X18710472Y-10676998D01*
X18711472Y-10683998D01*
X18711472Y-10689998D01*
X18711472Y-11189998D01*
X18711472Y-11195998D01*
X18710472Y-11202998D01*
X18710472Y-11208998D01*
X18708472Y-11214999D01*
X18707472Y-11220998D01*
X18705472Y-11226997D01*
X18703472Y-11232998D01*
X18701472Y-11238998D01*
X18698472Y-11243998D01*
X18695472Y-11249998D01*
X18692472Y-11254998D01*
X18688472Y-11260998D01*
X18684472Y-11265998D01*
X18680471Y-11269998D01*
X18676472Y-11274997D01*
X18671472Y-11278997D01*
X18667472Y-11282998D01*
X18662472Y-11286998D01*
X18656472Y-11290998D01*
X18651472Y-11293998D01*
X18645472Y-11296998D01*
X18640472Y-11299998D01*
X18634472Y-11301998D01*
X18628471Y-11303998D01*
X18622472Y-11305998D01*
X18616473Y-11306998D01*
X18610472Y-11308998D01*
X18604472Y-11308998D01*
X18597472Y-11309998D01*
X18591472Y-11309998D01*
X18441472Y-11309998D01*
X18435472Y-11309998D01*
X18428472Y-11308999D01*
X18422472Y-11308998D01*
X18416472Y-11306998D01*
X18410472Y-11305998D01*
X18404472Y-11303999D01*
X18398472Y-11301998D01*
X18392472Y-11299998D01*
X18387472Y-11296998D01*
X18381472Y-11293998D01*
X18376472Y-11290998D01*
X18370472Y-11286998D01*
X18365472Y-11282998D01*
X18361471Y-11278998D01*
X18356472Y-11274998D01*
X18352471Y-11269998D01*
X18348472Y-11265999D01*
X18344473Y-11260998D01*
X18340472Y-11254997D01*
X18337472Y-11249998D01*
X18334472Y-11243998D01*
X18331472Y-11238998D01*
X18329472Y-11232998D01*
X18327472Y-11226998D01*
X18325472Y-11220998D01*
X18324472Y-11214999D01*
X18322472Y-11208998D01*
X18322472Y-11202998D01*
X18321472Y-11195998D01*
X18321473Y-11189998D01*
X18321472Y-10689998D01*
X18321472Y-10683997D01*
X18322472Y-10676998D01*
X18322472Y-10670998D01*
X18324472Y-10664998D01*
X18325472Y-10658998D01*
X18327472Y-10652998D01*
X18329472Y-10646997D01*
X18331472Y-10640998D01*
X18334472Y-10635998D01*
X18337472Y-10629998D01*
X18340472Y-10624998D01*
X18344472Y-10618998D01*
X18348472Y-10613998D01*
X18352472Y-10609998D01*
X18356472Y-10604998D01*
X18361472Y-10600998D01*
X18365472Y-10596998D01*
X18370472Y-10592998D01*
X18376472Y-10588998D01*
X18381472Y-10585997D01*
X18387473Y-10582998D01*
X18392472Y-10579998D01*
X18398472Y-10577998D01*
X18404472Y-10575998D01*
X18410472Y-10573998D01*
X18416472Y-10572998D01*
X18422472Y-10570998D01*
X18428472Y-10570998D01*
X18435472Y-10569998D01*
X18441472Y-10569998D01*
X18591472Y-10569998D01*
X18597472Y-10569998D01*
X18604472Y-10570998D01*
G37*
X19104472Y-15370998D02*
X19110472Y-15370998D01*
X19116472Y-15372998D01*
X19122472Y-15373998D01*
X19128472Y-15375998D01*
X19134472Y-15377999D01*
X19140472Y-15379998D01*
X19145472Y-15382998D01*
X19151472Y-15385998D01*
X19156472Y-15388998D01*
X19162472Y-15392998D01*
X19167472Y-15396998D01*
X19171472Y-15400998D01*
X19176472Y-15404998D01*
X19180472Y-15409998D01*
X19184472Y-15413998D01*
X19188472Y-15418998D01*
X19192472Y-15424999D01*
X19195472Y-15429998D01*
X19198472Y-15435998D01*
X19201472Y-15440998D01*
X19203472Y-15446998D01*
X19205472Y-15452998D01*
X19207472Y-15458998D01*
X19208472Y-15464998D01*
X19210472Y-15470999D01*
X19210472Y-15476998D01*
X19211472Y-15483998D01*
X19211473Y-15489998D01*
X19211472Y-15989998D01*
X19211473Y-15995998D01*
X19210472Y-16002997D01*
X19210472Y-16008998D01*
X19208472Y-16014998D01*
X19207472Y-16020998D01*
X19205472Y-16026997D01*
X19203472Y-16032998D01*
X19201472Y-16038998D01*
X19198472Y-16043998D01*
X19195472Y-16049998D01*
X19192472Y-16054998D01*
X19188472Y-16060998D01*
X19184472Y-16065998D01*
X19180472Y-16069998D01*
X19176471Y-16074998D01*
X19171471Y-16078998D01*
X19167472Y-16082997D01*
X19162472Y-16086998D01*
X19156472Y-16090998D01*
X19151472Y-16093998D01*
X19145472Y-16096997D01*
X19140472Y-16099998D01*
X19134472Y-16101998D01*
X19128472Y-16103998D01*
X19122472Y-16105998D01*
X19116472Y-16106997D01*
X19110472Y-16108998D01*
X19104472Y-16108998D01*
X19097472Y-16109998D01*
X19091472Y-16109998D01*
X18941472Y-16109998D01*
X18935472Y-16109998D01*
X18928472Y-16108998D01*
X18922472Y-16108998D01*
X18916472Y-16106998D01*
X18910472Y-16105997D01*
X18904472Y-16103998D01*
X18898472Y-16101998D01*
X18892472Y-16099998D01*
X18887472Y-16096998D01*
X18881472Y-16093998D01*
X18876472Y-16090998D01*
X18870472Y-16086998D01*
X18865472Y-16082998D01*
X18861472Y-16078998D01*
X18856472Y-16074998D01*
X18852472Y-16069998D01*
X18848471Y-16065998D01*
X18844471Y-16060998D01*
X18840472Y-16054997D01*
X18837472Y-16049998D01*
X18834472Y-16043998D01*
X18831472Y-16038998D01*
X18829472Y-16032998D01*
X18827472Y-16026998D01*
X18825472Y-16020998D01*
X18824472Y-16014998D01*
X18822473Y-16008998D01*
X18822472Y-16002998D01*
X18821472Y-15995998D01*
X18821472Y-15989997D01*
X18821472Y-15489998D01*
X18821472Y-15483997D01*
X18822472Y-15476998D01*
X18822472Y-15470998D01*
X18824472Y-15464998D01*
X18825472Y-15458998D01*
X18827472Y-15452999D01*
X18829472Y-15446998D01*
X18831472Y-15440998D01*
X18834472Y-15435998D01*
X18837472Y-15429998D01*
X18840472Y-15424998D01*
X18844472Y-15418998D01*
X18848472Y-15413998D01*
X18852472Y-15409998D01*
X18856472Y-15404998D01*
X18861472Y-15400998D01*
X18865472Y-15396998D01*
X18870472Y-15392998D01*
X18876472Y-15388998D01*
X18881471Y-15385998D01*
X18887472Y-15382998D01*
X18892472Y-15379998D01*
X18898472Y-15377998D01*
X18904472Y-15375998D01*
X18910472Y-15373998D01*
X18916473Y-15372998D01*
X18922472Y-15370998D01*
X18928472Y-15370998D01*
X18935472Y-15369998D01*
X18941472Y-15369998D01*
X19091472Y-15369998D01*
X19097472Y-15369998D01*
X19104472Y-15370998D01*
G36*
X19104472Y-15370998D02*
G01*
X19110472Y-15370998D01*
X19116472Y-15372998D01*
X19122472Y-15373998D01*
X19128472Y-15375998D01*
X19134472Y-15377999D01*
X19140472Y-15379998D01*
X19145472Y-15382998D01*
X19151472Y-15385998D01*
X19156472Y-15388998D01*
X19162472Y-15392998D01*
X19167472Y-15396998D01*
X19171472Y-15400998D01*
X19176472Y-15404998D01*
X19180472Y-15409998D01*
X19184472Y-15413998D01*
X19188472Y-15418998D01*
X19192472Y-15424999D01*
X19195472Y-15429998D01*
X19198472Y-15435998D01*
X19201472Y-15440998D01*
X19203472Y-15446998D01*
X19205472Y-15452998D01*
X19207472Y-15458998D01*
X19208472Y-15464998D01*
X19210472Y-15470999D01*
X19210472Y-15476998D01*
X19211472Y-15483998D01*
X19211473Y-15489998D01*
X19211472Y-15989998D01*
X19211473Y-15995998D01*
X19210472Y-16002997D01*
X19210472Y-16008998D01*
X19208472Y-16014998D01*
X19207472Y-16020998D01*
X19205472Y-16026997D01*
X19203472Y-16032998D01*
X19201472Y-16038998D01*
X19198472Y-16043998D01*
X19195472Y-16049998D01*
X19192472Y-16054998D01*
X19188472Y-16060998D01*
X19184472Y-16065998D01*
X19180472Y-16069998D01*
X19176471Y-16074998D01*
X19171471Y-16078998D01*
X19167472Y-16082997D01*
X19162472Y-16086998D01*
X19156472Y-16090998D01*
X19151472Y-16093998D01*
X19145472Y-16096997D01*
X19140472Y-16099998D01*
X19134472Y-16101998D01*
X19128472Y-16103998D01*
X19122472Y-16105998D01*
X19116472Y-16106997D01*
X19110472Y-16108998D01*
X19104472Y-16108998D01*
X19097472Y-16109998D01*
X19091472Y-16109998D01*
X18941472Y-16109998D01*
X18935472Y-16109998D01*
X18928472Y-16108998D01*
X18922472Y-16108998D01*
X18916472Y-16106998D01*
X18910472Y-16105997D01*
X18904472Y-16103998D01*
X18898472Y-16101998D01*
X18892472Y-16099998D01*
X18887472Y-16096998D01*
X18881472Y-16093998D01*
X18876472Y-16090998D01*
X18870472Y-16086998D01*
X18865472Y-16082998D01*
X18861472Y-16078998D01*
X18856472Y-16074998D01*
X18852472Y-16069998D01*
X18848471Y-16065998D01*
X18844471Y-16060998D01*
X18840472Y-16054997D01*
X18837472Y-16049998D01*
X18834472Y-16043998D01*
X18831472Y-16038998D01*
X18829472Y-16032998D01*
X18827472Y-16026998D01*
X18825472Y-16020998D01*
X18824472Y-16014998D01*
X18822473Y-16008998D01*
X18822472Y-16002998D01*
X18821472Y-15995998D01*
X18821472Y-15989997D01*
X18821472Y-15489998D01*
X18821472Y-15483997D01*
X18822472Y-15476998D01*
X18822472Y-15470998D01*
X18824472Y-15464998D01*
X18825472Y-15458998D01*
X18827472Y-15452999D01*
X18829472Y-15446998D01*
X18831472Y-15440998D01*
X18834472Y-15435998D01*
X18837472Y-15429998D01*
X18840472Y-15424998D01*
X18844472Y-15418998D01*
X18848472Y-15413998D01*
X18852472Y-15409998D01*
X18856472Y-15404998D01*
X18861472Y-15400998D01*
X18865472Y-15396998D01*
X18870472Y-15392998D01*
X18876472Y-15388998D01*
X18881471Y-15385998D01*
X18887472Y-15382998D01*
X18892472Y-15379998D01*
X18898472Y-15377998D01*
X18904472Y-15375998D01*
X18910472Y-15373998D01*
X18916473Y-15372998D01*
X18922472Y-15370998D01*
X18928472Y-15370998D01*
X18935472Y-15369998D01*
X18941472Y-15369998D01*
X19091472Y-15369998D01*
X19097472Y-15369998D01*
X19104472Y-15370998D01*
G37*
X19104472Y-10570998D02*
X19110472Y-10570998D01*
X19116472Y-10572999D01*
X19122472Y-10573998D01*
X19128472Y-10575998D01*
X19134472Y-10577998D01*
X19140472Y-10579998D01*
X19145472Y-10582999D01*
X19151472Y-10585998D01*
X19156472Y-10588998D01*
X19162472Y-10592998D01*
X19167472Y-10596999D01*
X19171471Y-10600998D01*
X19176471Y-10604998D01*
X19180472Y-10609998D01*
X19184472Y-10613998D01*
X19188472Y-10618998D01*
X19192472Y-10624998D01*
X19195472Y-10629998D01*
X19198472Y-10635998D01*
X19201472Y-10640998D01*
X19203472Y-10646998D01*
X19205472Y-10652999D01*
X19207472Y-10658998D01*
X19208472Y-10664998D01*
X19210472Y-10670998D01*
X19210472Y-10676999D01*
X19211473Y-10683998D01*
X19211472Y-10689998D01*
X19211473Y-11189998D01*
X19211472Y-11195998D01*
X19210472Y-11202998D01*
X19210472Y-11208997D01*
X19208472Y-11214998D01*
X19207472Y-11220998D01*
X19205472Y-11226998D01*
X19203472Y-11232998D01*
X19201472Y-11238998D01*
X19198472Y-11243998D01*
X19195472Y-11249998D01*
X19192472Y-11254997D01*
X19188472Y-11260998D01*
X19184472Y-11265998D01*
X19180472Y-11269998D01*
X19176472Y-11274998D01*
X19171472Y-11278998D01*
X19167472Y-11282998D01*
X19162472Y-11286998D01*
X19156472Y-11290998D01*
X19151472Y-11293998D01*
X19145472Y-11296998D01*
X19140472Y-11299998D01*
X19134472Y-11301997D01*
X19128472Y-11303998D01*
X19122472Y-11305998D01*
X19116472Y-11306998D01*
X19110472Y-11308998D01*
X19104472Y-11308998D01*
X19097472Y-11309998D01*
X19091472Y-11309998D01*
X18941472Y-11309998D01*
X18935472Y-11309998D01*
X18928472Y-11308998D01*
X18922472Y-11308998D01*
X18916473Y-11306998D01*
X18910472Y-11305998D01*
X18904472Y-11303998D01*
X18898472Y-11301998D01*
X18892472Y-11299998D01*
X18887472Y-11296998D01*
X18881471Y-11293998D01*
X18876472Y-11290998D01*
X18870472Y-11286998D01*
X18865472Y-11282998D01*
X18861472Y-11278998D01*
X18856472Y-11274998D01*
X18852472Y-11269998D01*
X18848472Y-11265998D01*
X18844472Y-11260998D01*
X18840472Y-11254998D01*
X18837472Y-11249998D01*
X18834472Y-11243998D01*
X18831472Y-11238998D01*
X18829472Y-11232998D01*
X18827472Y-11226997D01*
X18825472Y-11220998D01*
X18824472Y-11214998D01*
X18822472Y-11208998D01*
X18822472Y-11202998D01*
X18821472Y-11195999D01*
X18821472Y-11189998D01*
X18821472Y-10689999D01*
X18821472Y-10683998D01*
X18822472Y-10676998D01*
X18822473Y-10670998D01*
X18824472Y-10664998D01*
X18825472Y-10658998D01*
X18827472Y-10652998D01*
X18829472Y-10646998D01*
X18831472Y-10640998D01*
X18834472Y-10635998D01*
X18837472Y-10629998D01*
X18840472Y-10624999D01*
X18844471Y-10618998D01*
X18848471Y-10613998D01*
X18852472Y-10609998D01*
X18856472Y-10604998D01*
X18861472Y-10600998D01*
X18865472Y-10596998D01*
X18870472Y-10592998D01*
X18876472Y-10588998D01*
X18881472Y-10585998D01*
X18887472Y-10582998D01*
X18892472Y-10579998D01*
X18898472Y-10577998D01*
X18904472Y-10575998D01*
X18910472Y-10573999D01*
X18916472Y-10572998D01*
X18922472Y-10570998D01*
X18928472Y-10570998D01*
X18935472Y-10569998D01*
X18941472Y-10569998D01*
X19091472Y-10569998D01*
X19097472Y-10569998D01*
X19104472Y-10570998D01*
G36*
X19104472Y-10570998D02*
G01*
X19110472Y-10570998D01*
X19116472Y-10572999D01*
X19122472Y-10573998D01*
X19128472Y-10575998D01*
X19134472Y-10577998D01*
X19140472Y-10579998D01*
X19145472Y-10582999D01*
X19151472Y-10585998D01*
X19156472Y-10588998D01*
X19162472Y-10592998D01*
X19167472Y-10596999D01*
X19171471Y-10600998D01*
X19176471Y-10604998D01*
X19180472Y-10609998D01*
X19184472Y-10613998D01*
X19188472Y-10618998D01*
X19192472Y-10624998D01*
X19195472Y-10629998D01*
X19198472Y-10635998D01*
X19201472Y-10640998D01*
X19203472Y-10646998D01*
X19205472Y-10652999D01*
X19207472Y-10658998D01*
X19208472Y-10664998D01*
X19210472Y-10670998D01*
X19210472Y-10676999D01*
X19211473Y-10683998D01*
X19211472Y-10689998D01*
X19211473Y-11189998D01*
X19211472Y-11195998D01*
X19210472Y-11202998D01*
X19210472Y-11208997D01*
X19208472Y-11214998D01*
X19207472Y-11220998D01*
X19205472Y-11226998D01*
X19203472Y-11232998D01*
X19201472Y-11238998D01*
X19198472Y-11243998D01*
X19195472Y-11249998D01*
X19192472Y-11254997D01*
X19188472Y-11260998D01*
X19184472Y-11265998D01*
X19180472Y-11269998D01*
X19176472Y-11274998D01*
X19171472Y-11278998D01*
X19167472Y-11282998D01*
X19162472Y-11286998D01*
X19156472Y-11290998D01*
X19151472Y-11293998D01*
X19145472Y-11296998D01*
X19140472Y-11299998D01*
X19134472Y-11301997D01*
X19128472Y-11303998D01*
X19122472Y-11305998D01*
X19116472Y-11306998D01*
X19110472Y-11308998D01*
X19104472Y-11308998D01*
X19097472Y-11309998D01*
X19091472Y-11309998D01*
X18941472Y-11309998D01*
X18935472Y-11309998D01*
X18928472Y-11308998D01*
X18922472Y-11308998D01*
X18916473Y-11306998D01*
X18910472Y-11305998D01*
X18904472Y-11303998D01*
X18898472Y-11301998D01*
X18892472Y-11299998D01*
X18887472Y-11296998D01*
X18881471Y-11293998D01*
X18876472Y-11290998D01*
X18870472Y-11286998D01*
X18865472Y-11282998D01*
X18861472Y-11278998D01*
X18856472Y-11274998D01*
X18852472Y-11269998D01*
X18848472Y-11265998D01*
X18844472Y-11260998D01*
X18840472Y-11254998D01*
X18837472Y-11249998D01*
X18834472Y-11243998D01*
X18831472Y-11238998D01*
X18829472Y-11232998D01*
X18827472Y-11226997D01*
X18825472Y-11220998D01*
X18824472Y-11214998D01*
X18822472Y-11208998D01*
X18822472Y-11202998D01*
X18821472Y-11195999D01*
X18821472Y-11189998D01*
X18821472Y-10689999D01*
X18821472Y-10683998D01*
X18822472Y-10676998D01*
X18822473Y-10670998D01*
X18824472Y-10664998D01*
X18825472Y-10658998D01*
X18827472Y-10652998D01*
X18829472Y-10646998D01*
X18831472Y-10640998D01*
X18834472Y-10635998D01*
X18837472Y-10629998D01*
X18840472Y-10624999D01*
X18844471Y-10618998D01*
X18848471Y-10613998D01*
X18852472Y-10609998D01*
X18856472Y-10604998D01*
X18861472Y-10600998D01*
X18865472Y-10596998D01*
X18870472Y-10592998D01*
X18876472Y-10588998D01*
X18881472Y-10585998D01*
X18887472Y-10582998D01*
X18892472Y-10579998D01*
X18898472Y-10577998D01*
X18904472Y-10575998D01*
X18910472Y-10573999D01*
X18916472Y-10572998D01*
X18922472Y-10570998D01*
X18928472Y-10570998D01*
X18935472Y-10569998D01*
X18941472Y-10569998D01*
X19091472Y-10569998D01*
X19097472Y-10569998D01*
X19104472Y-10570998D01*
G37*
X19604472Y-15370998D02*
X19610472Y-15370998D01*
X19616471Y-15372998D01*
X19622472Y-15373998D01*
X19628472Y-15375998D01*
X19634472Y-15377998D01*
X19640472Y-15379998D01*
X19645472Y-15382998D01*
X19651473Y-15385998D01*
X19656472Y-15388998D01*
X19662472Y-15392998D01*
X19667472Y-15396998D01*
X19671472Y-15400998D01*
X19676472Y-15404998D01*
X19680472Y-15409998D01*
X19684472Y-15413998D01*
X19688472Y-15418998D01*
X19692472Y-15424998D01*
X19695472Y-15429998D01*
X19698472Y-15435998D01*
X19701472Y-15440998D01*
X19703472Y-15446998D01*
X19705472Y-15452999D01*
X19707472Y-15458998D01*
X19708472Y-15464998D01*
X19710472Y-15470998D01*
X19710472Y-15476998D01*
X19711472Y-15483997D01*
X19711472Y-15489998D01*
X19711472Y-15989997D01*
X19711472Y-15995998D01*
X19710472Y-16002998D01*
X19710471Y-16008998D01*
X19708472Y-16014998D01*
X19707472Y-16020998D01*
X19705472Y-16026998D01*
X19703472Y-16032998D01*
X19701472Y-16038998D01*
X19698472Y-16043998D01*
X19695472Y-16049998D01*
X19692472Y-16054997D01*
X19688473Y-16060998D01*
X19684473Y-16065998D01*
X19680472Y-16069998D01*
X19676472Y-16074998D01*
X19671472Y-16078998D01*
X19667472Y-16082998D01*
X19662472Y-16086998D01*
X19656472Y-16090998D01*
X19651472Y-16093998D01*
X19645472Y-16096998D01*
X19640472Y-16099998D01*
X19634472Y-16101998D01*
X19628472Y-16103998D01*
X19622472Y-16105997D01*
X19616472Y-16106998D01*
X19610472Y-16108998D01*
X19604472Y-16108998D01*
X19597472Y-16109998D01*
X19591472Y-16109998D01*
X19441472Y-16109998D01*
X19435472Y-16109998D01*
X19428472Y-16108998D01*
X19422472Y-16108998D01*
X19416472Y-16106997D01*
X19410472Y-16105998D01*
X19404472Y-16103998D01*
X19398472Y-16101998D01*
X19392472Y-16099998D01*
X19387472Y-16096997D01*
X19381472Y-16093998D01*
X19376472Y-16090998D01*
X19370472Y-16086998D01*
X19365472Y-16082997D01*
X19361473Y-16078998D01*
X19356473Y-16074998D01*
X19352472Y-16069998D01*
X19348472Y-16065998D01*
X19344472Y-16060998D01*
X19340472Y-16054998D01*
X19337472Y-16049998D01*
X19334472Y-16043998D01*
X19331472Y-16038998D01*
X19329472Y-16032998D01*
X19327472Y-16026997D01*
X19325472Y-16020998D01*
X19324472Y-16014998D01*
X19322472Y-16008998D01*
X19322472Y-16002997D01*
X19321471Y-15995998D01*
X19321472Y-15989998D01*
X19321471Y-15489998D01*
X19321472Y-15483998D01*
X19322472Y-15476998D01*
X19322472Y-15470999D01*
X19324472Y-15464998D01*
X19325472Y-15458998D01*
X19327472Y-15452998D01*
X19329472Y-15446998D01*
X19331472Y-15440998D01*
X19334472Y-15435998D01*
X19337472Y-15429998D01*
X19340472Y-15424999D01*
X19344472Y-15418998D01*
X19348472Y-15413998D01*
X19352472Y-15409998D01*
X19356472Y-15404998D01*
X19361472Y-15400998D01*
X19365472Y-15396998D01*
X19370472Y-15392998D01*
X19376472Y-15388998D01*
X19381472Y-15385998D01*
X19387472Y-15382998D01*
X19392472Y-15379998D01*
X19398472Y-15377999D01*
X19404472Y-15375998D01*
X19410472Y-15373998D01*
X19416472Y-15372998D01*
X19422472Y-15370998D01*
X19428472Y-15370998D01*
X19435472Y-15369998D01*
X19441472Y-15369998D01*
X19591472Y-15369998D01*
X19597472Y-15369998D01*
X19604472Y-15370998D01*
G36*
X19604472Y-15370998D02*
G01*
X19610472Y-15370998D01*
X19616471Y-15372998D01*
X19622472Y-15373998D01*
X19628472Y-15375998D01*
X19634472Y-15377998D01*
X19640472Y-15379998D01*
X19645472Y-15382998D01*
X19651473Y-15385998D01*
X19656472Y-15388998D01*
X19662472Y-15392998D01*
X19667472Y-15396998D01*
X19671472Y-15400998D01*
X19676472Y-15404998D01*
X19680472Y-15409998D01*
X19684472Y-15413998D01*
X19688472Y-15418998D01*
X19692472Y-15424998D01*
X19695472Y-15429998D01*
X19698472Y-15435998D01*
X19701472Y-15440998D01*
X19703472Y-15446998D01*
X19705472Y-15452999D01*
X19707472Y-15458998D01*
X19708472Y-15464998D01*
X19710472Y-15470998D01*
X19710472Y-15476998D01*
X19711472Y-15483997D01*
X19711472Y-15489998D01*
X19711472Y-15989997D01*
X19711472Y-15995998D01*
X19710472Y-16002998D01*
X19710471Y-16008998D01*
X19708472Y-16014998D01*
X19707472Y-16020998D01*
X19705472Y-16026998D01*
X19703472Y-16032998D01*
X19701472Y-16038998D01*
X19698472Y-16043998D01*
X19695472Y-16049998D01*
X19692472Y-16054997D01*
X19688473Y-16060998D01*
X19684473Y-16065998D01*
X19680472Y-16069998D01*
X19676472Y-16074998D01*
X19671472Y-16078998D01*
X19667472Y-16082998D01*
X19662472Y-16086998D01*
X19656472Y-16090998D01*
X19651472Y-16093998D01*
X19645472Y-16096998D01*
X19640472Y-16099998D01*
X19634472Y-16101998D01*
X19628472Y-16103998D01*
X19622472Y-16105997D01*
X19616472Y-16106998D01*
X19610472Y-16108998D01*
X19604472Y-16108998D01*
X19597472Y-16109998D01*
X19591472Y-16109998D01*
X19441472Y-16109998D01*
X19435472Y-16109998D01*
X19428472Y-16108998D01*
X19422472Y-16108998D01*
X19416472Y-16106997D01*
X19410472Y-16105998D01*
X19404472Y-16103998D01*
X19398472Y-16101998D01*
X19392472Y-16099998D01*
X19387472Y-16096997D01*
X19381472Y-16093998D01*
X19376472Y-16090998D01*
X19370472Y-16086998D01*
X19365472Y-16082997D01*
X19361473Y-16078998D01*
X19356473Y-16074998D01*
X19352472Y-16069998D01*
X19348472Y-16065998D01*
X19344472Y-16060998D01*
X19340472Y-16054998D01*
X19337472Y-16049998D01*
X19334472Y-16043998D01*
X19331472Y-16038998D01*
X19329472Y-16032998D01*
X19327472Y-16026997D01*
X19325472Y-16020998D01*
X19324472Y-16014998D01*
X19322472Y-16008998D01*
X19322472Y-16002997D01*
X19321471Y-15995998D01*
X19321472Y-15989998D01*
X19321471Y-15489998D01*
X19321472Y-15483998D01*
X19322472Y-15476998D01*
X19322472Y-15470999D01*
X19324472Y-15464998D01*
X19325472Y-15458998D01*
X19327472Y-15452998D01*
X19329472Y-15446998D01*
X19331472Y-15440998D01*
X19334472Y-15435998D01*
X19337472Y-15429998D01*
X19340472Y-15424999D01*
X19344472Y-15418998D01*
X19348472Y-15413998D01*
X19352472Y-15409998D01*
X19356472Y-15404998D01*
X19361472Y-15400998D01*
X19365472Y-15396998D01*
X19370472Y-15392998D01*
X19376472Y-15388998D01*
X19381472Y-15385998D01*
X19387472Y-15382998D01*
X19392472Y-15379998D01*
X19398472Y-15377999D01*
X19404472Y-15375998D01*
X19410472Y-15373998D01*
X19416472Y-15372998D01*
X19422472Y-15370998D01*
X19428472Y-15370998D01*
X19435472Y-15369998D01*
X19441472Y-15369998D01*
X19591472Y-15369998D01*
X19597472Y-15369998D01*
X19604472Y-15370998D01*
G37*
X19604472Y-10570998D02*
X19610472Y-10570998D01*
X19616472Y-10572998D01*
X19622472Y-10573999D01*
X19628472Y-10575998D01*
X19634472Y-10577998D01*
X19640472Y-10579998D01*
X19645472Y-10582998D01*
X19651472Y-10585998D01*
X19656472Y-10588998D01*
X19662472Y-10592998D01*
X19667472Y-10596998D01*
X19671472Y-10600998D01*
X19676472Y-10604998D01*
X19680472Y-10609998D01*
X19684473Y-10613998D01*
X19688473Y-10618998D01*
X19692472Y-10624999D01*
X19695472Y-10629998D01*
X19698472Y-10635998D01*
X19701472Y-10640998D01*
X19703472Y-10646998D01*
X19705472Y-10652998D01*
X19707472Y-10658998D01*
X19708472Y-10664998D01*
X19710471Y-10670998D01*
X19710472Y-10676998D01*
X19711472Y-10683998D01*
X19711472Y-10689999D01*
X19711472Y-11189998D01*
X19711472Y-11195999D01*
X19710472Y-11202998D01*
X19710472Y-11208998D01*
X19708472Y-11214998D01*
X19707472Y-11220998D01*
X19705472Y-11226997D01*
X19703472Y-11232998D01*
X19701472Y-11238998D01*
X19698472Y-11243998D01*
X19695472Y-11249998D01*
X19692472Y-11254998D01*
X19688472Y-11260998D01*
X19684472Y-11265998D01*
X19680472Y-11269998D01*
X19676472Y-11274998D01*
X19671472Y-11278998D01*
X19667472Y-11282998D01*
X19662472Y-11286998D01*
X19656472Y-11290998D01*
X19651473Y-11293998D01*
X19645472Y-11296998D01*
X19640472Y-11299998D01*
X19634472Y-11301998D01*
X19628472Y-11303998D01*
X19622472Y-11305998D01*
X19616471Y-11306998D01*
X19610472Y-11308998D01*
X19604472Y-11308998D01*
X19597472Y-11309998D01*
X19591472Y-11309998D01*
X19441472Y-11309998D01*
X19435472Y-11309998D01*
X19428472Y-11308998D01*
X19422472Y-11308998D01*
X19416472Y-11306998D01*
X19410472Y-11305998D01*
X19404472Y-11303998D01*
X19398472Y-11301997D01*
X19392472Y-11299998D01*
X19387472Y-11296998D01*
X19381472Y-11293998D01*
X19376472Y-11290998D01*
X19370472Y-11286998D01*
X19365472Y-11282998D01*
X19361472Y-11278998D01*
X19356472Y-11274998D01*
X19352472Y-11269998D01*
X19348472Y-11265998D01*
X19344472Y-11260998D01*
X19340472Y-11254997D01*
X19337472Y-11249998D01*
X19334472Y-11243998D01*
X19331472Y-11238998D01*
X19329472Y-11232998D01*
X19327472Y-11226998D01*
X19325472Y-11220998D01*
X19324472Y-11214998D01*
X19322472Y-11208997D01*
X19322472Y-11202998D01*
X19321472Y-11195998D01*
X19321471Y-11189998D01*
X19321472Y-10689998D01*
X19321471Y-10683998D01*
X19322472Y-10676999D01*
X19322472Y-10670998D01*
X19324472Y-10664998D01*
X19325472Y-10658998D01*
X19327472Y-10652999D01*
X19329472Y-10646998D01*
X19331472Y-10640998D01*
X19334472Y-10635998D01*
X19337472Y-10629998D01*
X19340472Y-10624998D01*
X19344472Y-10618998D01*
X19348472Y-10613998D01*
X19352472Y-10609998D01*
X19356473Y-10604998D01*
X19361473Y-10600998D01*
X19365472Y-10596999D01*
X19370472Y-10592998D01*
X19376472Y-10588998D01*
X19381472Y-10585998D01*
X19387472Y-10582999D01*
X19392472Y-10579998D01*
X19398472Y-10577998D01*
X19404472Y-10575998D01*
X19410472Y-10573998D01*
X19416472Y-10572999D01*
X19422472Y-10570998D01*
X19428472Y-10570998D01*
X19435472Y-10569998D01*
X19441472Y-10569998D01*
X19591472Y-10569998D01*
X19597472Y-10569998D01*
X19604472Y-10570998D01*
G36*
X19604472Y-10570998D02*
G01*
X19610472Y-10570998D01*
X19616472Y-10572998D01*
X19622472Y-10573999D01*
X19628472Y-10575998D01*
X19634472Y-10577998D01*
X19640472Y-10579998D01*
X19645472Y-10582998D01*
X19651472Y-10585998D01*
X19656472Y-10588998D01*
X19662472Y-10592998D01*
X19667472Y-10596998D01*
X19671472Y-10600998D01*
X19676472Y-10604998D01*
X19680472Y-10609998D01*
X19684473Y-10613998D01*
X19688473Y-10618998D01*
X19692472Y-10624999D01*
X19695472Y-10629998D01*
X19698472Y-10635998D01*
X19701472Y-10640998D01*
X19703472Y-10646998D01*
X19705472Y-10652998D01*
X19707472Y-10658998D01*
X19708472Y-10664998D01*
X19710471Y-10670998D01*
X19710472Y-10676998D01*
X19711472Y-10683998D01*
X19711472Y-10689999D01*
X19711472Y-11189998D01*
X19711472Y-11195999D01*
X19710472Y-11202998D01*
X19710472Y-11208998D01*
X19708472Y-11214998D01*
X19707472Y-11220998D01*
X19705472Y-11226997D01*
X19703472Y-11232998D01*
X19701472Y-11238998D01*
X19698472Y-11243998D01*
X19695472Y-11249998D01*
X19692472Y-11254998D01*
X19688472Y-11260998D01*
X19684472Y-11265998D01*
X19680472Y-11269998D01*
X19676472Y-11274998D01*
X19671472Y-11278998D01*
X19667472Y-11282998D01*
X19662472Y-11286998D01*
X19656472Y-11290998D01*
X19651473Y-11293998D01*
X19645472Y-11296998D01*
X19640472Y-11299998D01*
X19634472Y-11301998D01*
X19628472Y-11303998D01*
X19622472Y-11305998D01*
X19616471Y-11306998D01*
X19610472Y-11308998D01*
X19604472Y-11308998D01*
X19597472Y-11309998D01*
X19591472Y-11309998D01*
X19441472Y-11309998D01*
X19435472Y-11309998D01*
X19428472Y-11308998D01*
X19422472Y-11308998D01*
X19416472Y-11306998D01*
X19410472Y-11305998D01*
X19404472Y-11303998D01*
X19398472Y-11301997D01*
X19392472Y-11299998D01*
X19387472Y-11296998D01*
X19381472Y-11293998D01*
X19376472Y-11290998D01*
X19370472Y-11286998D01*
X19365472Y-11282998D01*
X19361472Y-11278998D01*
X19356472Y-11274998D01*
X19352472Y-11269998D01*
X19348472Y-11265998D01*
X19344472Y-11260998D01*
X19340472Y-11254997D01*
X19337472Y-11249998D01*
X19334472Y-11243998D01*
X19331472Y-11238998D01*
X19329472Y-11232998D01*
X19327472Y-11226998D01*
X19325472Y-11220998D01*
X19324472Y-11214998D01*
X19322472Y-11208997D01*
X19322472Y-11202998D01*
X19321472Y-11195998D01*
X19321471Y-11189998D01*
X19321472Y-10689998D01*
X19321471Y-10683998D01*
X19322472Y-10676999D01*
X19322472Y-10670998D01*
X19324472Y-10664998D01*
X19325472Y-10658998D01*
X19327472Y-10652999D01*
X19329472Y-10646998D01*
X19331472Y-10640998D01*
X19334472Y-10635998D01*
X19337472Y-10629998D01*
X19340472Y-10624998D01*
X19344472Y-10618998D01*
X19348472Y-10613998D01*
X19352472Y-10609998D01*
X19356473Y-10604998D01*
X19361473Y-10600998D01*
X19365472Y-10596999D01*
X19370472Y-10592998D01*
X19376472Y-10588998D01*
X19381472Y-10585998D01*
X19387472Y-10582999D01*
X19392472Y-10579998D01*
X19398472Y-10577998D01*
X19404472Y-10575998D01*
X19410472Y-10573998D01*
X19416472Y-10572999D01*
X19422472Y-10570998D01*
X19428472Y-10570998D01*
X19435472Y-10569998D01*
X19441472Y-10569998D01*
X19591472Y-10569998D01*
X19597472Y-10569998D01*
X19604472Y-10570998D01*
G37*
X20104472Y-15370997D02*
X20110472Y-15370998D01*
X20116472Y-15372998D01*
X20122472Y-15373998D01*
X20128472Y-15375997D01*
X20134472Y-15377998D01*
X20140472Y-15379998D01*
X20145472Y-15382998D01*
X20151472Y-15385998D01*
X20156472Y-15388998D01*
X20162472Y-15392998D01*
X20167472Y-15396998D01*
X20171473Y-15400998D01*
X20176472Y-15404998D01*
X20180473Y-15409998D01*
X20184472Y-15413997D01*
X20188471Y-15418998D01*
X20192472Y-15424999D01*
X20195472Y-15429998D01*
X20198472Y-15435998D01*
X20201472Y-15440998D01*
X20203472Y-15446998D01*
X20205472Y-15452998D01*
X20207472Y-15458998D01*
X20208472Y-15464997D01*
X20210472Y-15470998D01*
X20210472Y-15476998D01*
X20211472Y-15483998D01*
X20211471Y-15489998D01*
X20211472Y-15989998D01*
X20211472Y-15995999D01*
X20210472Y-16002998D01*
X20210472Y-16008998D01*
X20208472Y-16014998D01*
X20207472Y-16020998D01*
X20205472Y-16026998D01*
X20203472Y-16032999D01*
X20201472Y-16038998D01*
X20198472Y-16043998D01*
X20195472Y-16049998D01*
X20192472Y-16054998D01*
X20188472Y-16060998D01*
X20184472Y-16065998D01*
X20180472Y-16069998D01*
X20176472Y-16074998D01*
X20171472Y-16078998D01*
X20167472Y-16082998D01*
X20162472Y-16086998D01*
X20156472Y-16090998D01*
X20151472Y-16093999D01*
X20145471Y-16096998D01*
X20140472Y-16099998D01*
X20134472Y-16101998D01*
X20128472Y-16103998D01*
X20122472Y-16105998D01*
X20116472Y-16106998D01*
X20110472Y-16108998D01*
X20104472Y-16108998D01*
X20097472Y-16109998D01*
X20091472Y-16109998D01*
X19941472Y-16109998D01*
X19935472Y-16109998D01*
X19928472Y-16108998D01*
X19922472Y-16108998D01*
X19916472Y-16106998D01*
X19910472Y-16105998D01*
X19904472Y-16103998D01*
X19898472Y-16101997D01*
X19892472Y-16099998D01*
X19887472Y-16096998D01*
X19881472Y-16093998D01*
X19876472Y-16090998D01*
X19870472Y-16086998D01*
X19865472Y-16082998D01*
X19861472Y-16078998D01*
X19856472Y-16074998D01*
X19852472Y-16069998D01*
X19848472Y-16065998D01*
X19844472Y-16060998D01*
X19840472Y-16054998D01*
X19837472Y-16049997D01*
X19834472Y-16043998D01*
X19831472Y-16038998D01*
X19829473Y-16032998D01*
X19827472Y-16026998D01*
X19825472Y-16020998D01*
X19824472Y-16014998D01*
X19822471Y-16008998D01*
X19822472Y-16002998D01*
X19821472Y-15995998D01*
X19821472Y-15989998D01*
X19821472Y-15489998D01*
X19821472Y-15483998D01*
X19822472Y-15476998D01*
X19822472Y-15470998D01*
X19824472Y-15464997D01*
X19825472Y-15458998D01*
X19827472Y-15452999D01*
X19829472Y-15446998D01*
X19831472Y-15440998D01*
X19834472Y-15435998D01*
X19837472Y-15429998D01*
X19840472Y-15424998D01*
X19844472Y-15418998D01*
X19848472Y-15413998D01*
X19852473Y-15409998D01*
X19856472Y-15404999D01*
X19861472Y-15400999D01*
X19865472Y-15396998D01*
X19870472Y-15392998D01*
X19876472Y-15388998D01*
X19881472Y-15385998D01*
X19887472Y-15382998D01*
X19892472Y-15379998D01*
X19898472Y-15377998D01*
X19904473Y-15375998D01*
X19910472Y-15373998D01*
X19916471Y-15372998D01*
X19922472Y-15370998D01*
X19928472Y-15370998D01*
X19935472Y-15369998D01*
X19941472Y-15369998D01*
X20091472Y-15369998D01*
X20097472Y-15369998D01*
X20104472Y-15370997D01*
G36*
X20104472Y-15370997D02*
G01*
X20110472Y-15370998D01*
X20116472Y-15372998D01*
X20122472Y-15373998D01*
X20128472Y-15375997D01*
X20134472Y-15377998D01*
X20140472Y-15379998D01*
X20145472Y-15382998D01*
X20151472Y-15385998D01*
X20156472Y-15388998D01*
X20162472Y-15392998D01*
X20167472Y-15396998D01*
X20171473Y-15400998D01*
X20176472Y-15404998D01*
X20180473Y-15409998D01*
X20184472Y-15413997D01*
X20188471Y-15418998D01*
X20192472Y-15424999D01*
X20195472Y-15429998D01*
X20198472Y-15435998D01*
X20201472Y-15440998D01*
X20203472Y-15446998D01*
X20205472Y-15452998D01*
X20207472Y-15458998D01*
X20208472Y-15464997D01*
X20210472Y-15470998D01*
X20210472Y-15476998D01*
X20211472Y-15483998D01*
X20211471Y-15489998D01*
X20211472Y-15989998D01*
X20211472Y-15995999D01*
X20210472Y-16002998D01*
X20210472Y-16008998D01*
X20208472Y-16014998D01*
X20207472Y-16020998D01*
X20205472Y-16026998D01*
X20203472Y-16032999D01*
X20201472Y-16038998D01*
X20198472Y-16043998D01*
X20195472Y-16049998D01*
X20192472Y-16054998D01*
X20188472Y-16060998D01*
X20184472Y-16065998D01*
X20180472Y-16069998D01*
X20176472Y-16074998D01*
X20171472Y-16078998D01*
X20167472Y-16082998D01*
X20162472Y-16086998D01*
X20156472Y-16090998D01*
X20151472Y-16093999D01*
X20145471Y-16096998D01*
X20140472Y-16099998D01*
X20134472Y-16101998D01*
X20128472Y-16103998D01*
X20122472Y-16105998D01*
X20116472Y-16106998D01*
X20110472Y-16108998D01*
X20104472Y-16108998D01*
X20097472Y-16109998D01*
X20091472Y-16109998D01*
X19941472Y-16109998D01*
X19935472Y-16109998D01*
X19928472Y-16108998D01*
X19922472Y-16108998D01*
X19916472Y-16106998D01*
X19910472Y-16105998D01*
X19904472Y-16103998D01*
X19898472Y-16101997D01*
X19892472Y-16099998D01*
X19887472Y-16096998D01*
X19881472Y-16093998D01*
X19876472Y-16090998D01*
X19870472Y-16086998D01*
X19865472Y-16082998D01*
X19861472Y-16078998D01*
X19856472Y-16074998D01*
X19852472Y-16069998D01*
X19848472Y-16065998D01*
X19844472Y-16060998D01*
X19840472Y-16054998D01*
X19837472Y-16049997D01*
X19834472Y-16043998D01*
X19831472Y-16038998D01*
X19829473Y-16032998D01*
X19827472Y-16026998D01*
X19825472Y-16020998D01*
X19824472Y-16014998D01*
X19822471Y-16008998D01*
X19822472Y-16002998D01*
X19821472Y-15995998D01*
X19821472Y-15989998D01*
X19821472Y-15489998D01*
X19821472Y-15483998D01*
X19822472Y-15476998D01*
X19822472Y-15470998D01*
X19824472Y-15464997D01*
X19825472Y-15458998D01*
X19827472Y-15452999D01*
X19829472Y-15446998D01*
X19831472Y-15440998D01*
X19834472Y-15435998D01*
X19837472Y-15429998D01*
X19840472Y-15424998D01*
X19844472Y-15418998D01*
X19848472Y-15413998D01*
X19852473Y-15409998D01*
X19856472Y-15404999D01*
X19861472Y-15400999D01*
X19865472Y-15396998D01*
X19870472Y-15392998D01*
X19876472Y-15388998D01*
X19881472Y-15385998D01*
X19887472Y-15382998D01*
X19892472Y-15379998D01*
X19898472Y-15377998D01*
X19904473Y-15375998D01*
X19910472Y-15373998D01*
X19916471Y-15372998D01*
X19922472Y-15370998D01*
X19928472Y-15370998D01*
X19935472Y-15369998D01*
X19941472Y-15369998D01*
X20091472Y-15369998D01*
X20097472Y-15369998D01*
X20104472Y-15370997D01*
G37*
X20104472Y-10570998D02*
X20110472Y-10570998D01*
X20116472Y-10572998D01*
X20122472Y-10573998D01*
X20128472Y-10575998D01*
X20134472Y-10577998D01*
X20140472Y-10579998D01*
X20145471Y-10582998D01*
X20151472Y-10585997D01*
X20156472Y-10588998D01*
X20162472Y-10592998D01*
X20167472Y-10596998D01*
X20171472Y-10600998D01*
X20176472Y-10604998D01*
X20180472Y-10609998D01*
X20184472Y-10613998D01*
X20188472Y-10618998D01*
X20192472Y-10624998D01*
X20195472Y-10629998D01*
X20198472Y-10635998D01*
X20201472Y-10640998D01*
X20203472Y-10646997D01*
X20205472Y-10652998D01*
X20207472Y-10658998D01*
X20208472Y-10664998D01*
X20210472Y-10670998D01*
X20210472Y-10676998D01*
X20211472Y-10683997D01*
X20211472Y-10689998D01*
X20211471Y-11189998D01*
X20211472Y-11195998D01*
X20210472Y-11202998D01*
X20210472Y-11208998D01*
X20208472Y-11214999D01*
X20207472Y-11220998D01*
X20205472Y-11226998D01*
X20203472Y-11232998D01*
X20201472Y-11238998D01*
X20198472Y-11243998D01*
X20195472Y-11249998D01*
X20192472Y-11254997D01*
X20188471Y-11260998D01*
X20184472Y-11265999D01*
X20180473Y-11269998D01*
X20176472Y-11274998D01*
X20171473Y-11278998D01*
X20167472Y-11282998D01*
X20162472Y-11286998D01*
X20156472Y-11290998D01*
X20151472Y-11293998D01*
X20145472Y-11296998D01*
X20140472Y-11299998D01*
X20134472Y-11301998D01*
X20128472Y-11303999D01*
X20122472Y-11305998D01*
X20116472Y-11306998D01*
X20110472Y-11308998D01*
X20104472Y-11308999D01*
X20097472Y-11309998D01*
X20091472Y-11309998D01*
X19941472Y-11309998D01*
X19935472Y-11309998D01*
X19928472Y-11308998D01*
X19922472Y-11308998D01*
X19916471Y-11306998D01*
X19910472Y-11305998D01*
X19904473Y-11303998D01*
X19898472Y-11301998D01*
X19892472Y-11299998D01*
X19887472Y-11296998D01*
X19881472Y-11293998D01*
X19876472Y-11290998D01*
X19870472Y-11286998D01*
X19865472Y-11282998D01*
X19861472Y-11278997D01*
X19856472Y-11274997D01*
X19852473Y-11269998D01*
X19848472Y-11265998D01*
X19844472Y-11260998D01*
X19840472Y-11254998D01*
X19837472Y-11249998D01*
X19834472Y-11243998D01*
X19831472Y-11238998D01*
X19829472Y-11232998D01*
X19827472Y-11226997D01*
X19825472Y-11220998D01*
X19824472Y-11214999D01*
X19822472Y-11208998D01*
X19822472Y-11202998D01*
X19821472Y-11195998D01*
X19821472Y-11189998D01*
X19821472Y-10689998D01*
X19821472Y-10683998D01*
X19822472Y-10676998D01*
X19822471Y-10670998D01*
X19824472Y-10664998D01*
X19825472Y-10658998D01*
X19827472Y-10652998D01*
X19829473Y-10646998D01*
X19831472Y-10640998D01*
X19834472Y-10635998D01*
X19837472Y-10629999D01*
X19840472Y-10624998D01*
X19844472Y-10618998D01*
X19848472Y-10613998D01*
X19852472Y-10609998D01*
X19856472Y-10604998D01*
X19861472Y-10600998D01*
X19865472Y-10596998D01*
X19870472Y-10592998D01*
X19876472Y-10588998D01*
X19881472Y-10585998D01*
X19887472Y-10582998D01*
X19892472Y-10579998D01*
X19898472Y-10577999D01*
X19904472Y-10575998D01*
X19910472Y-10573998D01*
X19916472Y-10572998D01*
X19922472Y-10570998D01*
X19928472Y-10570998D01*
X19935472Y-10569998D01*
X19941472Y-10569998D01*
X20091472Y-10569998D01*
X20097472Y-10569998D01*
X20104472Y-10570998D01*
G36*
X20104472Y-10570998D02*
G01*
X20110472Y-10570998D01*
X20116472Y-10572998D01*
X20122472Y-10573998D01*
X20128472Y-10575998D01*
X20134472Y-10577998D01*
X20140472Y-10579998D01*
X20145471Y-10582998D01*
X20151472Y-10585997D01*
X20156472Y-10588998D01*
X20162472Y-10592998D01*
X20167472Y-10596998D01*
X20171472Y-10600998D01*
X20176472Y-10604998D01*
X20180472Y-10609998D01*
X20184472Y-10613998D01*
X20188472Y-10618998D01*
X20192472Y-10624998D01*
X20195472Y-10629998D01*
X20198472Y-10635998D01*
X20201472Y-10640998D01*
X20203472Y-10646997D01*
X20205472Y-10652998D01*
X20207472Y-10658998D01*
X20208472Y-10664998D01*
X20210472Y-10670998D01*
X20210472Y-10676998D01*
X20211472Y-10683997D01*
X20211472Y-10689998D01*
X20211471Y-11189998D01*
X20211472Y-11195998D01*
X20210472Y-11202998D01*
X20210472Y-11208998D01*
X20208472Y-11214999D01*
X20207472Y-11220998D01*
X20205472Y-11226998D01*
X20203472Y-11232998D01*
X20201472Y-11238998D01*
X20198472Y-11243998D01*
X20195472Y-11249998D01*
X20192472Y-11254997D01*
X20188471Y-11260998D01*
X20184472Y-11265999D01*
X20180473Y-11269998D01*
X20176472Y-11274998D01*
X20171473Y-11278998D01*
X20167472Y-11282998D01*
X20162472Y-11286998D01*
X20156472Y-11290998D01*
X20151472Y-11293998D01*
X20145472Y-11296998D01*
X20140472Y-11299998D01*
X20134472Y-11301998D01*
X20128472Y-11303999D01*
X20122472Y-11305998D01*
X20116472Y-11306998D01*
X20110472Y-11308998D01*
X20104472Y-11308999D01*
X20097472Y-11309998D01*
X20091472Y-11309998D01*
X19941472Y-11309998D01*
X19935472Y-11309998D01*
X19928472Y-11308998D01*
X19922472Y-11308998D01*
X19916471Y-11306998D01*
X19910472Y-11305998D01*
X19904473Y-11303998D01*
X19898472Y-11301998D01*
X19892472Y-11299998D01*
X19887472Y-11296998D01*
X19881472Y-11293998D01*
X19876472Y-11290998D01*
X19870472Y-11286998D01*
X19865472Y-11282998D01*
X19861472Y-11278997D01*
X19856472Y-11274997D01*
X19852473Y-11269998D01*
X19848472Y-11265998D01*
X19844472Y-11260998D01*
X19840472Y-11254998D01*
X19837472Y-11249998D01*
X19834472Y-11243998D01*
X19831472Y-11238998D01*
X19829472Y-11232998D01*
X19827472Y-11226997D01*
X19825472Y-11220998D01*
X19824472Y-11214999D01*
X19822472Y-11208998D01*
X19822472Y-11202998D01*
X19821472Y-11195998D01*
X19821472Y-11189998D01*
X19821472Y-10689998D01*
X19821472Y-10683998D01*
X19822472Y-10676998D01*
X19822471Y-10670998D01*
X19824472Y-10664998D01*
X19825472Y-10658998D01*
X19827472Y-10652998D01*
X19829473Y-10646998D01*
X19831472Y-10640998D01*
X19834472Y-10635998D01*
X19837472Y-10629999D01*
X19840472Y-10624998D01*
X19844472Y-10618998D01*
X19848472Y-10613998D01*
X19852472Y-10609998D01*
X19856472Y-10604998D01*
X19861472Y-10600998D01*
X19865472Y-10596998D01*
X19870472Y-10592998D01*
X19876472Y-10588998D01*
X19881472Y-10585998D01*
X19887472Y-10582998D01*
X19892472Y-10579998D01*
X19898472Y-10577999D01*
X19904472Y-10575998D01*
X19910472Y-10573998D01*
X19916472Y-10572998D01*
X19922472Y-10570998D01*
X19928472Y-10570998D01*
X19935472Y-10569998D01*
X19941472Y-10569998D01*
X20091472Y-10569998D01*
X20097472Y-10569998D01*
X20104472Y-10570998D01*
G37*
X20929472Y-11105998D02*
X20935472Y-11105998D01*
X20941472Y-11107998D01*
X20947472Y-11108998D01*
X20953472Y-11110998D01*
X20959472Y-11112998D01*
X20965472Y-11114998D01*
X20970472Y-11117998D01*
X20976473Y-11120998D01*
X20981473Y-11123998D01*
X20987472Y-11127998D01*
X20992472Y-11131998D01*
X20996472Y-11135998D01*
X21001472Y-11139998D01*
X21005472Y-11144998D01*
X21009472Y-11148998D01*
X21013472Y-11153998D01*
X21017472Y-11159998D01*
X21020472Y-11164998D01*
X21023472Y-11170998D01*
X21026472Y-11175998D01*
X21028472Y-11181998D01*
X21030472Y-11187998D01*
X21032472Y-11193998D01*
X21033472Y-11199998D01*
X21035472Y-11205998D01*
X21035472Y-11211998D01*
X21036472Y-11218999D01*
X21036472Y-11224998D01*
X21036472Y-11374998D01*
X21036472Y-11380998D01*
X21035471Y-11387998D01*
X21035472Y-11393998D01*
X21033472Y-11399998D01*
X21032472Y-11405998D01*
X21030471Y-11411998D01*
X21028472Y-11417998D01*
X21026472Y-11423997D01*
X21023473Y-11428998D01*
X21020472Y-11434998D01*
X21017472Y-11439998D01*
X21013472Y-11445998D01*
X21009472Y-11450998D01*
X21005472Y-11454998D01*
X21001472Y-11459998D01*
X20996472Y-11463998D01*
X20992472Y-11467998D01*
X20987472Y-11471998D01*
X20981472Y-11475998D01*
X20976472Y-11478998D01*
X20970472Y-11481999D01*
X20965472Y-11484997D01*
X20959472Y-11486998D01*
X20953472Y-11488998D01*
X20947472Y-11490998D01*
X20941472Y-11491998D01*
X20935472Y-11493998D01*
X20929472Y-11493997D01*
X20922472Y-11494998D01*
X20916472Y-11494998D01*
X20366471Y-11494998D01*
X20360472Y-11494998D01*
X20353472Y-11493998D01*
X20347472Y-11493997D01*
X20341472Y-11491998D01*
X20335472Y-11490998D01*
X20329472Y-11488998D01*
X20323472Y-11486998D01*
X20317472Y-11484998D01*
X20312472Y-11481998D01*
X20306472Y-11478998D01*
X20301472Y-11475997D01*
X20295471Y-11471998D01*
X20290472Y-11467998D01*
X20286472Y-11463998D01*
X20281472Y-11459998D01*
X20277472Y-11454998D01*
X20273472Y-11450998D01*
X20269472Y-11445998D01*
X20265472Y-11439998D01*
X20262472Y-11434998D01*
X20259472Y-11428998D01*
X20256472Y-11423998D01*
X20254472Y-11417998D01*
X20252472Y-11411998D01*
X20250473Y-11405998D01*
X20249472Y-11399998D01*
X20247472Y-11393998D01*
X20247472Y-11387998D01*
X20246472Y-11380998D01*
X20246472Y-11374998D01*
X20246472Y-11224998D01*
X20246472Y-11218998D01*
X20247472Y-11211998D01*
X20247472Y-11205998D01*
X20249471Y-11199998D01*
X20250472Y-11193998D01*
X20252472Y-11187998D01*
X20254472Y-11181998D01*
X20256472Y-11175998D01*
X20259472Y-11170997D01*
X20262472Y-11164998D01*
X20265472Y-11159998D01*
X20269473Y-11153998D01*
X20273472Y-11148999D01*
X20277472Y-11144999D01*
X20281471Y-11139998D01*
X20286472Y-11135998D01*
X20290472Y-11131998D01*
X20295472Y-11127998D01*
X20301472Y-11123998D01*
X20306472Y-11120998D01*
X20312472Y-11117998D01*
X20317472Y-11114998D01*
X20323472Y-11112998D01*
X20329472Y-11110997D01*
X20335472Y-11108998D01*
X20341472Y-11107998D01*
X20347472Y-11105998D01*
X20353473Y-11105998D01*
X20360472Y-11104998D01*
X20366472Y-11104998D01*
X20916472Y-11104998D01*
X20922472Y-11104998D01*
X20929472Y-11105998D01*
G36*
X20929472Y-11105998D02*
G01*
X20935472Y-11105998D01*
X20941472Y-11107998D01*
X20947472Y-11108998D01*
X20953472Y-11110998D01*
X20959472Y-11112998D01*
X20965472Y-11114998D01*
X20970472Y-11117998D01*
X20976473Y-11120998D01*
X20981473Y-11123998D01*
X20987472Y-11127998D01*
X20992472Y-11131998D01*
X20996472Y-11135998D01*
X21001472Y-11139998D01*
X21005472Y-11144998D01*
X21009472Y-11148998D01*
X21013472Y-11153998D01*
X21017472Y-11159998D01*
X21020472Y-11164998D01*
X21023472Y-11170998D01*
X21026472Y-11175998D01*
X21028472Y-11181998D01*
X21030472Y-11187998D01*
X21032472Y-11193998D01*
X21033472Y-11199998D01*
X21035472Y-11205998D01*
X21035472Y-11211998D01*
X21036472Y-11218999D01*
X21036472Y-11224998D01*
X21036472Y-11374998D01*
X21036472Y-11380998D01*
X21035471Y-11387998D01*
X21035472Y-11393998D01*
X21033472Y-11399998D01*
X21032472Y-11405998D01*
X21030471Y-11411998D01*
X21028472Y-11417998D01*
X21026472Y-11423997D01*
X21023473Y-11428998D01*
X21020472Y-11434998D01*
X21017472Y-11439998D01*
X21013472Y-11445998D01*
X21009472Y-11450998D01*
X21005472Y-11454998D01*
X21001472Y-11459998D01*
X20996472Y-11463998D01*
X20992472Y-11467998D01*
X20987472Y-11471998D01*
X20981472Y-11475998D01*
X20976472Y-11478998D01*
X20970472Y-11481999D01*
X20965472Y-11484997D01*
X20959472Y-11486998D01*
X20953472Y-11488998D01*
X20947472Y-11490998D01*
X20941472Y-11491998D01*
X20935472Y-11493998D01*
X20929472Y-11493997D01*
X20922472Y-11494998D01*
X20916472Y-11494998D01*
X20366471Y-11494998D01*
X20360472Y-11494998D01*
X20353472Y-11493998D01*
X20347472Y-11493997D01*
X20341472Y-11491998D01*
X20335472Y-11490998D01*
X20329472Y-11488998D01*
X20323472Y-11486998D01*
X20317472Y-11484998D01*
X20312472Y-11481998D01*
X20306472Y-11478998D01*
X20301472Y-11475997D01*
X20295471Y-11471998D01*
X20290472Y-11467998D01*
X20286472Y-11463998D01*
X20281472Y-11459998D01*
X20277472Y-11454998D01*
X20273472Y-11450998D01*
X20269472Y-11445998D01*
X20265472Y-11439998D01*
X20262472Y-11434998D01*
X20259472Y-11428998D01*
X20256472Y-11423998D01*
X20254472Y-11417998D01*
X20252472Y-11411998D01*
X20250473Y-11405998D01*
X20249472Y-11399998D01*
X20247472Y-11393998D01*
X20247472Y-11387998D01*
X20246472Y-11380998D01*
X20246472Y-11374998D01*
X20246472Y-11224998D01*
X20246472Y-11218998D01*
X20247472Y-11211998D01*
X20247472Y-11205998D01*
X20249471Y-11199998D01*
X20250472Y-11193998D01*
X20252472Y-11187998D01*
X20254472Y-11181998D01*
X20256472Y-11175998D01*
X20259472Y-11170997D01*
X20262472Y-11164998D01*
X20265472Y-11159998D01*
X20269473Y-11153998D01*
X20273472Y-11148999D01*
X20277472Y-11144999D01*
X20281471Y-11139998D01*
X20286472Y-11135998D01*
X20290472Y-11131998D01*
X20295472Y-11127998D01*
X20301472Y-11123998D01*
X20306472Y-11120998D01*
X20312472Y-11117998D01*
X20317472Y-11114998D01*
X20323472Y-11112998D01*
X20329472Y-11110997D01*
X20335472Y-11108998D01*
X20341472Y-11107998D01*
X20347472Y-11105998D01*
X20353473Y-11105998D01*
X20360472Y-11104998D01*
X20366472Y-11104998D01*
X20916472Y-11104998D01*
X20922472Y-11104998D01*
X20929472Y-11105998D01*
G37*
X20929472Y-15185999D02*
X20935472Y-15185998D01*
X20941472Y-15187998D01*
X20947472Y-15188998D01*
X20953472Y-15190998D01*
X20959472Y-15192998D01*
X20965472Y-15194999D01*
X20970472Y-15197997D01*
X20976472Y-15200998D01*
X20981472Y-15203998D01*
X20987472Y-15207998D01*
X20992472Y-15211998D01*
X20996472Y-15215998D01*
X21001472Y-15219998D01*
X21005472Y-15224998D01*
X21009472Y-15228998D01*
X21013472Y-15233998D01*
X21017472Y-15239998D01*
X21020472Y-15244998D01*
X21023473Y-15250998D01*
X21026472Y-15255999D01*
X21028472Y-15261998D01*
X21030471Y-15267998D01*
X21032472Y-15273998D01*
X21033472Y-15279998D01*
X21035472Y-15285998D01*
X21035471Y-15291998D01*
X21036472Y-15298998D01*
X21036472Y-15304998D01*
X21036472Y-15454998D01*
X21036472Y-15460997D01*
X21035472Y-15467998D01*
X21035472Y-15473998D01*
X21033472Y-15479998D01*
X21032472Y-15485998D01*
X21030472Y-15491998D01*
X21028472Y-15497998D01*
X21026472Y-15503998D01*
X21023472Y-15508998D01*
X21020472Y-15514998D01*
X21017472Y-15519998D01*
X21013472Y-15525998D01*
X21009472Y-15530998D01*
X21005472Y-15534998D01*
X21001472Y-15539998D01*
X20996472Y-15543998D01*
X20992472Y-15547998D01*
X20987472Y-15551998D01*
X20981473Y-15555998D01*
X20976473Y-15558998D01*
X20970472Y-15561998D01*
X20965472Y-15564998D01*
X20959472Y-15566998D01*
X20953472Y-15568998D01*
X20947472Y-15570998D01*
X20941472Y-15571998D01*
X20935472Y-15573998D01*
X20929472Y-15573998D01*
X20922472Y-15574998D01*
X20916472Y-15574998D01*
X20366472Y-15574998D01*
X20360472Y-15574998D01*
X20353473Y-15573998D01*
X20347472Y-15573998D01*
X20341472Y-15571998D01*
X20335472Y-15570998D01*
X20329472Y-15568999D01*
X20323472Y-15566998D01*
X20317472Y-15564998D01*
X20312472Y-15561998D01*
X20306472Y-15558998D01*
X20301472Y-15555998D01*
X20295472Y-15551998D01*
X20290472Y-15547998D01*
X20286472Y-15543998D01*
X20281471Y-15539998D01*
X20277472Y-15534997D01*
X20273472Y-15530997D01*
X20269473Y-15525998D01*
X20265472Y-15519998D01*
X20262472Y-15514998D01*
X20259472Y-15508999D01*
X20256472Y-15503998D01*
X20254472Y-15497998D01*
X20252472Y-15491998D01*
X20250472Y-15485998D01*
X20249471Y-15479998D01*
X20247472Y-15473998D01*
X20247472Y-15467998D01*
X20246472Y-15460998D01*
X20246472Y-15454998D01*
X20246472Y-15304998D01*
X20246472Y-15298998D01*
X20247472Y-15291998D01*
X20247472Y-15285998D01*
X20249472Y-15279998D01*
X20250473Y-15273998D01*
X20252472Y-15267998D01*
X20254472Y-15261998D01*
X20256472Y-15255998D01*
X20259472Y-15250998D01*
X20262472Y-15244998D01*
X20265472Y-15239998D01*
X20269472Y-15233998D01*
X20273472Y-15228998D01*
X20277472Y-15224998D01*
X20281472Y-15219998D01*
X20286472Y-15215998D01*
X20290472Y-15211998D01*
X20295471Y-15207998D01*
X20301472Y-15203999D01*
X20306472Y-15200998D01*
X20312472Y-15197998D01*
X20317472Y-15194998D01*
X20323472Y-15192998D01*
X20329472Y-15190998D01*
X20335472Y-15188998D01*
X20341472Y-15187998D01*
X20347472Y-15185999D01*
X20353472Y-15185998D01*
X20360472Y-15184998D01*
X20366471Y-15184998D01*
X20916472Y-15184998D01*
X20922472Y-15184998D01*
X20929472Y-15185999D01*
G36*
X20929472Y-15185999D02*
G01*
X20935472Y-15185998D01*
X20941472Y-15187998D01*
X20947472Y-15188998D01*
X20953472Y-15190998D01*
X20959472Y-15192998D01*
X20965472Y-15194999D01*
X20970472Y-15197997D01*
X20976472Y-15200998D01*
X20981472Y-15203998D01*
X20987472Y-15207998D01*
X20992472Y-15211998D01*
X20996472Y-15215998D01*
X21001472Y-15219998D01*
X21005472Y-15224998D01*
X21009472Y-15228998D01*
X21013472Y-15233998D01*
X21017472Y-15239998D01*
X21020472Y-15244998D01*
X21023473Y-15250998D01*
X21026472Y-15255999D01*
X21028472Y-15261998D01*
X21030471Y-15267998D01*
X21032472Y-15273998D01*
X21033472Y-15279998D01*
X21035472Y-15285998D01*
X21035471Y-15291998D01*
X21036472Y-15298998D01*
X21036472Y-15304998D01*
X21036472Y-15454998D01*
X21036472Y-15460997D01*
X21035472Y-15467998D01*
X21035472Y-15473998D01*
X21033472Y-15479998D01*
X21032472Y-15485998D01*
X21030472Y-15491998D01*
X21028472Y-15497998D01*
X21026472Y-15503998D01*
X21023472Y-15508998D01*
X21020472Y-15514998D01*
X21017472Y-15519998D01*
X21013472Y-15525998D01*
X21009472Y-15530998D01*
X21005472Y-15534998D01*
X21001472Y-15539998D01*
X20996472Y-15543998D01*
X20992472Y-15547998D01*
X20987472Y-15551998D01*
X20981473Y-15555998D01*
X20976473Y-15558998D01*
X20970472Y-15561998D01*
X20965472Y-15564998D01*
X20959472Y-15566998D01*
X20953472Y-15568998D01*
X20947472Y-15570998D01*
X20941472Y-15571998D01*
X20935472Y-15573998D01*
X20929472Y-15573998D01*
X20922472Y-15574998D01*
X20916472Y-15574998D01*
X20366472Y-15574998D01*
X20360472Y-15574998D01*
X20353473Y-15573998D01*
X20347472Y-15573998D01*
X20341472Y-15571998D01*
X20335472Y-15570998D01*
X20329472Y-15568999D01*
X20323472Y-15566998D01*
X20317472Y-15564998D01*
X20312472Y-15561998D01*
X20306472Y-15558998D01*
X20301472Y-15555998D01*
X20295472Y-15551998D01*
X20290472Y-15547998D01*
X20286472Y-15543998D01*
X20281471Y-15539998D01*
X20277472Y-15534997D01*
X20273472Y-15530997D01*
X20269473Y-15525998D01*
X20265472Y-15519998D01*
X20262472Y-15514998D01*
X20259472Y-15508999D01*
X20256472Y-15503998D01*
X20254472Y-15497998D01*
X20252472Y-15491998D01*
X20250472Y-15485998D01*
X20249471Y-15479998D01*
X20247472Y-15473998D01*
X20247472Y-15467998D01*
X20246472Y-15460998D01*
X20246472Y-15454998D01*
X20246472Y-15304998D01*
X20246472Y-15298998D01*
X20247472Y-15291998D01*
X20247472Y-15285998D01*
X20249472Y-15279998D01*
X20250473Y-15273998D01*
X20252472Y-15267998D01*
X20254472Y-15261998D01*
X20256472Y-15255998D01*
X20259472Y-15250998D01*
X20262472Y-15244998D01*
X20265472Y-15239998D01*
X20269472Y-15233998D01*
X20273472Y-15228998D01*
X20277472Y-15224998D01*
X20281472Y-15219998D01*
X20286472Y-15215998D01*
X20290472Y-15211998D01*
X20295471Y-15207998D01*
X20301472Y-15203999D01*
X20306472Y-15200998D01*
X20312472Y-15197998D01*
X20317472Y-15194998D01*
X20323472Y-15192998D01*
X20329472Y-15190998D01*
X20335472Y-15188998D01*
X20341472Y-15187998D01*
X20347472Y-15185999D01*
X20353472Y-15185998D01*
X20360472Y-15184998D01*
X20366471Y-15184998D01*
X20916472Y-15184998D01*
X20922472Y-15184998D01*
X20929472Y-15185999D01*
G37*
X20929472Y-11605998D02*
X20935472Y-11605998D01*
X20941472Y-11607998D01*
X20947472Y-11608998D01*
X20953473Y-11610998D01*
X20959472Y-11612998D01*
X20965472Y-11614998D01*
X20970472Y-11617998D01*
X20976472Y-11620998D01*
X20981472Y-11623998D01*
X20987472Y-11627998D01*
X20992472Y-11631998D01*
X20996472Y-11635998D01*
X21001472Y-11639998D01*
X21005472Y-11644998D01*
X21009473Y-11648998D01*
X21013473Y-11653998D01*
X21017472Y-11659999D01*
X21020472Y-11664998D01*
X21023472Y-11670998D01*
X21026472Y-11675998D01*
X21028472Y-11681998D01*
X21030472Y-11687998D01*
X21032472Y-11693998D01*
X21033472Y-11699998D01*
X21035471Y-11705998D01*
X21035472Y-11711998D01*
X21036472Y-11718998D01*
X21036472Y-11724999D01*
X21036472Y-11874999D01*
X21036472Y-11880998D01*
X21035472Y-11887998D01*
X21035471Y-11893998D01*
X21033472Y-11899998D01*
X21032472Y-11905997D01*
X21030472Y-11911998D01*
X21028472Y-11917998D01*
X21026472Y-11923998D01*
X21023472Y-11928998D01*
X21020472Y-11934998D01*
X21017471Y-11939998D01*
X21013472Y-11945998D01*
X21009472Y-11950998D01*
X21005472Y-11954998D01*
X21001472Y-11959998D01*
X20996472Y-11963998D01*
X20992472Y-11967998D01*
X20987472Y-11971998D01*
X20981472Y-11975998D01*
X20976472Y-11978998D01*
X20970472Y-11981998D01*
X20965472Y-11984998D01*
X20959472Y-11986998D01*
X20953472Y-11988998D01*
X20947472Y-11990997D01*
X20941472Y-11991998D01*
X20935472Y-11993998D01*
X20929472Y-11993998D01*
X20922472Y-11994998D01*
X20916472Y-11994998D01*
X20416472Y-11994998D01*
X20410472Y-11994998D01*
X20403472Y-11993998D01*
X20397472Y-11993998D01*
X20391472Y-11991998D01*
X20385472Y-11990997D01*
X20379472Y-11988998D01*
X20373472Y-11986998D01*
X20367472Y-11984998D01*
X20362472Y-11981998D01*
X20356472Y-11978998D01*
X20351472Y-11975998D01*
X20345472Y-11971998D01*
X20340472Y-11967998D01*
X20336472Y-11963998D01*
X20331472Y-11959998D01*
X20327472Y-11954998D01*
X20323472Y-11950998D01*
X20319472Y-11945998D01*
X20315473Y-11939998D01*
X20312472Y-11934998D01*
X20309472Y-11928998D01*
X20306472Y-11923998D01*
X20304472Y-11917998D01*
X20302472Y-11911998D01*
X20300472Y-11905997D01*
X20299472Y-11899998D01*
X20297472Y-11893999D01*
X20297472Y-11887998D01*
X20296472Y-11880998D01*
X20296472Y-11874999D01*
X20296472Y-11724999D01*
X20296472Y-11718998D01*
X20297472Y-11711998D01*
X20297473Y-11705998D01*
X20299472Y-11699998D01*
X20300472Y-11693998D01*
X20302472Y-11687998D01*
X20304472Y-11681998D01*
X20306472Y-11675998D01*
X20309472Y-11670998D01*
X20312472Y-11664998D01*
X20315472Y-11659999D01*
X20319471Y-11653998D01*
X20323471Y-11648998D01*
X20327472Y-11644998D01*
X20331472Y-11639998D01*
X20336472Y-11635998D01*
X20340472Y-11631998D01*
X20345472Y-11627998D01*
X20351472Y-11623998D01*
X20356472Y-11620998D01*
X20362472Y-11617998D01*
X20367472Y-11614998D01*
X20373472Y-11612998D01*
X20379472Y-11610998D01*
X20385472Y-11608998D01*
X20391472Y-11607998D01*
X20397472Y-11605998D01*
X20403472Y-11605998D01*
X20410472Y-11604998D01*
X20416472Y-11604998D01*
X20916472Y-11604998D01*
X20922472Y-11604998D01*
X20929472Y-11605998D01*
G36*
X20929472Y-11605998D02*
G01*
X20935472Y-11605998D01*
X20941472Y-11607998D01*
X20947472Y-11608998D01*
X20953473Y-11610998D01*
X20959472Y-11612998D01*
X20965472Y-11614998D01*
X20970472Y-11617998D01*
X20976472Y-11620998D01*
X20981472Y-11623998D01*
X20987472Y-11627998D01*
X20992472Y-11631998D01*
X20996472Y-11635998D01*
X21001472Y-11639998D01*
X21005472Y-11644998D01*
X21009473Y-11648998D01*
X21013473Y-11653998D01*
X21017472Y-11659999D01*
X21020472Y-11664998D01*
X21023472Y-11670998D01*
X21026472Y-11675998D01*
X21028472Y-11681998D01*
X21030472Y-11687998D01*
X21032472Y-11693998D01*
X21033472Y-11699998D01*
X21035471Y-11705998D01*
X21035472Y-11711998D01*
X21036472Y-11718998D01*
X21036472Y-11724999D01*
X21036472Y-11874999D01*
X21036472Y-11880998D01*
X21035472Y-11887998D01*
X21035471Y-11893998D01*
X21033472Y-11899998D01*
X21032472Y-11905997D01*
X21030472Y-11911998D01*
X21028472Y-11917998D01*
X21026472Y-11923998D01*
X21023472Y-11928998D01*
X21020472Y-11934998D01*
X21017471Y-11939998D01*
X21013472Y-11945998D01*
X21009472Y-11950998D01*
X21005472Y-11954998D01*
X21001472Y-11959998D01*
X20996472Y-11963998D01*
X20992472Y-11967998D01*
X20987472Y-11971998D01*
X20981472Y-11975998D01*
X20976472Y-11978998D01*
X20970472Y-11981998D01*
X20965472Y-11984998D01*
X20959472Y-11986998D01*
X20953472Y-11988998D01*
X20947472Y-11990997D01*
X20941472Y-11991998D01*
X20935472Y-11993998D01*
X20929472Y-11993998D01*
X20922472Y-11994998D01*
X20916472Y-11994998D01*
X20416472Y-11994998D01*
X20410472Y-11994998D01*
X20403472Y-11993998D01*
X20397472Y-11993998D01*
X20391472Y-11991998D01*
X20385472Y-11990997D01*
X20379472Y-11988998D01*
X20373472Y-11986998D01*
X20367472Y-11984998D01*
X20362472Y-11981998D01*
X20356472Y-11978998D01*
X20351472Y-11975998D01*
X20345472Y-11971998D01*
X20340472Y-11967998D01*
X20336472Y-11963998D01*
X20331472Y-11959998D01*
X20327472Y-11954998D01*
X20323472Y-11950998D01*
X20319472Y-11945998D01*
X20315473Y-11939998D01*
X20312472Y-11934998D01*
X20309472Y-11928998D01*
X20306472Y-11923998D01*
X20304472Y-11917998D01*
X20302472Y-11911998D01*
X20300472Y-11905997D01*
X20299472Y-11899998D01*
X20297472Y-11893999D01*
X20297472Y-11887998D01*
X20296472Y-11880998D01*
X20296472Y-11874999D01*
X20296472Y-11724999D01*
X20296472Y-11718998D01*
X20297472Y-11711998D01*
X20297473Y-11705998D01*
X20299472Y-11699998D01*
X20300472Y-11693998D01*
X20302472Y-11687998D01*
X20304472Y-11681998D01*
X20306472Y-11675998D01*
X20309472Y-11670998D01*
X20312472Y-11664998D01*
X20315472Y-11659999D01*
X20319471Y-11653998D01*
X20323471Y-11648998D01*
X20327472Y-11644998D01*
X20331472Y-11639998D01*
X20336472Y-11635998D01*
X20340472Y-11631998D01*
X20345472Y-11627998D01*
X20351472Y-11623998D01*
X20356472Y-11620998D01*
X20362472Y-11617998D01*
X20367472Y-11614998D01*
X20373472Y-11612998D01*
X20379472Y-11610998D01*
X20385472Y-11608998D01*
X20391472Y-11607998D01*
X20397472Y-11605998D01*
X20403472Y-11605998D01*
X20410472Y-11604998D01*
X20416472Y-11604998D01*
X20916472Y-11604998D01*
X20922472Y-11604998D01*
X20929472Y-11605998D01*
G37*
X20929472Y-14685998D02*
X20935472Y-14685998D01*
X20941472Y-14687998D01*
X20947472Y-14688999D01*
X20953472Y-14690998D01*
X20959472Y-14692998D01*
X20965472Y-14694998D01*
X20970472Y-14697998D01*
X20976472Y-14700998D01*
X20981472Y-14703998D01*
X20987472Y-14707998D01*
X20992472Y-14711998D01*
X20996472Y-14715998D01*
X21001472Y-14719998D01*
X21005472Y-14724998D01*
X21009472Y-14728998D01*
X21013472Y-14733998D01*
X21017471Y-14739998D01*
X21020472Y-14744998D01*
X21023472Y-14750998D01*
X21026472Y-14755998D01*
X21028472Y-14761998D01*
X21030472Y-14767998D01*
X21032472Y-14773999D01*
X21033472Y-14779998D01*
X21035471Y-14785998D01*
X21035472Y-14791998D01*
X21036472Y-14798998D01*
X21036472Y-14804997D01*
X21036472Y-14954997D01*
X21036472Y-14960998D01*
X21035472Y-14967998D01*
X21035471Y-14973998D01*
X21033472Y-14979998D01*
X21032472Y-14985998D01*
X21030472Y-14991998D01*
X21028472Y-14997998D01*
X21026472Y-15003998D01*
X21023472Y-15008998D01*
X21020472Y-15014998D01*
X21017472Y-15019997D01*
X21013473Y-15025998D01*
X21009473Y-15030998D01*
X21005472Y-15034998D01*
X21001472Y-15039998D01*
X20996472Y-15043998D01*
X20992472Y-15047998D01*
X20987472Y-15051998D01*
X20981472Y-15055998D01*
X20976472Y-15058998D01*
X20970472Y-15061998D01*
X20965472Y-15064998D01*
X20959472Y-15066998D01*
X20953473Y-15068998D01*
X20947472Y-15070998D01*
X20941472Y-15071998D01*
X20935472Y-15073998D01*
X20929472Y-15073998D01*
X20922472Y-15074998D01*
X20916472Y-15074998D01*
X20416472Y-15074998D01*
X20410472Y-15074998D01*
X20403472Y-15073998D01*
X20397472Y-15073998D01*
X20391472Y-15071998D01*
X20385472Y-15070998D01*
X20379472Y-15068998D01*
X20373472Y-15066998D01*
X20367472Y-15064998D01*
X20362472Y-15061998D01*
X20356472Y-15058998D01*
X20351472Y-15055998D01*
X20345472Y-15051998D01*
X20340472Y-15047998D01*
X20336472Y-15043998D01*
X20331472Y-15039998D01*
X20327472Y-15034998D01*
X20323471Y-15030998D01*
X20319471Y-15025998D01*
X20315472Y-15019997D01*
X20312472Y-15014998D01*
X20309472Y-15008998D01*
X20306472Y-15003998D01*
X20304472Y-14997998D01*
X20302472Y-14991998D01*
X20300472Y-14985998D01*
X20299472Y-14979998D01*
X20297473Y-14973998D01*
X20297472Y-14967998D01*
X20296472Y-14960998D01*
X20296472Y-14954997D01*
X20296472Y-14804997D01*
X20296472Y-14798998D01*
X20297472Y-14791998D01*
X20297472Y-14785997D01*
X20299472Y-14779998D01*
X20300472Y-14773999D01*
X20302472Y-14767998D01*
X20304472Y-14761998D01*
X20306472Y-14755998D01*
X20309472Y-14750998D01*
X20312472Y-14744998D01*
X20315473Y-14739998D01*
X20319472Y-14733998D01*
X20323472Y-14728998D01*
X20327472Y-14724998D01*
X20331472Y-14719998D01*
X20336472Y-14715998D01*
X20340472Y-14711998D01*
X20345472Y-14707998D01*
X20351472Y-14703998D01*
X20356472Y-14700998D01*
X20362472Y-14697998D01*
X20367472Y-14694998D01*
X20373472Y-14692998D01*
X20379472Y-14690998D01*
X20385472Y-14688999D01*
X20391472Y-14687998D01*
X20397472Y-14685998D01*
X20403472Y-14685998D01*
X20410472Y-14684998D01*
X20416472Y-14684998D01*
X20916472Y-14684998D01*
X20922472Y-14684998D01*
X20929472Y-14685998D01*
G36*
X20929472Y-14685998D02*
G01*
X20935472Y-14685998D01*
X20941472Y-14687998D01*
X20947472Y-14688999D01*
X20953472Y-14690998D01*
X20959472Y-14692998D01*
X20965472Y-14694998D01*
X20970472Y-14697998D01*
X20976472Y-14700998D01*
X20981472Y-14703998D01*
X20987472Y-14707998D01*
X20992472Y-14711998D01*
X20996472Y-14715998D01*
X21001472Y-14719998D01*
X21005472Y-14724998D01*
X21009472Y-14728998D01*
X21013472Y-14733998D01*
X21017471Y-14739998D01*
X21020472Y-14744998D01*
X21023472Y-14750998D01*
X21026472Y-14755998D01*
X21028472Y-14761998D01*
X21030472Y-14767998D01*
X21032472Y-14773999D01*
X21033472Y-14779998D01*
X21035471Y-14785998D01*
X21035472Y-14791998D01*
X21036472Y-14798998D01*
X21036472Y-14804997D01*
X21036472Y-14954997D01*
X21036472Y-14960998D01*
X21035472Y-14967998D01*
X21035471Y-14973998D01*
X21033472Y-14979998D01*
X21032472Y-14985998D01*
X21030472Y-14991998D01*
X21028472Y-14997998D01*
X21026472Y-15003998D01*
X21023472Y-15008998D01*
X21020472Y-15014998D01*
X21017472Y-15019997D01*
X21013473Y-15025998D01*
X21009473Y-15030998D01*
X21005472Y-15034998D01*
X21001472Y-15039998D01*
X20996472Y-15043998D01*
X20992472Y-15047998D01*
X20987472Y-15051998D01*
X20981472Y-15055998D01*
X20976472Y-15058998D01*
X20970472Y-15061998D01*
X20965472Y-15064998D01*
X20959472Y-15066998D01*
X20953473Y-15068998D01*
X20947472Y-15070998D01*
X20941472Y-15071998D01*
X20935472Y-15073998D01*
X20929472Y-15073998D01*
X20922472Y-15074998D01*
X20916472Y-15074998D01*
X20416472Y-15074998D01*
X20410472Y-15074998D01*
X20403472Y-15073998D01*
X20397472Y-15073998D01*
X20391472Y-15071998D01*
X20385472Y-15070998D01*
X20379472Y-15068998D01*
X20373472Y-15066998D01*
X20367472Y-15064998D01*
X20362472Y-15061998D01*
X20356472Y-15058998D01*
X20351472Y-15055998D01*
X20345472Y-15051998D01*
X20340472Y-15047998D01*
X20336472Y-15043998D01*
X20331472Y-15039998D01*
X20327472Y-15034998D01*
X20323471Y-15030998D01*
X20319471Y-15025998D01*
X20315472Y-15019997D01*
X20312472Y-15014998D01*
X20309472Y-15008998D01*
X20306472Y-15003998D01*
X20304472Y-14997998D01*
X20302472Y-14991998D01*
X20300472Y-14985998D01*
X20299472Y-14979998D01*
X20297473Y-14973998D01*
X20297472Y-14967998D01*
X20296472Y-14960998D01*
X20296472Y-14954997D01*
X20296472Y-14804997D01*
X20296472Y-14798998D01*
X20297472Y-14791998D01*
X20297472Y-14785997D01*
X20299472Y-14779998D01*
X20300472Y-14773999D01*
X20302472Y-14767998D01*
X20304472Y-14761998D01*
X20306472Y-14755998D01*
X20309472Y-14750998D01*
X20312472Y-14744998D01*
X20315473Y-14739998D01*
X20319472Y-14733998D01*
X20323472Y-14728998D01*
X20327472Y-14724998D01*
X20331472Y-14719998D01*
X20336472Y-14715998D01*
X20340472Y-14711998D01*
X20345472Y-14707998D01*
X20351472Y-14703998D01*
X20356472Y-14700998D01*
X20362472Y-14697998D01*
X20367472Y-14694998D01*
X20373472Y-14692998D01*
X20379472Y-14690998D01*
X20385472Y-14688999D01*
X20391472Y-14687998D01*
X20397472Y-14685998D01*
X20403472Y-14685998D01*
X20410472Y-14684998D01*
X20416472Y-14684998D01*
X20916472Y-14684998D01*
X20922472Y-14684998D01*
X20929472Y-14685998D01*
G37*
X20929472Y-12105998D02*
X20935472Y-12105998D01*
X20941471Y-12107998D01*
X20947472Y-12108998D01*
X20953472Y-12110998D01*
X20959472Y-12112998D01*
X20965472Y-12114998D01*
X20970471Y-12117998D01*
X20976472Y-12120998D01*
X20981472Y-12123998D01*
X20987472Y-12127998D01*
X20992472Y-12131998D01*
X20996472Y-12135998D01*
X21001472Y-12139998D01*
X21005472Y-12144998D01*
X21009472Y-12148998D01*
X21013472Y-12153998D01*
X21017472Y-12159998D01*
X21020472Y-12164998D01*
X21023472Y-12170998D01*
X21026472Y-12175998D01*
X21028472Y-12181998D01*
X21030471Y-12187998D01*
X21032472Y-12193998D01*
X21033472Y-12199998D01*
X21035472Y-12205998D01*
X21035471Y-12211998D01*
X21036472Y-12218998D01*
X21036472Y-12224998D01*
X21036472Y-12374998D01*
X21036472Y-12380999D01*
X21035472Y-12387998D01*
X21035472Y-12393998D01*
X21033472Y-12399998D01*
X21032472Y-12405998D01*
X21030471Y-12411998D01*
X21028472Y-12417998D01*
X21026472Y-12423998D01*
X21023472Y-12428998D01*
X21020472Y-12434998D01*
X21017472Y-12439998D01*
X21013472Y-12445998D01*
X21009472Y-12450998D01*
X21005472Y-12454998D01*
X21001472Y-12459998D01*
X20996472Y-12463998D01*
X20992472Y-12467998D01*
X20987472Y-12471998D01*
X20981472Y-12475998D01*
X20976473Y-12478998D01*
X20970472Y-12481997D01*
X20965472Y-12484998D01*
X20959472Y-12486998D01*
X20953472Y-12488998D01*
X20947472Y-12490998D01*
X20941471Y-12491998D01*
X20935472Y-12493998D01*
X20929472Y-12493998D01*
X20922472Y-12494998D01*
X20916472Y-12494998D01*
X17616472Y-12494998D01*
X17610472Y-12494998D01*
X17603472Y-12493998D01*
X17597472Y-12493998D01*
X17591473Y-12491998D01*
X17585472Y-12490998D01*
X17579472Y-12488998D01*
X17573472Y-12486998D01*
X17567472Y-12484998D01*
X17562472Y-12481997D01*
X17556471Y-12478998D01*
X17551472Y-12475998D01*
X17545472Y-12471998D01*
X17540472Y-12467998D01*
X17536472Y-12463998D01*
X17531472Y-12459998D01*
X17527472Y-12454998D01*
X17523472Y-12450998D01*
X17519472Y-12445998D01*
X17515472Y-12439998D01*
X17512472Y-12434998D01*
X17509472Y-12428998D01*
X17506472Y-12423998D01*
X17504472Y-12417998D01*
X17502473Y-12411998D01*
X17500472Y-12405998D01*
X17499472Y-12399998D01*
X17497472Y-12393998D01*
X17497472Y-12387998D01*
X17496472Y-12380999D01*
X17496472Y-12374998D01*
X17496472Y-12224998D01*
X17496472Y-12218998D01*
X17497473Y-12211998D01*
X17497472Y-12205998D01*
X17499472Y-12199998D01*
X17500472Y-12193998D01*
X17502473Y-12187998D01*
X17504472Y-12181998D01*
X17506472Y-12175998D01*
X17509472Y-12170998D01*
X17512472Y-12164998D01*
X17515472Y-12159998D01*
X17519472Y-12153998D01*
X17523472Y-12148998D01*
X17527472Y-12144998D01*
X17531472Y-12139998D01*
X17536472Y-12135998D01*
X17540472Y-12131998D01*
X17545472Y-12127998D01*
X17551472Y-12123998D01*
X17556472Y-12120998D01*
X17562473Y-12117998D01*
X17567472Y-12114998D01*
X17573472Y-12112998D01*
X17579472Y-12110998D01*
X17585472Y-12108998D01*
X17591473Y-12107998D01*
X17597472Y-12105998D01*
X17603472Y-12105998D01*
X17610472Y-12104998D01*
X17616472Y-12104998D01*
X20916472Y-12104998D01*
X20922472Y-12104998D01*
X20929472Y-12105998D01*
G36*
X20929472Y-12105998D02*
G01*
X20935472Y-12105998D01*
X20941471Y-12107998D01*
X20947472Y-12108998D01*
X20953472Y-12110998D01*
X20959472Y-12112998D01*
X20965472Y-12114998D01*
X20970471Y-12117998D01*
X20976472Y-12120998D01*
X20981472Y-12123998D01*
X20987472Y-12127998D01*
X20992472Y-12131998D01*
X20996472Y-12135998D01*
X21001472Y-12139998D01*
X21005472Y-12144998D01*
X21009472Y-12148998D01*
X21013472Y-12153998D01*
X21017472Y-12159998D01*
X21020472Y-12164998D01*
X21023472Y-12170998D01*
X21026472Y-12175998D01*
X21028472Y-12181998D01*
X21030471Y-12187998D01*
X21032472Y-12193998D01*
X21033472Y-12199998D01*
X21035472Y-12205998D01*
X21035471Y-12211998D01*
X21036472Y-12218998D01*
X21036472Y-12224998D01*
X21036472Y-12374998D01*
X21036472Y-12380999D01*
X21035472Y-12387998D01*
X21035472Y-12393998D01*
X21033472Y-12399998D01*
X21032472Y-12405998D01*
X21030471Y-12411998D01*
X21028472Y-12417998D01*
X21026472Y-12423998D01*
X21023472Y-12428998D01*
X21020472Y-12434998D01*
X21017472Y-12439998D01*
X21013472Y-12445998D01*
X21009472Y-12450998D01*
X21005472Y-12454998D01*
X21001472Y-12459998D01*
X20996472Y-12463998D01*
X20992472Y-12467998D01*
X20987472Y-12471998D01*
X20981472Y-12475998D01*
X20976473Y-12478998D01*
X20970472Y-12481997D01*
X20965472Y-12484998D01*
X20959472Y-12486998D01*
X20953472Y-12488998D01*
X20947472Y-12490998D01*
X20941471Y-12491998D01*
X20935472Y-12493998D01*
X20929472Y-12493998D01*
X20922472Y-12494998D01*
X20916472Y-12494998D01*
X17616472Y-12494998D01*
X17610472Y-12494998D01*
X17603472Y-12493998D01*
X17597472Y-12493998D01*
X17591473Y-12491998D01*
X17585472Y-12490998D01*
X17579472Y-12488998D01*
X17573472Y-12486998D01*
X17567472Y-12484998D01*
X17562472Y-12481997D01*
X17556471Y-12478998D01*
X17551472Y-12475998D01*
X17545472Y-12471998D01*
X17540472Y-12467998D01*
X17536472Y-12463998D01*
X17531472Y-12459998D01*
X17527472Y-12454998D01*
X17523472Y-12450998D01*
X17519472Y-12445998D01*
X17515472Y-12439998D01*
X17512472Y-12434998D01*
X17509472Y-12428998D01*
X17506472Y-12423998D01*
X17504472Y-12417998D01*
X17502473Y-12411998D01*
X17500472Y-12405998D01*
X17499472Y-12399998D01*
X17497472Y-12393998D01*
X17497472Y-12387998D01*
X17496472Y-12380999D01*
X17496472Y-12374998D01*
X17496472Y-12224998D01*
X17496472Y-12218998D01*
X17497473Y-12211998D01*
X17497472Y-12205998D01*
X17499472Y-12199998D01*
X17500472Y-12193998D01*
X17502473Y-12187998D01*
X17504472Y-12181998D01*
X17506472Y-12175998D01*
X17509472Y-12170998D01*
X17512472Y-12164998D01*
X17515472Y-12159998D01*
X17519472Y-12153998D01*
X17523472Y-12148998D01*
X17527472Y-12144998D01*
X17531472Y-12139998D01*
X17536472Y-12135998D01*
X17540472Y-12131998D01*
X17545472Y-12127998D01*
X17551472Y-12123998D01*
X17556472Y-12120998D01*
X17562473Y-12117998D01*
X17567472Y-12114998D01*
X17573472Y-12112998D01*
X17579472Y-12110998D01*
X17585472Y-12108998D01*
X17591473Y-12107998D01*
X17597472Y-12105998D01*
X17603472Y-12105998D01*
X17610472Y-12104998D01*
X17616472Y-12104998D01*
X20916472Y-12104998D01*
X20922472Y-12104998D01*
X20929472Y-12105998D01*
G37*
X20929472Y-12605998D02*
X20935472Y-12605998D01*
X20941472Y-12607998D01*
X20947472Y-12608997D01*
X20953472Y-12610998D01*
X20959472Y-12612998D01*
X20965472Y-12614998D01*
X20970472Y-12617998D01*
X20976472Y-12620998D01*
X20981473Y-12623998D01*
X20987472Y-12627998D01*
X20992472Y-12631998D01*
X20996472Y-12635998D01*
X21001472Y-12639998D01*
X21005472Y-12644998D01*
X21009472Y-12648998D01*
X21013472Y-12653998D01*
X21017472Y-12659997D01*
X21020472Y-12664998D01*
X21023472Y-12670998D01*
X21026472Y-12675998D01*
X21028472Y-12681998D01*
X21030472Y-12687998D01*
X21032473Y-12693998D01*
X21033472Y-12699998D01*
X21035472Y-12705998D01*
X21035472Y-12711998D01*
X21036472Y-12718998D01*
X21036472Y-12724998D01*
X21036472Y-12874998D01*
X21036472Y-12880998D01*
X21035472Y-12887998D01*
X21035472Y-12893997D01*
X21033472Y-12899998D01*
X21032472Y-12905998D01*
X21030472Y-12911998D01*
X21028472Y-12917998D01*
X21026472Y-12923999D01*
X21023473Y-12928998D01*
X21020472Y-12934998D01*
X21017472Y-12939998D01*
X21013472Y-12945997D01*
X21009473Y-12950998D01*
X21005472Y-12954998D01*
X21001472Y-12959998D01*
X20996472Y-12963998D01*
X20992472Y-12967998D01*
X20987472Y-12971998D01*
X20981472Y-12975998D01*
X20976472Y-12978998D01*
X20970472Y-12981998D01*
X20965472Y-12984999D01*
X20959472Y-12986998D01*
X20953473Y-12988998D01*
X20947472Y-12990998D01*
X20941472Y-12991998D01*
X20935472Y-12993998D01*
X20929473Y-12993998D01*
X20922472Y-12994998D01*
X20916472Y-12994998D01*
X17616472Y-12994998D01*
X17610472Y-12994998D01*
X17603471Y-12993998D01*
X17597472Y-12993998D01*
X17591472Y-12991998D01*
X17585472Y-12990998D01*
X17579471Y-12988998D01*
X17573472Y-12986998D01*
X17567472Y-12984999D01*
X17562472Y-12981998D01*
X17556472Y-12978998D01*
X17551472Y-12975998D01*
X17545472Y-12971998D01*
X17540472Y-12967998D01*
X17536472Y-12963998D01*
X17531472Y-12959998D01*
X17527472Y-12954998D01*
X17523471Y-12950998D01*
X17519472Y-12945997D01*
X17515472Y-12939998D01*
X17512472Y-12934998D01*
X17509471Y-12928998D01*
X17506472Y-12923999D01*
X17504472Y-12917998D01*
X17502472Y-12911998D01*
X17500472Y-12905998D01*
X17499472Y-12899998D01*
X17497472Y-12893997D01*
X17497472Y-12887998D01*
X17496472Y-12880998D01*
X17496472Y-12874998D01*
X17496472Y-12724998D01*
X17496472Y-12718998D01*
X17497472Y-12711998D01*
X17497472Y-12705998D01*
X17499472Y-12699998D01*
X17500471Y-12693998D01*
X17502472Y-12687998D01*
X17504472Y-12681998D01*
X17506472Y-12675998D01*
X17509472Y-12670998D01*
X17512472Y-12664998D01*
X17515472Y-12659997D01*
X17519472Y-12653998D01*
X17523472Y-12648998D01*
X17527472Y-12644998D01*
X17531472Y-12639998D01*
X17536472Y-12635998D01*
X17540472Y-12631998D01*
X17545472Y-12627998D01*
X17551471Y-12623998D01*
X17556472Y-12620998D01*
X17562472Y-12617998D01*
X17567472Y-12614998D01*
X17573472Y-12612998D01*
X17579472Y-12610998D01*
X17585472Y-12608997D01*
X17591472Y-12607998D01*
X17597472Y-12605998D01*
X17603472Y-12605998D01*
X17610472Y-12604998D01*
X17616472Y-12604998D01*
X20916472Y-12604998D01*
X20922472Y-12604998D01*
X20929472Y-12605998D01*
G36*
X20929472Y-12605998D02*
G01*
X20935472Y-12605998D01*
X20941472Y-12607998D01*
X20947472Y-12608997D01*
X20953472Y-12610998D01*
X20959472Y-12612998D01*
X20965472Y-12614998D01*
X20970472Y-12617998D01*
X20976472Y-12620998D01*
X20981473Y-12623998D01*
X20987472Y-12627998D01*
X20992472Y-12631998D01*
X20996472Y-12635998D01*
X21001472Y-12639998D01*
X21005472Y-12644998D01*
X21009472Y-12648998D01*
X21013472Y-12653998D01*
X21017472Y-12659997D01*
X21020472Y-12664998D01*
X21023472Y-12670998D01*
X21026472Y-12675998D01*
X21028472Y-12681998D01*
X21030472Y-12687998D01*
X21032473Y-12693998D01*
X21033472Y-12699998D01*
X21035472Y-12705998D01*
X21035472Y-12711998D01*
X21036472Y-12718998D01*
X21036472Y-12724998D01*
X21036472Y-12874998D01*
X21036472Y-12880998D01*
X21035472Y-12887998D01*
X21035472Y-12893997D01*
X21033472Y-12899998D01*
X21032472Y-12905998D01*
X21030472Y-12911998D01*
X21028472Y-12917998D01*
X21026472Y-12923999D01*
X21023473Y-12928998D01*
X21020472Y-12934998D01*
X21017472Y-12939998D01*
X21013472Y-12945997D01*
X21009473Y-12950998D01*
X21005472Y-12954998D01*
X21001472Y-12959998D01*
X20996472Y-12963998D01*
X20992472Y-12967998D01*
X20987472Y-12971998D01*
X20981472Y-12975998D01*
X20976472Y-12978998D01*
X20970472Y-12981998D01*
X20965472Y-12984999D01*
X20959472Y-12986998D01*
X20953473Y-12988998D01*
X20947472Y-12990998D01*
X20941472Y-12991998D01*
X20935472Y-12993998D01*
X20929473Y-12993998D01*
X20922472Y-12994998D01*
X20916472Y-12994998D01*
X17616472Y-12994998D01*
X17610472Y-12994998D01*
X17603471Y-12993998D01*
X17597472Y-12993998D01*
X17591472Y-12991998D01*
X17585472Y-12990998D01*
X17579471Y-12988998D01*
X17573472Y-12986998D01*
X17567472Y-12984999D01*
X17562472Y-12981998D01*
X17556472Y-12978998D01*
X17551472Y-12975998D01*
X17545472Y-12971998D01*
X17540472Y-12967998D01*
X17536472Y-12963998D01*
X17531472Y-12959998D01*
X17527472Y-12954998D01*
X17523471Y-12950998D01*
X17519472Y-12945997D01*
X17515472Y-12939998D01*
X17512472Y-12934998D01*
X17509471Y-12928998D01*
X17506472Y-12923999D01*
X17504472Y-12917998D01*
X17502472Y-12911998D01*
X17500472Y-12905998D01*
X17499472Y-12899998D01*
X17497472Y-12893997D01*
X17497472Y-12887998D01*
X17496472Y-12880998D01*
X17496472Y-12874998D01*
X17496472Y-12724998D01*
X17496472Y-12718998D01*
X17497472Y-12711998D01*
X17497472Y-12705998D01*
X17499472Y-12699998D01*
X17500471Y-12693998D01*
X17502472Y-12687998D01*
X17504472Y-12681998D01*
X17506472Y-12675998D01*
X17509472Y-12670998D01*
X17512472Y-12664998D01*
X17515472Y-12659997D01*
X17519472Y-12653998D01*
X17523472Y-12648998D01*
X17527472Y-12644998D01*
X17531472Y-12639998D01*
X17536472Y-12635998D01*
X17540472Y-12631998D01*
X17545472Y-12627998D01*
X17551471Y-12623998D01*
X17556472Y-12620998D01*
X17562472Y-12617998D01*
X17567472Y-12614998D01*
X17573472Y-12612998D01*
X17579472Y-12610998D01*
X17585472Y-12608997D01*
X17591472Y-12607998D01*
X17597472Y-12605998D01*
X17603472Y-12605998D01*
X17610472Y-12604998D01*
X17616472Y-12604998D01*
X20916472Y-12604998D01*
X20922472Y-12604998D01*
X20929472Y-12605998D01*
G37*
X20929473Y-13685998D02*
X20935472Y-13685998D01*
X20941472Y-13687998D01*
X20947472Y-13688998D01*
X20953473Y-13690998D01*
X20959472Y-13692998D01*
X20965472Y-13694997D01*
X20970472Y-13697998D01*
X20976472Y-13700998D01*
X20981472Y-13703998D01*
X20987472Y-13707998D01*
X20992472Y-13711998D01*
X20996472Y-13715998D01*
X21001472Y-13719998D01*
X21005472Y-13724998D01*
X21009473Y-13728998D01*
X21013472Y-13733999D01*
X21017472Y-13739998D01*
X21020472Y-13744998D01*
X21023473Y-13750998D01*
X21026472Y-13755997D01*
X21028472Y-13761998D01*
X21030472Y-13767998D01*
X21032472Y-13773998D01*
X21033472Y-13779998D01*
X21035472Y-13785999D01*
X21035472Y-13791998D01*
X21036472Y-13798998D01*
X21036472Y-13804998D01*
X21036472Y-13954998D01*
X21036472Y-13960998D01*
X21035472Y-13967998D01*
X21035472Y-13973998D01*
X21033472Y-13979998D01*
X21032473Y-13985998D01*
X21030472Y-13991998D01*
X21028472Y-13997998D01*
X21026472Y-14003998D01*
X21023472Y-14008998D01*
X21020472Y-14014998D01*
X21017472Y-14019999D01*
X21013472Y-14025998D01*
X21009472Y-14030998D01*
X21005472Y-14034998D01*
X21001472Y-14039998D01*
X20996472Y-14043998D01*
X20992472Y-14047998D01*
X20987472Y-14051998D01*
X20981473Y-14055998D01*
X20976472Y-14058998D01*
X20970472Y-14061998D01*
X20965472Y-14064998D01*
X20959472Y-14066998D01*
X20953472Y-14068998D01*
X20947472Y-14070999D01*
X20941472Y-14071998D01*
X20935472Y-14073998D01*
X20929472Y-14073998D01*
X20922472Y-14074998D01*
X20916472Y-14074998D01*
X17616472Y-14074998D01*
X17610472Y-14074998D01*
X17603472Y-14073998D01*
X17597472Y-14073998D01*
X17591472Y-14071998D01*
X17585472Y-14070999D01*
X17579472Y-14068998D01*
X17573472Y-14066998D01*
X17567472Y-14064998D01*
X17562472Y-14061998D01*
X17556472Y-14058998D01*
X17551471Y-14055998D01*
X17545472Y-14051998D01*
X17540472Y-14047998D01*
X17536472Y-14043998D01*
X17531472Y-14039998D01*
X17527472Y-14034998D01*
X17523472Y-14030998D01*
X17519472Y-14025998D01*
X17515472Y-14019999D01*
X17512472Y-14014998D01*
X17509472Y-14008998D01*
X17506472Y-14003998D01*
X17504472Y-13997998D01*
X17502472Y-13991998D01*
X17500471Y-13985998D01*
X17499472Y-13979998D01*
X17497472Y-13973998D01*
X17497472Y-13967998D01*
X17496472Y-13960998D01*
X17496472Y-13954998D01*
X17496472Y-13804998D01*
X17496472Y-13798998D01*
X17497472Y-13791998D01*
X17497472Y-13785999D01*
X17499472Y-13779998D01*
X17500472Y-13773998D01*
X17502472Y-13767998D01*
X17504472Y-13761998D01*
X17506472Y-13755997D01*
X17509471Y-13750998D01*
X17512472Y-13744998D01*
X17515472Y-13739998D01*
X17519472Y-13733999D01*
X17523471Y-13728998D01*
X17527472Y-13724998D01*
X17531472Y-13719998D01*
X17536472Y-13715998D01*
X17540472Y-13711998D01*
X17545472Y-13707998D01*
X17551472Y-13703998D01*
X17556472Y-13700998D01*
X17562472Y-13697998D01*
X17567472Y-13694997D01*
X17573472Y-13692998D01*
X17579471Y-13690998D01*
X17585472Y-13688998D01*
X17591472Y-13687998D01*
X17597472Y-13685998D01*
X17603471Y-13685998D01*
X17610472Y-13684998D01*
X17616472Y-13684998D01*
X20916472Y-13684998D01*
X20922472Y-13684998D01*
X20929473Y-13685998D01*
G36*
X20929473Y-13685998D02*
G01*
X20935472Y-13685998D01*
X20941472Y-13687998D01*
X20947472Y-13688998D01*
X20953473Y-13690998D01*
X20959472Y-13692998D01*
X20965472Y-13694997D01*
X20970472Y-13697998D01*
X20976472Y-13700998D01*
X20981472Y-13703998D01*
X20987472Y-13707998D01*
X20992472Y-13711998D01*
X20996472Y-13715998D01*
X21001472Y-13719998D01*
X21005472Y-13724998D01*
X21009473Y-13728998D01*
X21013472Y-13733999D01*
X21017472Y-13739998D01*
X21020472Y-13744998D01*
X21023473Y-13750998D01*
X21026472Y-13755997D01*
X21028472Y-13761998D01*
X21030472Y-13767998D01*
X21032472Y-13773998D01*
X21033472Y-13779998D01*
X21035472Y-13785999D01*
X21035472Y-13791998D01*
X21036472Y-13798998D01*
X21036472Y-13804998D01*
X21036472Y-13954998D01*
X21036472Y-13960998D01*
X21035472Y-13967998D01*
X21035472Y-13973998D01*
X21033472Y-13979998D01*
X21032473Y-13985998D01*
X21030472Y-13991998D01*
X21028472Y-13997998D01*
X21026472Y-14003998D01*
X21023472Y-14008998D01*
X21020472Y-14014998D01*
X21017472Y-14019999D01*
X21013472Y-14025998D01*
X21009472Y-14030998D01*
X21005472Y-14034998D01*
X21001472Y-14039998D01*
X20996472Y-14043998D01*
X20992472Y-14047998D01*
X20987472Y-14051998D01*
X20981473Y-14055998D01*
X20976472Y-14058998D01*
X20970472Y-14061998D01*
X20965472Y-14064998D01*
X20959472Y-14066998D01*
X20953472Y-14068998D01*
X20947472Y-14070999D01*
X20941472Y-14071998D01*
X20935472Y-14073998D01*
X20929472Y-14073998D01*
X20922472Y-14074998D01*
X20916472Y-14074998D01*
X17616472Y-14074998D01*
X17610472Y-14074998D01*
X17603472Y-14073998D01*
X17597472Y-14073998D01*
X17591472Y-14071998D01*
X17585472Y-14070999D01*
X17579472Y-14068998D01*
X17573472Y-14066998D01*
X17567472Y-14064998D01*
X17562472Y-14061998D01*
X17556472Y-14058998D01*
X17551471Y-14055998D01*
X17545472Y-14051998D01*
X17540472Y-14047998D01*
X17536472Y-14043998D01*
X17531472Y-14039998D01*
X17527472Y-14034998D01*
X17523472Y-14030998D01*
X17519472Y-14025998D01*
X17515472Y-14019999D01*
X17512472Y-14014998D01*
X17509472Y-14008998D01*
X17506472Y-14003998D01*
X17504472Y-13997998D01*
X17502472Y-13991998D01*
X17500471Y-13985998D01*
X17499472Y-13979998D01*
X17497472Y-13973998D01*
X17497472Y-13967998D01*
X17496472Y-13960998D01*
X17496472Y-13954998D01*
X17496472Y-13804998D01*
X17496472Y-13798998D01*
X17497472Y-13791998D01*
X17497472Y-13785999D01*
X17499472Y-13779998D01*
X17500472Y-13773998D01*
X17502472Y-13767998D01*
X17504472Y-13761998D01*
X17506472Y-13755997D01*
X17509471Y-13750998D01*
X17512472Y-13744998D01*
X17515472Y-13739998D01*
X17519472Y-13733999D01*
X17523471Y-13728998D01*
X17527472Y-13724998D01*
X17531472Y-13719998D01*
X17536472Y-13715998D01*
X17540472Y-13711998D01*
X17545472Y-13707998D01*
X17551472Y-13703998D01*
X17556472Y-13700998D01*
X17562472Y-13697998D01*
X17567472Y-13694997D01*
X17573472Y-13692998D01*
X17579471Y-13690998D01*
X17585472Y-13688998D01*
X17591472Y-13687998D01*
X17597472Y-13685998D01*
X17603471Y-13685998D01*
X17610472Y-13684998D01*
X17616472Y-13684998D01*
X20916472Y-13684998D01*
X20922472Y-13684998D01*
X20929473Y-13685998D01*
G37*
X20929472Y-14185998D02*
X20935472Y-14185998D01*
X20941471Y-14187998D01*
X20947472Y-14188998D01*
X20953472Y-14190998D01*
X20959472Y-14192998D01*
X20965472Y-14194998D01*
X20970472Y-14197999D01*
X20976473Y-14200998D01*
X20981472Y-14203998D01*
X20987472Y-14207998D01*
X20992472Y-14211998D01*
X20996472Y-14215998D01*
X21001472Y-14219998D01*
X21005472Y-14224998D01*
X21009472Y-14228998D01*
X21013472Y-14233998D01*
X21017472Y-14239998D01*
X21020472Y-14244998D01*
X21023472Y-14250998D01*
X21026472Y-14255998D01*
X21028472Y-14261998D01*
X21030471Y-14267998D01*
X21032472Y-14273998D01*
X21033472Y-14279998D01*
X21035472Y-14285998D01*
X21035472Y-14291998D01*
X21036472Y-14298997D01*
X21036472Y-14304998D01*
X21036472Y-14454998D01*
X21036472Y-14460998D01*
X21035471Y-14467998D01*
X21035472Y-14473998D01*
X21033472Y-14479998D01*
X21032472Y-14485998D01*
X21030471Y-14491998D01*
X21028472Y-14497998D01*
X21026472Y-14503998D01*
X21023472Y-14508998D01*
X21020472Y-14514998D01*
X21017472Y-14519998D01*
X21013472Y-14525998D01*
X21009472Y-14530998D01*
X21005472Y-14534998D01*
X21001472Y-14539998D01*
X20996472Y-14543998D01*
X20992472Y-14547998D01*
X20987472Y-14551998D01*
X20981472Y-14555998D01*
X20976472Y-14558998D01*
X20970471Y-14561998D01*
X20965472Y-14564998D01*
X20959472Y-14566998D01*
X20953472Y-14568998D01*
X20947472Y-14570998D01*
X20941471Y-14571998D01*
X20935472Y-14573998D01*
X20929472Y-14573998D01*
X20922472Y-14574998D01*
X20916472Y-14574998D01*
X17616472Y-14574998D01*
X17610472Y-14574998D01*
X17603472Y-14573998D01*
X17597472Y-14573998D01*
X17591473Y-14571998D01*
X17585472Y-14570998D01*
X17579472Y-14568998D01*
X17573472Y-14566998D01*
X17567472Y-14564998D01*
X17562473Y-14561998D01*
X17556472Y-14558998D01*
X17551472Y-14555998D01*
X17545472Y-14551998D01*
X17540472Y-14547998D01*
X17536472Y-14543998D01*
X17531472Y-14539998D01*
X17527472Y-14534998D01*
X17523472Y-14530998D01*
X17519472Y-14525998D01*
X17515472Y-14519998D01*
X17512472Y-14514998D01*
X17509472Y-14508998D01*
X17506472Y-14503998D01*
X17504472Y-14497998D01*
X17502473Y-14491998D01*
X17500472Y-14485998D01*
X17499472Y-14479998D01*
X17497472Y-14473998D01*
X17497473Y-14467998D01*
X17496472Y-14460998D01*
X17496472Y-14454998D01*
X17496472Y-14304998D01*
X17496472Y-14298997D01*
X17497472Y-14291998D01*
X17497472Y-14285998D01*
X17499472Y-14279998D01*
X17500472Y-14273998D01*
X17502473Y-14267998D01*
X17504472Y-14261998D01*
X17506472Y-14255998D01*
X17509472Y-14250998D01*
X17512472Y-14244998D01*
X17515472Y-14239998D01*
X17519472Y-14233998D01*
X17523472Y-14228998D01*
X17527472Y-14224998D01*
X17531472Y-14219998D01*
X17536472Y-14215998D01*
X17540472Y-14211998D01*
X17545472Y-14207998D01*
X17551472Y-14203998D01*
X17556471Y-14200998D01*
X17562472Y-14197999D01*
X17567472Y-14194998D01*
X17573472Y-14192998D01*
X17579472Y-14190998D01*
X17585472Y-14188998D01*
X17591473Y-14187998D01*
X17597472Y-14185998D01*
X17603472Y-14185998D01*
X17610472Y-14184998D01*
X17616472Y-14184998D01*
X20916472Y-14184998D01*
X20922472Y-14184998D01*
X20929472Y-14185998D01*
G36*
X20929472Y-14185998D02*
G01*
X20935472Y-14185998D01*
X20941471Y-14187998D01*
X20947472Y-14188998D01*
X20953472Y-14190998D01*
X20959472Y-14192998D01*
X20965472Y-14194998D01*
X20970472Y-14197999D01*
X20976473Y-14200998D01*
X20981472Y-14203998D01*
X20987472Y-14207998D01*
X20992472Y-14211998D01*
X20996472Y-14215998D01*
X21001472Y-14219998D01*
X21005472Y-14224998D01*
X21009472Y-14228998D01*
X21013472Y-14233998D01*
X21017472Y-14239998D01*
X21020472Y-14244998D01*
X21023472Y-14250998D01*
X21026472Y-14255998D01*
X21028472Y-14261998D01*
X21030471Y-14267998D01*
X21032472Y-14273998D01*
X21033472Y-14279998D01*
X21035472Y-14285998D01*
X21035472Y-14291998D01*
X21036472Y-14298997D01*
X21036472Y-14304998D01*
X21036472Y-14454998D01*
X21036472Y-14460998D01*
X21035471Y-14467998D01*
X21035472Y-14473998D01*
X21033472Y-14479998D01*
X21032472Y-14485998D01*
X21030471Y-14491998D01*
X21028472Y-14497998D01*
X21026472Y-14503998D01*
X21023472Y-14508998D01*
X21020472Y-14514998D01*
X21017472Y-14519998D01*
X21013472Y-14525998D01*
X21009472Y-14530998D01*
X21005472Y-14534998D01*
X21001472Y-14539998D01*
X20996472Y-14543998D01*
X20992472Y-14547998D01*
X20987472Y-14551998D01*
X20981472Y-14555998D01*
X20976472Y-14558998D01*
X20970471Y-14561998D01*
X20965472Y-14564998D01*
X20959472Y-14566998D01*
X20953472Y-14568998D01*
X20947472Y-14570998D01*
X20941471Y-14571998D01*
X20935472Y-14573998D01*
X20929472Y-14573998D01*
X20922472Y-14574998D01*
X20916472Y-14574998D01*
X17616472Y-14574998D01*
X17610472Y-14574998D01*
X17603472Y-14573998D01*
X17597472Y-14573998D01*
X17591473Y-14571998D01*
X17585472Y-14570998D01*
X17579472Y-14568998D01*
X17573472Y-14566998D01*
X17567472Y-14564998D01*
X17562473Y-14561998D01*
X17556472Y-14558998D01*
X17551472Y-14555998D01*
X17545472Y-14551998D01*
X17540472Y-14547998D01*
X17536472Y-14543998D01*
X17531472Y-14539998D01*
X17527472Y-14534998D01*
X17523472Y-14530998D01*
X17519472Y-14525998D01*
X17515472Y-14519998D01*
X17512472Y-14514998D01*
X17509472Y-14508998D01*
X17506472Y-14503998D01*
X17504472Y-14497998D01*
X17502473Y-14491998D01*
X17500472Y-14485998D01*
X17499472Y-14479998D01*
X17497472Y-14473998D01*
X17497473Y-14467998D01*
X17496472Y-14460998D01*
X17496472Y-14454998D01*
X17496472Y-14304998D01*
X17496472Y-14298997D01*
X17497472Y-14291998D01*
X17497472Y-14285998D01*
X17499472Y-14279998D01*
X17500472Y-14273998D01*
X17502473Y-14267998D01*
X17504472Y-14261998D01*
X17506472Y-14255998D01*
X17509472Y-14250998D01*
X17512472Y-14244998D01*
X17515472Y-14239998D01*
X17519472Y-14233998D01*
X17523472Y-14228998D01*
X17527472Y-14224998D01*
X17531472Y-14219998D01*
X17536472Y-14215998D01*
X17540472Y-14211998D01*
X17545472Y-14207998D01*
X17551472Y-14203998D01*
X17556471Y-14200998D01*
X17562472Y-14197999D01*
X17567472Y-14194998D01*
X17573472Y-14192998D01*
X17579472Y-14190998D01*
X17585472Y-14188998D01*
X17591473Y-14187998D01*
X17597472Y-14185998D01*
X17603472Y-14185998D01*
X17610472Y-14184998D01*
X17616472Y-14184998D01*
X20916472Y-14184998D01*
X20922472Y-14184998D01*
X20929472Y-14185998D01*
G37*
X20511472Y-13144998D02*
X20916472Y-13144998D01*
X20922472Y-13144998D01*
X20929472Y-13145998D01*
X20935472Y-13145998D01*
X20941471Y-13147998D01*
X20947472Y-13148998D01*
X20953472Y-13150998D01*
X20959472Y-13152998D01*
X20965472Y-13154998D01*
X20970472Y-13157999D01*
X20976472Y-13160997D01*
X20981472Y-13163998D01*
X20987472Y-13167998D01*
X20992472Y-13171998D01*
X20996472Y-13175998D01*
X21001472Y-13179998D01*
X21005472Y-13184998D01*
X21009472Y-13188998D01*
X21013472Y-13193998D01*
X21017472Y-13199998D01*
X21020472Y-13204998D01*
X21023472Y-13210998D01*
X21026472Y-13215998D01*
X21028472Y-13221998D01*
X21030471Y-13227998D01*
X21032472Y-13233998D01*
X21033472Y-13239998D01*
X21035472Y-13245998D01*
X21035471Y-13251998D01*
X21036472Y-13258998D01*
X21036472Y-13264998D01*
X21036472Y-13414998D01*
X21036472Y-13420998D01*
X21035471Y-13427998D01*
X21035472Y-13433998D01*
X21033472Y-13439998D01*
X21032472Y-13445998D01*
X21030471Y-13451998D01*
X21028472Y-13457998D01*
X21026472Y-13463998D01*
X21023472Y-13468998D01*
X21020472Y-13474998D01*
X21017472Y-13479998D01*
X21013472Y-13485998D01*
X21009472Y-13490998D01*
X21005472Y-13494998D01*
X21001472Y-13499998D01*
X20996472Y-13503998D01*
X20992472Y-13507998D01*
X20987472Y-13511998D01*
X20981472Y-13515998D01*
X20976472Y-13518999D01*
X20970472Y-13521997D01*
X20965472Y-13524998D01*
X20959472Y-13526998D01*
X20953472Y-13528998D01*
X20947472Y-13530998D01*
X20941471Y-13531998D01*
X20935472Y-13533998D01*
X20929472Y-13533998D01*
X20922472Y-13534998D01*
X20916472Y-13534998D01*
X20511472Y-13534998D01*
X20511472Y-13574998D01*
X18021472Y-13574998D01*
X18021472Y-13534998D01*
X17616472Y-13534998D01*
X17610472Y-13534998D01*
X17603472Y-13533998D01*
X17597472Y-13533998D01*
X17591473Y-13531998D01*
X17585472Y-13530998D01*
X17579472Y-13528998D01*
X17573472Y-13526998D01*
X17567472Y-13524998D01*
X17562472Y-13521997D01*
X17556472Y-13518999D01*
X17551472Y-13515998D01*
X17545472Y-13511998D01*
X17540472Y-13507998D01*
X17536472Y-13503998D01*
X17531472Y-13499998D01*
X17527472Y-13494998D01*
X17523472Y-13490998D01*
X17519472Y-13485998D01*
X17515472Y-13479998D01*
X17512472Y-13474998D01*
X17509472Y-13468998D01*
X17506472Y-13463998D01*
X17504472Y-13457998D01*
X17502473Y-13451998D01*
X17500472Y-13445998D01*
X17499472Y-13439998D01*
X17497472Y-13433998D01*
X17497473Y-13427998D01*
X17496472Y-13420998D01*
X17496472Y-13414998D01*
X17496472Y-13264998D01*
X17496472Y-13258998D01*
X17497473Y-13251998D01*
X17497472Y-13245998D01*
X17499472Y-13239998D01*
X17500472Y-13233998D01*
X17502473Y-13227998D01*
X17504472Y-13221998D01*
X17506472Y-13215998D01*
X17509472Y-13210998D01*
X17512472Y-13204998D01*
X17515472Y-13199998D01*
X17519472Y-13193998D01*
X17523472Y-13188998D01*
X17527472Y-13184998D01*
X17531472Y-13179998D01*
X17536472Y-13175998D01*
X17540472Y-13171998D01*
X17545472Y-13167998D01*
X17551472Y-13163998D01*
X17556472Y-13160997D01*
X17562472Y-13157999D01*
X17567472Y-13154998D01*
X17573472Y-13152998D01*
X17579472Y-13150998D01*
X17585472Y-13148998D01*
X17591473Y-13147998D01*
X17597472Y-13145998D01*
X17603472Y-13145998D01*
X17610472Y-13144998D01*
X17616472Y-13144998D01*
X18021472Y-13144998D01*
X18021472Y-13104998D01*
X20511472Y-13104998D01*
X20511472Y-13144998D01*
G36*
X20511472Y-13144998D02*
G01*
X20916472Y-13144998D01*
X20922472Y-13144998D01*
X20929472Y-13145998D01*
X20935472Y-13145998D01*
X20941471Y-13147998D01*
X20947472Y-13148998D01*
X20953472Y-13150998D01*
X20959472Y-13152998D01*
X20965472Y-13154998D01*
X20970472Y-13157999D01*
X20976472Y-13160997D01*
X20981472Y-13163998D01*
X20987472Y-13167998D01*
X20992472Y-13171998D01*
X20996472Y-13175998D01*
X21001472Y-13179998D01*
X21005472Y-13184998D01*
X21009472Y-13188998D01*
X21013472Y-13193998D01*
X21017472Y-13199998D01*
X21020472Y-13204998D01*
X21023472Y-13210998D01*
X21026472Y-13215998D01*
X21028472Y-13221998D01*
X21030471Y-13227998D01*
X21032472Y-13233998D01*
X21033472Y-13239998D01*
X21035472Y-13245998D01*
X21035471Y-13251998D01*
X21036472Y-13258998D01*
X21036472Y-13264998D01*
X21036472Y-13414998D01*
X21036472Y-13420998D01*
X21035471Y-13427998D01*
X21035472Y-13433998D01*
X21033472Y-13439998D01*
X21032472Y-13445998D01*
X21030471Y-13451998D01*
X21028472Y-13457998D01*
X21026472Y-13463998D01*
X21023472Y-13468998D01*
X21020472Y-13474998D01*
X21017472Y-13479998D01*
X21013472Y-13485998D01*
X21009472Y-13490998D01*
X21005472Y-13494998D01*
X21001472Y-13499998D01*
X20996472Y-13503998D01*
X20992472Y-13507998D01*
X20987472Y-13511998D01*
X20981472Y-13515998D01*
X20976472Y-13518999D01*
X20970472Y-13521997D01*
X20965472Y-13524998D01*
X20959472Y-13526998D01*
X20953472Y-13528998D01*
X20947472Y-13530998D01*
X20941471Y-13531998D01*
X20935472Y-13533998D01*
X20929472Y-13533998D01*
X20922472Y-13534998D01*
X20916472Y-13534998D01*
X20511472Y-13534998D01*
X20511472Y-13574998D01*
X18021472Y-13574998D01*
X18021472Y-13534998D01*
X17616472Y-13534998D01*
X17610472Y-13534998D01*
X17603472Y-13533998D01*
X17597472Y-13533998D01*
X17591473Y-13531998D01*
X17585472Y-13530998D01*
X17579472Y-13528998D01*
X17573472Y-13526998D01*
X17567472Y-13524998D01*
X17562472Y-13521997D01*
X17556472Y-13518999D01*
X17551472Y-13515998D01*
X17545472Y-13511998D01*
X17540472Y-13507998D01*
X17536472Y-13503998D01*
X17531472Y-13499998D01*
X17527472Y-13494998D01*
X17523472Y-13490998D01*
X17519472Y-13485998D01*
X17515472Y-13479998D01*
X17512472Y-13474998D01*
X17509472Y-13468998D01*
X17506472Y-13463998D01*
X17504472Y-13457998D01*
X17502473Y-13451998D01*
X17500472Y-13445998D01*
X17499472Y-13439998D01*
X17497472Y-13433998D01*
X17497473Y-13427998D01*
X17496472Y-13420998D01*
X17496472Y-13414998D01*
X17496472Y-13264998D01*
X17496472Y-13258998D01*
X17497473Y-13251998D01*
X17497472Y-13245998D01*
X17499472Y-13239998D01*
X17500472Y-13233998D01*
X17502473Y-13227998D01*
X17504472Y-13221998D01*
X17506472Y-13215998D01*
X17509472Y-13210998D01*
X17512472Y-13204998D01*
X17515472Y-13199998D01*
X17519472Y-13193998D01*
X17523472Y-13188998D01*
X17527472Y-13184998D01*
X17531472Y-13179998D01*
X17536472Y-13175998D01*
X17540472Y-13171998D01*
X17545472Y-13167998D01*
X17551472Y-13163998D01*
X17556472Y-13160997D01*
X17562472Y-13157999D01*
X17567472Y-13154998D01*
X17573472Y-13152998D01*
X17579472Y-13150998D01*
X17585472Y-13148998D01*
X17591473Y-13147998D01*
X17597472Y-13145998D01*
X17603472Y-13145998D01*
X17610472Y-13144998D01*
X17616472Y-13144998D01*
X18021472Y-13144998D01*
X18021472Y-13104998D01*
X20511472Y-13104998D01*
X20511472Y-13144998D01*
G37*
%TD*%
D11*
%TO.C,TH1*%
X5750000Y-3675001D03*
X5750000Y-5325001D03*
%TD*%
D12*
%TO.C,R31*%
X7500000Y-3675001D03*
X7500000Y-5325001D03*
%TD*%
D13*
%TO.C,D41*%
X-9187500Y12162498D03*
X-9187500Y10587498D03*
%TD*%
D14*
%TO.C,D9*%
X-7725000Y24762499D03*
X-6150000Y24762499D03*
%TD*%
D15*
%TO.C,D24*%
X8245833Y22512500D03*
X8245833Y24087500D03*
%TD*%
D16*
%TO.C,U6*%
X-9637501Y2212499D03*
X-9237500Y2212499D03*
X-8837500Y2212499D03*
X-8437500Y2212500D03*
X-8037500Y2212499D03*
X-7637500Y2212499D03*
X-7237499Y2212499D03*
D17*
X-6500000Y2949998D03*
X-6500000Y3349999D03*
X-6500000Y3749999D03*
X-6500001Y4149999D03*
X-6500000Y4549999D03*
X-6500000Y4949999D03*
X-6500000Y5350000D03*
D16*
X-7237499Y6087499D03*
X-7637500Y6087499D03*
X-8037500Y6087499D03*
X-8437500Y6087498D03*
X-8837500Y6087499D03*
X-9237500Y6087499D03*
X-9637501Y6087499D03*
D17*
X-10375000Y5350000D03*
X-10375000Y4949999D03*
X-10375000Y4549999D03*
X-10374999Y4149999D03*
X-10375000Y3749999D03*
X-10375000Y3349999D03*
X-10375000Y2949998D03*
D18*
X-8437500Y4149999D03*
%TD*%
D15*
%TO.C,D49*%
X5529166Y13874999D03*
X5529166Y15449999D03*
%TD*%
D13*
%TO.C,D57*%
X12745833Y12199999D03*
X12745833Y10624999D03*
%TD*%
D14*
%TO.C,D23*%
X9708333Y24762499D03*
X11283333Y24762499D03*
%TD*%
D19*
%TO.C,U3*%
X4991435Y972272D03*
X4425749Y1537957D03*
X3860064Y2103643D03*
X3294379Y2669328D03*
X2728693Y3235014D03*
X2163008Y3800699D03*
X1597322Y4366384D03*
X1031637Y4932070D03*
D20*
X-912907Y4932070D03*
X-1478592Y4366384D03*
X-2044278Y3800699D03*
X-2609963Y3235014D03*
X-3175649Y2669328D03*
X-3741334Y2103643D03*
X-4307019Y1537957D03*
X-4872705Y972272D03*
D19*
X-4872705Y-972272D03*
X-4307019Y-1537957D03*
X-3741334Y-2103643D03*
X-3175649Y-2669328D03*
X-2609963Y-3235014D03*
X-2044278Y-3800699D03*
X-1478592Y-4366384D03*
X-912907Y-4932070D03*
D20*
X1031637Y-4932070D03*
X1597322Y-4366384D03*
X2163008Y-3800699D03*
X2728693Y-3235014D03*
X3294379Y-2669328D03*
X3860064Y-2103643D03*
X4425749Y-1537957D03*
X4991435Y-972272D03*
%TD*%
D14*
%TO.C,D40*%
X-7725000Y9874998D03*
X-6150000Y9874998D03*
%TD*%
D12*
%TO.C,R2*%
X-12947451Y-15500022D03*
X-12947451Y-13850022D03*
%TD*%
D21*
%TO.C,J3*%
X22569365Y-2840000D03*
D22*
X22569365Y2240000D03*
%TD*%
D14*
%TO.C,D60*%
X25462499Y21259602D03*
X27037501Y21259602D03*
%TD*%
D15*
%TO.C,D58*%
X-1750000Y18374998D03*
X-1750000Y19950000D03*
%TD*%
D23*
%TO.C,R21*%
X-885305Y-24121509D03*
X764695Y-24121509D03*
%TD*%
D24*
%TO.C,SW5*%
X-15785304Y-24169011D03*
X-22795304Y-24169010D03*
D25*
X-17035304Y-26659010D03*
X-21535305Y-26659010D03*
%TD*%
D26*
%TO.C,C7*%
X3559366Y6249999D03*
X4655382Y5153983D03*
%TD*%
D15*
%TO.C,D17*%
X1029166Y22512500D03*
X1029166Y24087500D03*
%TD*%
D27*
%TO.C,R17*%
X23750000Y-17444225D03*
X23750000Y-11519225D03*
%TD*%
D11*
%TO.C,R30*%
X-11500000Y1574999D03*
X-11500000Y-75001D03*
%TD*%
D14*
%TO.C,D5*%
X-14941667Y18512499D03*
X-13366667Y18512499D03*
%TD*%
D23*
%TO.C,R34*%
X17920348Y23398420D03*
X19570348Y23398420D03*
%TD*%
D24*
%TO.C,SW7*%
X22809366Y-24159011D03*
X15799366Y-24159010D03*
D25*
X21559366Y-26649010D03*
X17059365Y-26649010D03*
%TD*%
D23*
%TO.C,R35*%
X17920348Y17749999D03*
X19570348Y17749999D03*
%TD*%
D15*
%TO.C,D52*%
X8245833Y13874999D03*
X8245833Y15449999D03*
%TD*%
D14*
%TO.C,D32*%
X-14900000Y12874998D03*
X-13325000Y12874998D03*
%TD*%
%TO.C,D53*%
X9745833Y12874998D03*
X11320833Y12874998D03*
%TD*%
D13*
%TO.C,D50*%
X5529166Y12199999D03*
X5529166Y10624999D03*
%TD*%
D14*
%TO.C,D62*%
X25454998Y11059602D03*
X27030000Y11059602D03*
%TD*%
D28*
%TO.C,C3*%
X-22695736Y-10300042D03*
X-25645738Y-10300042D03*
%TD*%
D11*
%TO.C,R3*%
X-11197449Y-13850022D03*
X-11197449Y-15500022D03*
%TD*%
D14*
%TO.C,D25*%
X9745833Y21512499D03*
X11320833Y21512499D03*
%TD*%
D15*
%TO.C,D38*%
X-9187500Y13874999D03*
X-9187500Y15449999D03*
%TD*%
D14*
%TO.C,D47*%
X2491666Y9874998D03*
X4066666Y9874998D03*
%TD*%
D29*
%TO.C,J2*%
X-26190636Y7630000D03*
D30*
X-26190636Y10170000D03*
X-26190636Y12709999D03*
X-26190636Y15250000D03*
X-26190636Y17790000D03*
%TD*%
D31*
%TO.C,SW2*%
X-22340635Y21500000D03*
X-26540635Y21500000D03*
%TD*%
D29*
%TO.C,J4*%
X-1500000Y-11500001D03*
D30*
X-4040000Y-11500001D03*
X-6579999Y-11500001D03*
%TD*%
D14*
%TO.C,D19*%
X2491666Y18512499D03*
X4066666Y18512499D03*
%TD*%
D23*
%TO.C,R9*%
X-19375000Y-2970000D03*
X-17725000Y-2970000D03*
%TD*%
%TO.C,R23*%
X-20060304Y-24159010D03*
X-18410304Y-24159010D03*
%TD*%
D32*
%TO.C,U2*%
X-15094900Y-15650001D03*
X-15094900Y-15000015D03*
X-15094900Y-14350029D03*
X-15094900Y-13700043D03*
X-17800000Y-13700043D03*
X-17800000Y-14350029D03*
X-17800000Y-15000015D03*
X-17800000Y-15650001D03*
%TD*%
D15*
%TO.C,D7*%
X-11904167Y22512499D03*
X-11904167Y24087501D03*
%TD*%
%TO.C,D45*%
X1029166Y13874999D03*
X1029166Y15449999D03*
%TD*%
D28*
%TO.C,C4*%
X-22670736Y-12800042D03*
X-25620738Y-12800042D03*
%TD*%
D11*
%TO.C,R4*%
X-18197450Y-17425000D03*
X-18197450Y-19075000D03*
%TD*%
D13*
%TO.C,D20*%
X1029166Y20799999D03*
X1029166Y19224999D03*
%TD*%
D14*
%TO.C,D33*%
X-14937500Y9874998D03*
X-13362500Y9874998D03*
%TD*%
D23*
%TO.C,R29*%
X-9825000Y-1D03*
X-8175000Y-1D03*
%TD*%
D24*
%TO.C,SW3*%
X3464695Y-24169009D03*
X-3545305Y-24169008D03*
D25*
X2214695Y-26659008D03*
X-2285306Y-26659008D03*
%TD*%
D14*
%TO.C,D54*%
X9708333Y9874998D03*
X11283333Y9874998D03*
%TD*%
%TO.C,D44*%
X2491666Y16124998D03*
X4066666Y16124998D03*
%TD*%
D15*
%TO.C,D56*%
X12745833Y13874999D03*
X12745833Y15449999D03*
%TD*%
D14*
%TO.C,D46*%
X2529166Y12874998D03*
X4104166Y12874998D03*
%TD*%
D23*
%TO.C,R1*%
X-14522450Y-11425023D03*
X-12872450Y-11425023D03*
%TD*%
D24*
%TO.C,SW6*%
X-6160304Y-24169011D03*
X-13170304Y-24169010D03*
D25*
X-7410304Y-26659010D03*
X-11910305Y-26659010D03*
%TD*%
D14*
%TO.C,D12*%
X-7725000Y18512499D03*
X-6150000Y18512499D03*
%TD*%
%TO.C,D51*%
X9708333Y16124998D03*
X11283333Y16124998D03*
%TD*%
D13*
%TO.C,D8*%
X-11904167Y20837501D03*
X-11904167Y19262499D03*
%TD*%
D33*
%TO.C,L2*%
X9809365Y-17950002D03*
X9809365Y-8050000D03*
%TD*%
D14*
%TO.C,D61*%
X25462499Y16259602D03*
X27037501Y16259602D03*
%TD*%
D24*
%TO.C,SW4*%
X13089695Y-24169011D03*
X6079695Y-24169010D03*
D25*
X11839695Y-26659010D03*
X7339694Y-26659010D03*
%TD*%
D14*
%TO.C,D65*%
X17977848Y13648420D03*
X19552848Y13648420D03*
%TD*%
D13*
%TO.C,D48*%
X1029166Y12162498D03*
X1029166Y10587498D03*
%TD*%
D14*
%TO.C,D2*%
X-14941667Y24762499D03*
X-13366667Y24762499D03*
%TD*%
D13*
%TO.C,D13*%
X-9187500Y20799999D03*
X-9187500Y19224999D03*
%TD*%
D12*
%TO.C,R38*%
X14250000Y-5325001D03*
X14250000Y-3675001D03*
%TD*%
D15*
%TO.C,D59*%
X-1750000Y9762499D03*
X-1750000Y11337501D03*
%TD*%
D13*
%TO.C,D55*%
X8245833Y12162498D03*
X8245833Y10587498D03*
%TD*%
D23*
%TO.C,R10*%
X-16000000Y-2970000D03*
X-14350000Y-2970000D03*
%TD*%
D34*
%TO.C,C20*%
X10935000Y-3725000D03*
X10935000Y-5275000D03*
%TD*%
D14*
%TO.C,D4*%
X-14904167Y21512499D03*
X-13329167Y21512499D03*
%TD*%
D35*
%TO.C,C6*%
X6905382Y2903984D03*
X5809366Y4000000D03*
%TD*%
D13*
%TO.C,D22*%
X5529166Y20837500D03*
X5529166Y19262500D03*
%TD*%
D15*
%TO.C,D3*%
X-16404167Y22512499D03*
X-16404167Y24087501D03*
%TD*%
D36*
%TO.C,R13*%
X8142729Y1785355D03*
X6976003Y618629D03*
%TD*%
D14*
%TO.C,D16*%
X2491666Y24762499D03*
X4066666Y24762499D03*
%TD*%
D11*
%TO.C,R33*%
X-22750000Y27324999D03*
X-22750000Y25674999D03*
%TD*%
%TO.C,R8*%
X-13500000Y1899999D03*
X-13500000Y249999D03*
%TD*%
D23*
%TO.C,R27*%
X25425000Y17856487D03*
X27075000Y17856487D03*
%TD*%
D11*
%TO.C,R5*%
X-19947450Y-17425000D03*
X-19947450Y-19075000D03*
%TD*%
D13*
%TO.C,D15*%
X-4687500Y20837500D03*
X-4687500Y19262500D03*
%TD*%
D37*
%TO.C,H3*%
X-26440635Y-28150000D03*
X-27607361Y-27666726D03*
X-25273909Y-27666726D03*
X-28090635Y-26500000D03*
D38*
X-26440635Y-26500000D03*
D37*
X-24790635Y-26500000D03*
X-27607361Y-25333274D03*
X-25273909Y-25333274D03*
X-26440635Y-24850000D03*
%TD*%
D14*
%TO.C,D37*%
X-7725000Y16124998D03*
X-6150000Y16124998D03*
%TD*%
D39*
%TO.C,C2*%
X-19947450Y-15425023D03*
X-19947450Y-13875023D03*
%TD*%
D11*
%TO.C,R18*%
X20559365Y-17156725D03*
X20559365Y-18806725D03*
%TD*%
D14*
%TO.C,D63*%
X17977848Y24998420D03*
X19552848Y24998420D03*
%TD*%
%TO.C,D39*%
X-7687500Y12874998D03*
X-6112500Y12874998D03*
%TD*%
%TO.C,D64*%
X17977848Y19349999D03*
X19552848Y19349999D03*
%TD*%
D11*
%TO.C,R19*%
X23500000Y-7925001D03*
X23500000Y-9575001D03*
%TD*%
D13*
%TO.C,D6*%
X-16404167Y20800000D03*
X-16404167Y19224998D03*
%TD*%
D37*
%TO.C,H4*%
X26559365Y-28150000D03*
X25392639Y-27666726D03*
X27726091Y-27666726D03*
X24909365Y-26500000D03*
D38*
X26559365Y-26500000D03*
D37*
X28209365Y-26500000D03*
X25392639Y-25333274D03*
X27726091Y-25333274D03*
X26559365Y-24850000D03*
%TD*%
%TO.C,H2*%
X26559365Y24850000D03*
X25392639Y25333274D03*
X27726091Y25333274D03*
X24909365Y26500000D03*
D38*
X26559365Y26500000D03*
D37*
X28209365Y26500000D03*
X25392639Y27666726D03*
X27726091Y27666726D03*
X26559365Y28150000D03*
%TD*%
D23*
%TO.C,R22*%
X8777195Y-24159010D03*
X10427195Y-24159010D03*
%TD*%
D40*
%TO.C,C21*%
X-7110458Y-4561906D03*
X-6014442Y-3465890D03*
%TD*%
D14*
%TO.C,D26*%
X9708333Y18512499D03*
X11283333Y18512499D03*
%TD*%
D15*
%TO.C,D14*%
X-4687500Y22512500D03*
X-4687500Y24087500D03*
%TD*%
D23*
%TO.C,R36*%
X17920348Y12048420D03*
X19570348Y12048420D03*
%TD*%
D36*
%TO.C,R12*%
X8333363Y-416638D03*
X7166637Y-1583364D03*
%TD*%
D15*
%TO.C,D10*%
X-9187500Y22512500D03*
X-9187500Y24087500D03*
%TD*%
%TO.C,D35*%
X-11900000Y13874999D03*
X-11900000Y15449999D03*
%TD*%
D12*
%TO.C,R7*%
X-13500000Y3499999D03*
X-13500000Y5149999D03*
%TD*%
D23*
%TO.C,R26*%
X25425000Y22856486D03*
X27075000Y22856486D03*
%TD*%
D41*
%TO.C,C1*%
X-19672450Y-11000001D03*
X-16722448Y-11000001D03*
%TD*%
D29*
%TO.C,J5*%
X-1500000Y-15250000D03*
D30*
X-4040000Y-15250000D03*
X-6579999Y-15250000D03*
%TD*%
D13*
%TO.C,D27*%
X8245833Y20799999D03*
X8245833Y19224999D03*
%TD*%
D15*
%TO.C,D31*%
X-16400000Y13874999D03*
X-16400000Y15449999D03*
%TD*%
D12*
%TO.C,R37*%
X12685000Y-5325001D03*
X12685000Y-3675001D03*
%TD*%
D15*
%TO.C,D21*%
X5529166Y22512500D03*
X5529166Y24087500D03*
%TD*%
D14*
%TO.C,D30*%
X-14937500Y16124998D03*
X-13362500Y16124998D03*
%TD*%
D11*
%TO.C,R11*%
X18309365Y-17156726D03*
X18309365Y-18806726D03*
%TD*%
D42*
%TO.C,U1*%
X-18725000Y3750000D03*
X-18725000Y3249999D03*
X-18725000Y2749999D03*
X-18725000Y2249998D03*
D43*
X-18000001Y1524999D03*
X-17500000Y1524999D03*
X-17000000Y1524999D03*
X-16499999Y1524999D03*
D42*
X-15775000Y2249998D03*
X-15775000Y2749999D03*
X-15775000Y3249999D03*
X-15775000Y3750000D03*
D43*
X-16499999Y4474999D03*
X-17000000Y4474999D03*
X-17500000Y4474999D03*
X-18000001Y4474999D03*
D44*
X-17250000Y2999999D03*
%TD*%
D13*
%TO.C,D36*%
X-11900000Y12199999D03*
X-11900000Y10624999D03*
%TD*%
D12*
%TO.C,R6*%
X-14697450Y-19075001D03*
X-14697450Y-17425001D03*
%TD*%
D23*
%TO.C,R25*%
X18609366Y-24149010D03*
X20259366Y-24149010D03*
%TD*%
D15*
%TO.C,D28*%
X12745833Y22512500D03*
X12745833Y24087500D03*
%TD*%
D14*
%TO.C,D11*%
X-7687500Y21512499D03*
X-6112500Y21512499D03*
%TD*%
D37*
%TO.C,H1*%
X-26440635Y24850000D03*
X-27607361Y25333274D03*
X-25273909Y25333274D03*
X-28090635Y26500000D03*
D38*
X-26440635Y26500000D03*
D37*
X-24790635Y26500000D03*
X-27607361Y27666726D03*
X-25273909Y27666726D03*
X-26440635Y28150000D03*
%TD*%
D23*
%TO.C,R24*%
X-10397804Y-24159010D03*
X-8747804Y-24159010D03*
%TD*%
%TO.C,R28*%
X25417499Y12656486D03*
X27067499Y12656486D03*
%TD*%
D41*
%TO.C,C12*%
X18066473Y-8129998D03*
X21016475Y-8129998D03*
%TD*%
D13*
%TO.C,D34*%
X-16400000Y12162498D03*
X-16400000Y10587498D03*
%TD*%
D45*
%TO.C,L1*%
X-24043186Y-19350001D03*
X-24043186Y-15649999D03*
%TD*%
D46*
%TO.C,C8*%
X-21690635Y17750000D03*
X-23240635Y17750000D03*
%TD*%
D47*
%TO.C,D1*%
X-19050000Y-600001D03*
X-15750000Y-600001D03*
%TD*%
D34*
%TO.C,C5*%
X-16447451Y-17475000D03*
X-16447451Y-19025000D03*
%TD*%
D14*
%TO.C,D18*%
X2529166Y21512499D03*
X4104166Y21512499D03*
%TD*%
D48*
%TO.C,J1*%
X-22534836Y3200000D03*
X-22534836Y2400000D03*
D49*
X-22534837Y1250000D03*
X-22534836Y250000D03*
X-22534836Y-250000D03*
X-22534837Y-1250000D03*
D48*
X-22534836Y-2400000D03*
X-22534836Y-3200000D03*
X-22534836Y-3200000D03*
X-22534836Y-2400000D03*
D49*
X-22534836Y-1750000D03*
X-22534836Y-750000D03*
X-22534836Y750000D03*
X-22534836Y1750000D03*
D48*
X-22534836Y2400000D03*
X-22534836Y3200000D03*
D50*
X-23109836Y4320000D03*
D51*
X-27289836Y4320000D03*
D50*
X-23109836Y-4320000D03*
D51*
X-27289836Y-4320000D03*
%TD*%
D15*
%TO.C,D42*%
X-4687500Y13874999D03*
X-4687500Y15449999D03*
%TD*%
D52*
%TO.C,Q1*%
X-14275000Y-8655001D03*
X-14275000Y-7385001D03*
X-14275000Y-6115001D03*
X-14275000Y-4845001D03*
X-19225000Y-8655001D03*
X-19225000Y-7385001D03*
X-19225000Y-6115001D03*
X-19225000Y-4845001D03*
%TD*%
D13*
%TO.C,D29*%
X12745833Y20837500D03*
X12745833Y19262500D03*
%TD*%
D53*
%TO.C,R32*%
X-8408376Y-3334698D03*
X-7241650Y-2167972D03*
%TD*%
D13*
%TO.C,D43*%
X-4687500Y12199999D03*
X-4687500Y10624999D03*
%TD*%
D12*
%TO.C,R39*%
X9250000Y-5325001D03*
X9250000Y-3675001D03*
%TD*%
M02*
